<svg xmlns="http://www.w3.org/2000/svg" xml:space="preserve" style="fill-rule:evenodd;clip-rule:evenodd;stroke-linejoin:round;stroke-miterlimit:2" viewBox="0 0 100 100"><path d="M0 0h100v100H0z"/><path d="M478 475h60v22h21v22h21v21h20v22h21v218h-45v-91H440v91h-45V561h21v-21h21v-22h21v-21h20zm22 62v3h-20v22h-20v21h-20v63h136v-63h-20v-21h-19v-22h-20v-3z" style="fill:#fefefe" transform="translate(-39.753 -36.842)scale(.13861)"/><path d="M681 473h218v1h1v43H726v86h132v43H726v134h-45z" style="fill:#fefefe;fill-rule:nonzero" transform="translate(-39.753 -36.842)scale(.13861)"/></svg>