<svg xmlns="http://www.w3.org/2000/svg" width="1200" height="630" viewBox="0 0 1200 630" role="img" aria-labelledby="title description">
	<title id="title">Arib Farooqui Software Engineer</title>
	<desc id="description">Cyber terminal styled social preview for Arib Farooqui's software engineering portfolio.</desc>
	<defs>
		<linearGradient id="bg" x1="0" y1="0" x2="1" y2="1">
			<stop offset="0" stop-color="#030811" />
			<stop offset="0.55" stop-color="#071423" />
			<stop offset="1" stop-color="#040812" />
		</linearGradient>
		<radialGradient id="glow" cx="0.72" cy="0.28" r="0.54">
			<stop offset="0" stop-color="#5fe6ff" stop-opacity="0.28" />
			<stop offset="1" stop-color="#5fe6ff" stop-opacity="0" />
		</radialGradient>
		<pattern id="grid" width="58" height="58" patternUnits="userSpaceOnUse">
			<path d="M58 0H0V58" fill="none" stroke="#eff7ff" stroke-opacity="0.06" stroke-width="1" />
		</pattern>
	</defs>
	<rect width="1200" height="630" fill="url(#bg)" />
	<rect width="1200" height="630" fill="url(#glow)" />
	<rect width="1200" height="630" fill="url(#grid)" />
	<rect x="70" y="70" width="1060" height="490" rx="8" fill="#070e1b" fill-opacity="0.88" stroke="#94b7dc" stroke-opacity="0.34" />
	<rect x="70" y="70" width="1060" height="58" rx="8" fill="#ffffff" fill-opacity="0.04" />
	<circle cx="106" cy="99" r="8" fill="#ff655c" />
	<circle cx="134" cy="99" r="8" fill="#ffe35e" />
	<circle cx="162" cy="99" r="8" fill="#5effb5" />
	<text x="1010" y="104" fill="#9aaabd" font-family="Cascadia Code, Consolas, monospace" font-size="18" text-anchor="end">AF.PORTFOLIO</text>
	<text x="118" y="236" fill="#5effb5" font-family="Cascadia Code, Consolas, monospace" font-size="28" font-weight="700">// developer mode: on</text>
	<text x="118" y="332" fill="#ffffff" font-family="Cascadia Code, Consolas, monospace" font-size="76" font-weight="800">Arib Farooqui_</text>
	<text x="118" y="397" fill="#b68cff" font-family="Cascadia Code, Consolas, monospace" font-size="32" font-weight="800">Software Engineer</text>
	<text x="118" y="472" fill="#c4d0df" font-family="Cascadia Code, Consolas, monospace" font-size="26">Interactive web experiences, developer tools, SaaS workflows.</text>
	<path d="M886 215h110v18H886zM1006 215h54v18h-54zM840 253h166v18H840zM1020 253h42v18h-42zM896 291h76v18h-76zM988 291h88v18h-88zM854 329h212v18H854zM916 367h78v18h-78zM1010 367h54v18h-54z" fill="#5fe6ff" fill-opacity="0.34" />
	<path d="M873 434h210" stroke="#5effb5" stroke-opacity="0.72" stroke-width="3" />
</svg>
