<svg xmlns="http://www.w3.org/2000/svg" width="1200" height="630" aria-labelledby="title description" viewBox="0 0 1200 630"><title>Arib Farooqui Software Engineer</title><desc>Cyber terminal styled social preview for Arib Farooqui&apos;s software engineering portfolio.</desc><defs><radialGradient id="b" cx=".72" cy=".28" r=".54"><stop offset="0" stop-color="#5fe6ff" stop-opacity=".28"/><stop offset="1" stop-color="#5fe6ff" stop-opacity="0"/></radialGradient><linearGradient id="a" x1="0" x2="1" y1="0" y2="1"><stop offset="0" stop-color="#030811"/><stop offset=".55" stop-color="#071423"/><stop offset="1" stop-color="#040812"/></linearGradient><pattern id="c" width="58" height="58" patternUnits="userSpaceOnUse"><path fill="none" stroke="#eff7ff" stroke-opacity=".06" d="M58 0H0v58"/></pattern></defs><path fill="url(#a)" d="M0 0h1200v630H0z"/><path fill="url(#b)" d="M0 0h1200v630H0z"/><path fill="url(#c)" d="M0 0h1200v630H0z"/><rect width="1060" height="490" x="70" y="70" fill="#070e1b" fill-opacity=".88" stroke="#94b7dc" stroke-opacity=".34" rx="8"/><rect width="1060" height="58" x="70" y="70" fill="#fff" fill-opacity=".04" rx="8"/><circle cx="106" cy="99" r="8" fill="#ff655c"/><circle cx="134" cy="99" r="8" fill="#ffe35e"/><circle cx="162" cy="99" r="8" fill="#5effb5"/><text x="1010" y="104" fill="#9aaabd" font-family="Cascadia Code, Consolas, monospace" font-size="18" text-anchor="end">AF.PORTFOLIO</text><text x="118" y="236" fill="#5effb5" font-family="Cascadia Code, Consolas, monospace" font-size="28" font-weight="700">// developer mode: on</text><text x="118" y="332" fill="#fff" font-family="Cascadia Code, Consolas, monospace" font-size="76" font-weight="800">Arib Farooqui_</text><text x="118" y="397" fill="#b68cff" font-family="Cascadia Code, Consolas, monospace" font-size="32" font-weight="800">Software Engineer</text><text x="118" y="472" fill="#c4d0df" font-family="Cascadia Code, Consolas, monospace" font-size="26">Interactive web experiences, developer tools, SaaS workflows.</text><path fill="#5fe6ff" fill-opacity=".34" d="M886 215h110v18H886zm120 0h54v18h-54zm-166 38h166v18H840zm180 0h42v18h-42zm-124 38h76v18h-76zm92 0h88v18h-88zm-134 38h212v18H854zm62 38h78v18h-78zm94 0h54v18h-54z"/><path stroke="#5effb5" stroke-opacity=".72" stroke-width="3" d="M873 434h210"/></svg>