<?xml version="1.0" encoding="UTF-8" standalone="no"?>
<!DOCTYPE svg PUBLIC "-//W3C//DTD SVG 1.1//EN" "http://www.w3.org/Graphics/SVG/1.1/DTD/svg11.dtd">
<svg width="100%" height="100%" viewBox="0 0 708 820" version="1.1" xmlns="http://www.w3.org/2000/svg" xmlns:xlink="http://www.w3.org/1999/xlink" xml:space="preserve" xmlns:serif="http://www.serif.com/" style="fill-rule:evenodd;clip-rule:evenodd;stroke-linejoin:round;stroke-miterlimit:2;">
    <g transform="matrix(1,0,0,1,-248,-179)">
        <g>
            <path d="M909,179L955,179L955,276L940,276L940,337L925,337L925,379L924,379L924,391L910,391L910,392L909,392L909,433L895,433L895,461L881,461L881,477L874,477L874,487L864,487L864,492L873,492L873,504L889,504L889,518L903,518L903,545L917,545L917,572L930,572L930,588L929,588L929,600L943,600L943,665L956,665L956,720L928,720L928,732L915,732L915,745L902,745L902,759L888,759L888,772L875,772L875,785L862,785L862,798L849,798L849,811L836,811L836,823L823,823L823,836L822,836L822,837L810,837L810,850L797,850L797,863L783,863L783,875L771,875L771,889L770,889L770,890L744,890L744,903L731,903L731,916L705,916L705,929L691,929L691,930L690,930L690,942L675,942L675,956L654,956L654,971L639,971L639,985L625,985L625,984L612,984L612,999L555,999L555,861L556,861L556,851L542,851L542,820L529,820L529,800L516,800L516,785L503,785L503,772L489,772L489,759L464,759L464,745L411,745L411,732L273,732L273,718L248,718L248,687L262,687L262,668L277,668L277,655L290,655L290,656L305,656L305,640L323,640L323,627L353,627L353,614L371,614L371,601L393,601L393,587L419,587L419,574L418,574L418,550L431,550L431,520L444,520L444,492L456,492L456,478L469,478L469,463L481,463L481,450L482,450L482,449L493,449L493,436L506,436L506,422L531,422L531,409L544,409L544,395L556,395L556,396L569,396L569,394L570,394L570,393L571,393L571,379L600,379L600,365L629,365L629,350L644,350L644,351L671,351L671,336L705,336L705,321L744,321L744,305L760,305L760,306L780,306L780,291L808,291L808,276L835,276L835,263L848,263L848,250L861,250L861,236L872,236L872,223L885,223L885,210L897,210L897,194L909,194L909,179Z" style="fill:rgb(0,9,28);fill-rule:nonzero;"/>
            <path d="M898,250L910,250L910,277L899,277L899,306L886,306L886,329L873,329L873,350L861,350L861,365L849,365L849,379L836,379L836,395L822,395L822,409L809,409L809,422L793,422L793,435L822,435L822,448L809,448L809,462L795,462L795,476L782,476L782,492L757,492L757,504L745,504L745,505L735,505L735,517L721,517L721,518L664,518L664,504L563,504L563,505L562,505L562,518L530,518L530,533L564,533L564,519L580,519L580,517L652,517L652,535L721,535L721,533L736,533L736,599L722,599L722,618L708,618L708,639L693,639L693,651L679,651L679,664L666,664L666,676L693,676L693,689L708,689L708,704L722,704L722,731L707,731L707,761L693,761L693,777L680,777L680,806L667,806L667,828L655,828L655,843L644,843L644,869L630,869L630,890L619,890L619,903L602,903L602,890L605,890L605,815L592,815L592,781L580,781L580,762L568,762L568,745L555,745L555,734L541,734L541,721L501,721L501,707L556,707L556,706L569,706L569,721L592,721L592,733L605,733L605,720L593,720L593,702L592,702L592,701L581,701L581,688L569,688L569,676L556,676L556,664L543,664L543,652L605,652L605,651L617,651L617,640L631,640L631,626L645,626L645,614L664,614L664,600L678,600L678,587L694,587L694,576L721,576L721,564L645,564L645,551L568,551L568,564L545,564L545,576L531,576L531,591L517,591L517,603L504,603L504,612L478,612L478,592L492,592L492,578L503,578L503,564L516,564L516,549L530,549L530,534L516,534L516,535L506,535L506,549L504,549L504,552L493,552L493,564L490,564L490,577L478,577L478,578L468,578L468,552L480,552L480,532L491,532L491,516L503,516L503,503L515,503L515,488L528,488L528,473L542,473L542,460L556,460L556,447L574,447L574,431L601,431L601,416L617,416L617,417L632,417L632,401L667,401L667,386L702,386L702,372L743,372L743,358L780,358L780,344L809,344L809,329L835,329L835,315L860,315L860,306L861,306L861,292L873,292L873,291L884,291L884,277L886,277L886,264L898,264L898,250Z" style="fill:rgb(0,82,219);fill-rule:nonzero;"/>
            <path d="M909,179L955,179L955,276L940,276L940,337L925,337L925,379L924,379L924,391L910,391L910,392L909,392L909,433L895,433L895,461L881,461L881,477L874,477L874,487L864,487L864,492L873,492L873,504L889,504L889,518L903,518L903,545L917,545L917,572L930,572L930,588L929,588L929,600L943,600L943,665L956,665L956,720L928,720L928,732L915,732L915,745L902,745L902,759L888,759L888,772L875,772L875,785L862,785L862,798L849,798L849,811L836,811L836,823L823,823L823,836L822,836L822,837L810,837L810,850L797,850L797,863L783,863L783,875L771,875L771,889L770,889L770,890L744,890L744,903L731,903L731,916L705,916L705,929L691,929L691,930L690,930L690,942L675,942L675,956L654,956L654,971L639,971L639,985L625,985L625,984L612,984L612,999L555,999L555,861L556,861L556,851L542,851L542,820L529,820L529,800L516,800L516,785L503,785L503,772L489,772L489,759L464,759L464,745L411,745L411,732L273,732L273,718L248,718L248,687L262,687L262,668L277,668L277,655L290,655L290,656L305,656L305,640L323,640L323,627L353,627L353,614L371,614L371,601L393,601L393,587L419,587L419,574L418,574L418,550L431,550L431,520L444,520L444,492L456,492L456,478L469,478L469,463L481,463L481,450L482,450L482,449L493,449L493,436L506,436L506,422L531,422L531,409L544,409L544,395L556,395L556,396L569,396L569,394L570,394L570,393L571,393L571,379L600,379L600,365L629,365L629,350L644,350L644,351L671,351L671,336L705,336L705,321L744,321L744,305L760,305L760,306L780,306L780,291L808,291L808,276L835,276L835,263L848,263L848,250L861,250L861,236L872,236L872,223L885,223L885,210L897,210L897,194L909,194L909,179ZM923,195L923,207L911,207L911,224L899,224L899,237L886,237L886,250L873,250L873,263L862,263L862,264L861,264L861,277L846,277L846,292L820,292L820,306L790,306L790,321L747,321L747,336L717,336L717,351L682,351L682,365L644,365L644,379L614,379L614,395L600,395L600,393L585,393L585,394L584,394L584,395L583,395L583,409L559,409L559,422L544,422L544,436L520,436L520,449L506,449L506,463L495,463L495,477L483,477L483,492L471,492L471,507L459,507L459,535L446,535L446,564L433,564L433,588L432,588L432,602L407,602L407,615L384,615L384,627L365,627L365,640L353,640L353,641L339,641L339,654L327,654L327,655L315,655L315,668L292,668L292,680L277,680L277,693L264,693L264,705L283,705L283,717L422,717L422,730L444,730L444,731L477,731L477,744L503,744L503,757L517,757L517,769L531,769L531,785L544,785L544,805L557,805L557,840L569,840L569,862L570,862L570,971L569,971L569,985L600,985L600,971L623,971L623,956L643,956L643,943L656,943L656,928L667,928L667,929L678,929L678,916L692,916L692,903L717,903L717,889L731,889L731,875L757,875L757,862L770,862L770,850L771,850L771,849L783,849L783,836L796,836L796,823L809,823L809,811L822,811L822,798L835,798L835,785L849,785L849,772L862,772L862,759L875,759L875,745L888,745L888,732L901,732L901,719L915,719L915,705L941,705L941,676L928,676L928,615L915,615L915,586L904,586L904,560L888,560L888,534L877,534L877,517L862,517L862,505L835,505L835,488L848,488L848,473L862,473L862,462L867,462L867,448L881,448L881,418L895,418L895,377L909,377L909,329L925,329L925,264L939,264L939,195L923,195Z" style="fill:rgb(89,205,254);fill-rule:nonzero;"/>
            <path d="M479,532L480,532L480,552L468,552L468,578L478,578L478,577L490,577L490,564L493,564L493,552L504,552L504,549L506,549L506,535L516,535L516,534L530,534L530,549L516,549L516,564L503,564L503,578L492,578L492,592L478,592L478,612L504,612L504,603L517,603L517,591L531,591L531,576L545,576L545,564L568,564L568,551L645,551L645,564L721,564L721,576L694,576L694,587L678,587L678,600L664,600L664,614L645,614L645,626L631,626L631,640L617,640L617,651L605,651L605,652L543,652L543,664L556,664L556,676L569,676L569,688L581,688L581,701L592,701L592,702L593,702L593,720L605,720L605,733L592,733L592,721L569,721L569,706L556,706L556,707L501,707L501,721L541,721L541,734L555,734L555,745L554,745L554,735L540,735L540,736L539,736L539,735L537,735L537,736L535,736L535,739L533,739L533,738L532,738L532,739L530,739L530,741L529,741L529,745L525,745L525,744L524,744L524,743L523,743L523,746L522,746L522,747L521,747L521,751L518,751L518,752L517,752L517,753L518,753L518,754L514,754L514,753L515,753L515,751L514,751L514,750L510,750L510,749L509,749L509,746L507,746L507,745L506,745L506,751L504,751L504,744L477,744L477,731L444,731L444,730L422,730L422,717L283,717L283,705L264,705L264,693L277,693L277,680L292,680L292,668L315,668L315,655L327,655L327,654L339,654L339,641L353,641L353,640L365,640L365,627L384,627L384,615L407,615L407,602L432,602L432,588L433,588L433,564L446,564L446,536L458,536L458,537L452,537L452,538L451,538L451,539L452,539L452,540L453,540L453,543L455,543L455,544L456,544L456,546L458,546L458,548L459,548L459,553L460,553L460,555L461,555L461,556L462,556L462,558L463,558L463,560L464,560L464,561L465,561L465,559L466,559L466,551L467,551L467,550L478,550L478,551L479,551L479,532Z" style="fill:rgb(0,9,28);fill-rule:nonzero;"/>
            <path d="M580,517L652,517L652,535L721,535L721,533L736,533L736,599L722,599L722,618L708,618L708,639L693,639L693,651L679,651L679,664L666,664L666,676L693,676L693,689L708,689L708,704L722,704L722,731L707,731L707,761L693,761L693,777L680,777L680,806L667,806L667,828L655,828L655,843L644,843L644,869L630,869L630,890L619,890L619,903L602,903L602,890L605,890L605,815L592,815L592,781L580,781L580,762L568,762L568,745L555,745L555,734L541,734L541,721L501,721L501,707L556,707L556,706L569,706L569,721L592,721L592,733L605,733L605,720L593,720L593,702L592,702L592,701L581,701L581,688L569,688L569,676L556,676L556,664L543,664L543,652L605,652L605,651L617,651L617,640L631,640L631,626L645,626L645,614L664,614L664,600L678,600L678,587L694,587L694,576L721,576L721,564L645,564L645,551L568,551L568,564L545,564L545,576L531,576L531,591L517,591L517,603L504,603L504,612L478,612L478,592L492,592L492,578L503,578L503,564L516,564L516,549L530,549L530,533L564,533L564,519L580,519L580,517Z" style="fill:rgb(254,254,254);fill-rule:nonzero;"/>
            <path d="M822,552L836,552L836,564L849,564L849,576L862,576L862,600L876,600L876,626L889,626L889,652L903,652L903,692L876,692L876,705L862,705L862,718L849,718L849,731L836,731L836,745L822,745L822,759L809,759L809,772L796,772L796,785L783,785L783,798L771,798L771,811L757,811L757,823L744,823L744,837L722,837L722,851L708,851L708,865L692,865L692,851L693,851L693,840L707,840L707,826L720,826L720,805L733,805L733,785L746,785L746,772L757,772L757,744L770,744L770,731L783,731L783,704L782,704L782,692L796,692L796,675L783,675L783,665L769,665L769,651L783,651L783,639L796,639L796,625L809,625L809,611L822,611L822,552Z" style="fill:rgb(0,82,217);fill-rule:nonzero;"/>
            <path d="M444,614L457,614L457,626L468,626L468,639L456,639L456,651L444,651L444,652L432,652L432,665L468,665L468,652L491,652L491,665L503,665L503,666L516,666L516,679L392,679L392,692L326,692L326,678L353,678L353,665L378,665L378,651L403,651L403,639L431,639L431,626L444,626L444,614Z" style="fill:rgb(64,75,89);fill-rule:nonzero;"/>
            <path d="M580,576L605,576L605,613L593,613L593,627L569,627L569,615L580,615L580,603L557,603L557,588L569,588L569,591L580,591L580,576Z" style="fill:rgb(254,254,254);fill-rule:nonzero;"/>
        </g>
    </g>
</svg>
