<svg xmlns="http://www.w3.org/2000/svg" xml:space="preserve" style="fill-rule:evenodd;clip-rule:evenodd;stroke-linejoin:round;stroke-miterlimit:2" viewBox="0 0 439 672"><path d="M526 256h202v22h46v23h23v25h23v45h22v122h-22v45h-23v23h-22v23h-21v19h-19v15h-17v22h-20v23h-21v69h-22v22h-87v-22h-21V617h21v-34h20v-22h22v-23h22v-22h22v-23h22v-23h22v-57h-22v-22H570v22h-21v57h-22v23h-93v-23h-23v-99h23v-45h23v-24h1v-1h23v-23h45z" style="fill:#be99fe;fill-rule:nonzero" transform="translate(-411 -252)"/><path d="M527 279h201v23h2v1h-1v1h9v1h-10v1h-5v-2h-1v-6h-1v2h-1v1h-1v-1h-2v2h1v2h-1v-1h-2v1h-1v2h2v-1h1v4h-2v-1h-1v1h-1v2h1v1h-4v-1h-1v1h-1v1h-1v-1h-2v3h-1v1h-1v1h-3v1h-1v2h1v1h2v2h-2v-1h-1v1h-5v1h-1v3h2v1h3v2h-1v1h-1v1h-1v3h-2v1h-1v-1h-3v1h-1v2h-2v-1h-2v1h1v2h-4v1h1v2h-1v2h-1v1h1v1h1v2h-1v1h-3v-1h-1v42h21v22h-22v-22H570v22h-21v57h-22v23h-93v-23h-23v-99h23v-45h47v-24h46z" style="fill:#be99fe;fill-rule:nonzero" transform="translate(-411 -252)"/><path d="M411 371h23v76h71v-34h22v-22h21v-20h128v20H570v22h-21v57h-22v23h-93v-23h-23z" style="fill:#6650c5;fill-rule:nonzero" transform="translate(-411 -252)"/><path d="M610 539h22v23h-22v22h-21v34h-20v113h86v-69h22v-59h33v1h1v1h1v2h-6v1h3v1h1v1h1v1h1v1h1v1h2v1h1v2h-9v-1h-1v-1h-1v-1h-2v1h-1v2h-4v1h17v1h2v-16h17v-1h-1v-40h42v23h-21v19h-19v15h-17v22h-20v23h-21v69h-22v22h-87v-22h-21V617h21v-34h20v-22h22z" style="fill:#010119;fill-rule:nonzero" transform="translate(-411 -252)"/><path d="M797 326h23v45h22v122h-22v45h-23v23h-22v-68h22z" style="fill:#8d69f1;fill-rule:nonzero" transform="translate(-411 -252)"/><path d="M526 256h202v22h46v23h23v25h-45v-24h-24v-23H527v23h-46v24h-24v-24h1v-1h23v-23h45z" style="fill:#00001a;fill-rule:nonzero" transform="translate(-411 -252)"/><path d="M546 809h22v69h87v-69h22v93h-22v22h-87v-22h-22z" style="fill:#6b54cb;fill-rule:nonzero" transform="translate(-411 -252)"/><path d="M568 786h87v92h-87zm21-183h9v2h-1v2h-2v1h-2v1h-2v9h1v2h1v1h1v-3h1v-1h1v-2h1v-1h1v-1h1v-1h1v-1h-1v-2h1v1h2v-1h2v-1h1v-1h1v-1h1v-1h1v-1h2v1h-1v2h1v1h1v1h1v1h-1v3h-1v1h-6v1h4v1h-1v3h1v-1h1v2h-1v1h3v1h1v2h-1v1h-6v-1h-1v2h1v1h3v-1h1v3h3v5h-1v1h1v1h7v1h5v1h1v-2h1v-1h1v1h1v1h1v5h-1v1h-1v1h2v-1h1v-1h1v-1h3v1h2v1h1v1h-1v1h1v4h-2v-1h-2v5h1v1h-2v-1h-3v1h2v1h1v1h-1v1h-1v1h-1v2h1v-1h1v1h1v26h-1v1h-1v3h-1v1h-1v2h-1v1h-2v3h-1v3h-1v1h-1v2h1v2h-1v1h1v1h-53v2h-1v-91h20z" style="fill:#bc98fe;fill-rule:nonzero" transform="translate(-411 -252)"/><path d="M434 326h23v23h4v1h-1v1h1v1h1v3h2v1h2v1h1v1h1v1h2v1h1v-1h1v-1h1v3h-2v1h3v3h1v-1h1v3h1v1h-1v1h-2v2h-1v1h-1v-1h-3v1h1v1h-2v1h2v1h1v-1h1v1h2v-2h1v-3h1v2h2v-1h1v1h1v1h1v1h2v-1h1v-4h2v-1h-2v-2h-1v-2h-2v1h-2v-2h2v-1h-2v-3h3v1h1v-1h1v2h1v-2h1v1h1v1h-1v1h1v2h2v1h1v-1h2v2h1v-2h3v-2h2v-1h1v-2h-1v-1h1v-1h-3v-2h1v1h1v-1h1v-1h-3v-3h1v2h2v-2h-1v-3h-1v-1h5v1h1v-1h1v1h1v1h-1v2h-1v1h3v-2h1v-2h-1v-2h1v1h1v2h1v1h-1v3h1v1h-3v1h1v1h1v2h1v1h1v-3h-1v-1h1v-1h2v1h1v-3h4v2h-1v4h-2v1h-1v2h-2v6h-2v2h-1v1h-2v2h-2v2h-1v-3h-1v1h-1v2h1v1h-1v10h-1v1h-1v-1h-1v-1h-1v3h-1v2h-5v-3h-5v1h-1v1h1v3h3v2h-1v1h1v1h1v1h-3v-1h-1v1h-1v1h-1v1h-1v1h1v2h-1v1h1v1h-3v-2h-7v2h1v-1h2v1h-1v1h-2v2h-4v1h-1v1h-2v3h-1v1h-1v1h-1v3h-3v-1h-1v1h-1v2h1v1h-2v-1h-2v1h-3v1h-1v1h-1v-1h-2v1h-2v-1h-2v1h1v1h1v4h1v2h2v1h-3v1h3v1h1v-1h2v1h1v2h2v2h1v1h1v2h1v2h1v2h1v1h1v1h1v1h4v1h-31v-55h21v-19h-22v75h-1z" style="fill:#bb97fe;fill-rule:nonzero" transform="translate(-411 -252)"/><path d="M527 279h180v23H527z" style="fill:#d2b4fe;fill-rule:nonzero" transform="translate(-411 -252)"/><path d="M526 256h1v22h247v23h23v25h-45v-24h-24v-23H527v23h-46v24h-24v-24h1v-1h23v-23h45z" style="fill:#8663ea;fill-rule:nonzero" transform="translate(-411 -252)"/><path d="M546 809h22v69h1v24h86v22h-87v-22h-22z" style="fill:#00001b;fill-rule:nonzero" transform="translate(-411 -252)"/><path d="M733 561h42v23h-21v19h-19v15h-17v22h-20v23h-43v-1h22v-59h33v1h1v1h1v2h-6v1h3v1h1v1h1v1h1v1h1v1h2v1h1v2h-9v-1h-1v-1h-1v-1h-2v1h-1v2h-4v1h17v1h2v-16h17v-1h-1z" style="fill:#00000c;fill-rule:nonzero" transform="translate(-411 -252)"/><path d="M633 663h22v68h-86v-22h1v-1h63z" style="fill:#644ec3;fill-rule:nonzero" transform="translate(-411 -252)"/><path d="M820 371h22v122h-22z" style="fill:#000017;fill-rule:nonzero" transform="translate(-411 -252)"/><path d="M481 302h46v24h-36v1h5v1h-2v2h-1v1h-1v2h-2v1h-1v1h-3v1h-1v2h1v2h1v2h-2v1h1v1h1v-1h1v-1h1v1h4v-1h1v6h-1v1h1v1h2v-11h-1v-1h1v-1h1v1h1v1h-1v1h3v1h1v1h-1v1h1v1h-1v1h-1v-4h-1v1h-1v1h1v3h3v-1h2v1h2v-1h1v-3h-1v-1h1v-2h-1v1h-3v-2h5v-3h5v2h-2v-1h-2v2h1v1h-1v7h1v1h1v2h1v1h2v-2h-1v-1h1v-3h1v1h1v-1h2v1h-1v2h-2v1h1v1h-1v2h1v1h-2v3h-1v-1h-2v1h-1v1h1v3h-1v-1h-1v-2h-1v-1h-1v-1h3v-1h-1v-3h1v-1h-1v-2h-1v-1h-1v2h1v2h-1v2h-3v-1h1v-2h1v-1h-1v-1h-1v1h-1v-1h-5v1h1v3h1v2h-2v-2h-1v3h3v1h-1v1h-1v-1h-1v2h3v1h-1v1h1v2h-1v1h-2v2h-3v2h-1v-2h-2v1h-1v-1h-2v-2h-1v-1h1v-1h-1v-1h-1v2h-1v-2h-1v1h-1v-1h-3v3h2v1h-2v2h2v-1h2v2h1v2h2v1h-2v4h-1v1h-2v-1h-1v-1h-1v-1h-1v1h-2v-2h-1v3h-1v2h-2v-1h-1v1h-1v-1h-2v-1h2v-1h-1v-1h3v1h1v-1h1v-2h2v-1h1v-1h-1v-3h-1v1h-1v-3h-3v-1h2v-3h-1v1h-1v1h-1v-1h-2v-1h-1v-1h-1v-1h-2v-1h-2v-3h-1v-1h-1v-1h1v-1h-4v-23h24z" style="fill:#bb97fe;fill-rule:nonzero" transform="translate(-411 -252)"/><path d="M775 493h45v45h-23v23h-22z" style="fill:#8160e3;fill-rule:nonzero" transform="translate(-411 -252)"/><path d="M571 349h105v22H571z" style="fill:#6953c7;fill-rule:nonzero" transform="translate(-411 -252)"/><path d="M412 371h22v98h-22z" style="fill:#000016;fill-rule:nonzero" transform="translate(-411 -252)"/><path d="M570 371h106v20H570z" style="fill:#00000e;fill-rule:nonzero" transform="translate(-411 -252)"/><path d="M435 470h91v23h-91z" style="fill:#001;fill-rule:nonzero" transform="translate(-411 -252)"/><path d="M655 809h22v93h-22z" style="fill:#000018;fill-rule:nonzero" transform="translate(-411 -252)"/><path d="M569 787h86v22h-86z" style="fill:#000019;fill-rule:nonzero" transform="translate(-411 -252)"/><path d="M569 732h86v21h-86z" style="fill:#000016;fill-rule:nonzero" transform="translate(-411 -252)"/><path d="M568 786h87v1h-86v22h86v69h-22v-68h-64v68h-1z" style="fill:#966df7;fill-rule:nonzero" transform="translate(-411 -252)"/><path d="M632 516h22v23h22v-11h1v11h3v-1h1v-2h1v4h3v1h-1v1h-3v-1h-2v-1h-1v2h-1v1h1v6h1v-1h1v8h-2v6h-1v1h-4v-1h-1v2h-2v1h1v1h-1v2h1v2h-1v1h-2v-5h1v-2h-1v1h-1v1h-1v-1h-1v-1h-1v-1h-1v-1h-1v-1h-2v-1h-1v-1h-1v3h-1v1h-1v1h-1v1h-2v-2h1v-1h-8v1h-9v2h-4v-1h-22v-1h21v-24h-22v-1h22z" style="fill:#bb97fe;fill-rule:nonzero" transform="translate(-411 -252)"/><path d="M655 663h22v68h-22z" style="fill:#000014;fill-rule:nonzero" transform="translate(-411 -252)"/><path d="M677 603h33v1h1v1h1v2h-6v1h3v1h1v1h1v1h1v1h1v1h2v1h1v2h-9v-1h-1v-1h-1v-1h-2v1h-1v2h-4v1h17v1h-17v45h-43v-1h22z" style="fill:#6a52c9;fill-rule:nonzero" transform="translate(-411 -252)"/><path d="M569 810h64v22h-63v46h-1z" style="fill:#d2b5fe;fill-rule:nonzero" transform="translate(-411 -252)"/><path d="M753 516h22v45h-42v-23h20z" style="fill:#926bf3;fill-rule:nonzero" transform="translate(-411 -252)"/><path d="M797 430h23v63h-23z" style="fill:#6953c9;fill-rule:nonzero" transform="translate(-411 -252)"/><path d="M713 561h20v40h1v1h-17v16h-2v-1h-17v-1h4v-2h1v-1h2v1h1v1h1v1h9v-2h-1v-1h-2v-1h-1v-1h-1v-1h-1v-1h-1v-1h-3v-1h6v-2h-1v-1h-1v-1h-14v-20h17z" style="fill:#815fe2;fill-rule:nonzero" transform="translate(-411 -252)"/><path d="M527 413h21v56h-21z" style="fill:#00000e;fill-rule:nonzero" transform="translate(-411 -252)"/><path d="M698 413h20v57h-20z" style="fill:#000013;fill-rule:nonzero" transform="translate(-411 -252)"/><path d="M435 372h22v19h-21v55h31v-1h-4v-1h-1v-1h-1v-1h-1v-2h-1v-2h-1v-5h6v-1h1v-1h1v-1h4v1h-1v2h2v1h1v2h1v-1h7v-2h4v-5h3v-3h-2v1h-1v-4h1v-2h3v-1h2v-1h-1v-3h2v1h2v1h-1v1h2v1h2v-3h1v1h1v2h1v2h-2v-1h-1v8h2v-1h1v9h-1v2h-1v-1h-3v-1h-1v1h-1v2h-1v1h-1v1h-1v1h-1v1h-1v2h-6v1h-1v1h-45z" style="fill:#bf99ff;fill-rule:nonzero" transform="translate(-411 -252)"/><path d="M482 302h45v24h-45z" style="fill:#d3b5fe;fill-rule:nonzero" transform="translate(-411 -252)"/><path d="M633 663h22v46h-85v-1h63z" style="fill:#7c5edd;fill-rule:nonzero" transform="translate(-411 -252)"/><path d="M797 493h23v45h-23z" style="fill:#000012;fill-rule:nonzero" transform="translate(-411 -252)"/><path d="M797 326h23v45h-23z" style="fill:#00001b;fill-rule:nonzero" transform="translate(-411 -252)"/><path d="M434 326h23v45h-23z" style="fill:#00001c;fill-rule:nonzero" transform="translate(-411 -252)"/><path d="M774 326h23v45h-22v-22h-1z" style="fill:#9b71fa;fill-rule:nonzero" transform="translate(-411 -252)"/><path d="M728 279h45v22h-45z" style="fill:#000019;fill-rule:nonzero" transform="translate(-411 -252)"/><path d="M481 279h45v22h-45z" style="fill:#000018;fill-rule:nonzero" transform="translate(-411 -252)"/><path d="M676 603h1v59h-22v-44h21z" style="fill:#8563e9;fill-rule:nonzero" transform="translate(-411 -252)"/><path d="M733 561h42v23h-21v19h-1v-20h-19v18h-1z" style="fill:#6751c5;fill-rule:nonzero" transform="translate(-411 -252)"/><path d="M568 786h87v1h-86v22h86v23h-22v-22h-64v68h-1z" style="fill:#b690fe;fill-rule:nonzero" transform="translate(-411 -252)"/><path d="M832 362h3v1h-1v1h9v1h1v3h1v1h1v2h1v1h1v2h-1v2h-1v106h1v2h1v1h1v1h1v3h-3v2h-1v3h-3v1h-1v-1h-22v-1h22V371h-21v-1h22v-2h-16v-1h2v-3h1v-1h2z" style="fill:#fafafa;fill-rule:nonzero" transform="translate(-411 -252)"/><path d="M697 413h1v57h-22v23h-22v21h-22v-1h18v-19h2v12h1v-15h-1v-1h-1v-2h3v-1h1v-1h1v1h1v1h2v1h2v1h6v-2h3v-1h2v-15h-1v-3h1v-4h1v-1h3v1h14v-4h1v-3h-1v-6h1v1h2v-33h1v-3h-1v-1h-16v-1h14v-1h5v54h-20v1h21z" style="fill:#f6f6f7;fill-rule:nonzero" transform="translate(-411 -252)"/><path d="M569 584h19v33h-19z" style="fill:#000014;fill-rule:nonzero" transform="translate(-411 -252)"/><path d="M457 302h24v24h-24z" style="fill:#00001b;fill-rule:nonzero" transform="translate(-411 -252)"/><path d="M774 302h23v24h-23z" style="fill:#00001c;fill-rule:nonzero" transform="translate(-411 -252)"/><path d="M457 327h24v22h-24z" style="fill:#d0b3fe;fill-rule:nonzero" transform="translate(-411 -252)"/><path d="M569 618h20v22h-19v69h-1z" style="fill:#d0b1fe;fill-rule:nonzero" transform="translate(-411 -252)"/><path d="M775 538h22v23h-22z" style="fill:#000013;fill-rule:nonzero" transform="translate(-411 -252)"/><path d="M654 516h22v23h-22z" style="fill:#d0b2fe;fill-rule:nonzero" transform="translate(-411 -252)"/><path d="M654 493h22v23h-22z" style="fill:#000017;fill-rule:nonzero" transform="translate(-411 -252)"/><path d="M676 470h22v23h-22z" style="fill:#00001a;fill-rule:nonzero" transform="translate(-411 -252)"/><path d="M754 538h21v23h-22v-22h1z" style="fill:#6b55cb;fill-rule:nonzero" transform="translate(-411 -252)"/><path d="M566 825h2v74h-19v-3h1v-3h1v1h1v-1h3v1h3v-1h1v1h1v-3h-1v-2h-1v-4h-1v-3h1v-7h1v3h1v1h1v1h2v-1h3v-44h-1v7h-3v2h-1v1h-1v2h1v3h-1v1h-2v-4h-2v-3h-1v-1h-1v-2h1v-1h1v-1h-2v-2h1v-2h1v-1h1v-1h1v-1h1v1h1v1h1v-2h1v-1h1v-3h1v-1h1v2h1z" style="fill:#001;fill-rule:nonzero" transform="translate(-411 -252)"/><path d="M797 430h22v62h-20v-1h19v-44h-6v1h-14v45h-1z" style="fill:#7359d5;fill-rule:nonzero" transform="translate(-411 -252)"/><path d="M526 256h1v22h247v23h23v1h-69v-1h45v-22H527v23h-69v-1h68v-22h-45v-1h45z" style="fill:#453676;fill-rule:nonzero" transform="translate(-411 -252)"/><path d="M570 391h106v1H574v1h100v2h-2v-1h-98v1h-1v17h1v-1h1v3h1v1h-1v1h-2v1h-2v1h-5v-1h-13v3h1v5h2v3h-4v14h1v1h-1v5h1v4h-1v17h-1v1h-1v-56h2v1h14v-2h4z" style="fill:#f6f6f7;fill-rule:nonzero" transform="translate(-411 -252)"/><path d="M655 640h22v22h-22z" style="fill:#6b55ca;fill-rule:nonzero" transform="translate(-411 -252)"/><path d="M610 539h22v22h-22z" style="fill:#000014;fill-rule:nonzero" transform="translate(-411 -252)"/><path d="M676 391h22v22h-22z" style="fill:#00000c;fill-rule:nonzero" transform="translate(-411 -252)"/><path d="M714 583h18v1h1v17h1v1h-17v16h-2v-1h-17v-1h4v-2h1v-1h2v1h1v1h1v1h9v-2h-1v-1h-2v-1h-1v-1h-1v-1h-1v-1h-1v-1h-3v-1h6v-2h-1v-1h-1v-1h4v-18h-1v-1h1z" style="fill:#6951c8;fill-rule:nonzero" transform="translate(-411 -252)"/><path d="M754 561h21v22h-21z" style="fill:#00000d;fill-rule:nonzero" transform="translate(-411 -252)"/><path d="M633 539h21v22h-21z" style="fill:#d2b3fe;fill-rule:nonzero" transform="translate(-411 -252)"/><path d="M633 516h21v22h-21z" style="fill:#000014;fill-rule:nonzero" transform="translate(-411 -252)"/><path d="M549 391h21v22h-21z" style="fill:#001;fill-rule:nonzero" transform="translate(-411 -252)"/><path d="M698 470h20v23h-20z" style="fill:#d2b5fe;fill-rule:nonzero" transform="translate(-411 -252)"/><path d="M610 562h22v1h-21v1h21v19h-22z" style="fill:#d3b5fe;fill-rule:nonzero" transform="translate(-411 -252)"/><path d="M589 562h21v21h-21z" style="fill:#000017;fill-rule:nonzero" transform="translate(-411 -252)"/><path d="M677 640h20v22h-20z" style="fill:#000010;fill-rule:nonzero" transform="translate(-411 -252)"/><path d="M548 371h22v20h-22z" style="fill:#7057cf;fill-rule:nonzero" transform="translate(-411 -252)"/><path d="M797 493h23v45h-1v-44h-16v1h14v1h-1v1h1v4h-1v1h-5v-1h-1v1h-3v8h1v2h1v2h-1v-1h-1v2h-1v4h-1v4h-1v2h-1v2h-1v5h1v1h-2v-1h-1v4h-1v-41h-1v43h-1z" style="fill:#00001e;fill-rule:nonzero" transform="translate(-411 -252)"/><path d="M411 371h1v98h22v-22h1v22h91v-56h1v56h21v-78h1v79h-22v23h-1v-23h-91v23h-1v-23h-23z" style="fill:#48389b;fill-rule:nonzero" transform="translate(-411 -252)"/><path d="M775 326h22v1h-21v1h19v1h-3v1h1v1h1v-1h1v6h1v12h-21z" style="fill:#7c5be0;fill-rule:nonzero" transform="translate(-411 -252)"/><path d="M775 516h21v21h-20v-13h-1z" style="fill:#6c54ce;fill-rule:nonzero" transform="translate(-411 -252)"/><path d="M677 494h21v1h-1v20h-18v1h-2z" style="fill:#d1b4fe;fill-rule:nonzero" transform="translate(-411 -252)"/><path d="M435 372h22v19h-22z" style="fill:#cfaffe;fill-rule:nonzero" transform="translate(-411 -252)"/><path d="M728 252h1v2h3v1h1v1h-1v3h1v12h-2v3h5v-1h2v1h36v3h-44v-21h-1v22h-1v-22H527v-1h201z" style="fill:#f6f6f7;fill-rule:nonzero" transform="translate(-411 -252)"/><path d="M634 879h19v14h1v7h-20v-1h2v-1h-2v-4h1v-1h-1z" style="fill:#5f4cbe;fill-rule:nonzero" transform="translate(-411 -252)"/><path d="M589 584h21v19h-21z" style="fill:#d0b2fe;fill-rule:nonzero" transform="translate(-411 -252)"/><path d="M690 613h1v4h1v16h1v-2h1v-1h-1v-3h2v12h1v-21h1v22h-20v-14h2v-1h2v-1h1v-2h1v-4h1v-3h1v-1h3v1h1v-1h1z" style="fill:#6c55cb;fill-rule:nonzero" transform="translate(-411 -252)"/><path d="M734 601h1v1h18v1h-18v15h-17v22h-1v-38h17z" style="fill:#000017;fill-rule:nonzero" transform="translate(-411 -252)"/><path d="M822 537h2v3h-1v1h-2v2h-1v1h-1v-1h-17v2h2v3h-1v3h-1v11h-2v6h-3v-1h-2v1h-2v-1h-1v-3h-16v-1h21v-1h-22v-1h22v-23h23v1h1v-1h1z" style="fill:#f8f8f9;fill-rule:nonzero" transform="translate(-411 -252)"/><path d="M568 786h87v1h-86v22h86v1h-86v68h-1z" style="fill:#9c85cb;fill-rule:nonzero" transform="translate(-411 -252)"/><path d="M434 326h23v45h-23zm2 2v41h19v-41z" style="fill:#000007;fill-rule:nonzero" transform="translate(-411 -252)"/><path d="M677 340h3v1h2v2h-1v2h-1v1h1v1h1v2h-1v1h-3v-1h-1v42h-1v-42H571v22h-1v-23h107v-1h-6v-1h-5v-1h8v-1h1v-2h3v-1h-1z" style="fill:#9778e9;fill-rule:nonzero" transform="translate(-411 -252)"/><path d="M546 618h1v114h-3v1h-1V619h1v109h1v3h1z" style="fill:#f6f6f8;fill-rule:nonzero" transform="translate(-411 -252)"/><path d="M457 302h3v2h14v3h-1v1h-5v4h-1v-1h-1v-1h-1v1h-1v2h-1v2h-1v1h-3v6h1v1h-1v1h22v2h-24z" style="fill:#000021;fill-rule:nonzero" transform="translate(-411 -252)"/><path d="M527 255h201v1H527z" style="fill:#c6c8da;fill-rule:nonzero" transform="translate(-411 -252)"/><path d="M691 611h1v3h3v1h7v1h-4v1h17v1h-17v45h-43v-1h42v-44h-1v21h-1v-12h-2v3h1v1h-1v2h-1v-16h-1z" style="fill:#6950ca;fill-rule:nonzero" transform="translate(-411 -252)"/><path d="M733 561h21v22h21v1h-21v19h-1v-41h-2v9h-1v-3h-3v-2h-2v-1h-1v-1h1v-1h-5v-1h-6v10h1v8h11v1h-12v1h6v1h-6v18h-1z" style="fill:#674fc6;fill-rule:nonzero" transform="translate(-411 -252)"/><path d="M797 493h23v45h-1v-44h-16v1h5v2h-1v1h-3v-1h-1v2h2v3h-2v-2h-1v-1h-1v-3h1v-1h-2v12h1v2h-1v27h-1v-41h-1v43h-1zm5 9h1v1h-1zm-1 1h1v1h-1z" style="fill:#000024;fill-rule:nonzero" transform="translate(-411 -252)"/><path d="M676 470h22v23h-22zm2 2v18h-1v1h19v-17h-2v-2z" style="fill:#000006;fill-rule:nonzero" transform="translate(-411 -252)"/><path d="M526 256h1v46h-69v-1h68v-22h-45v-1h45z" style="fill:#3a2b69;fill-rule:nonzero" transform="translate(-411 -252)"/><path d="M716 413h2v57h-20v-2h18v-53h-8v-1h8z" style="fill-rule:nonzero" transform="translate(-411 -252)"/><path d="M563 851h2v15h-2v-3h-2v2h1v3h-1v1h-1v2h-1v1h-1v-1h-1v2h1v1h-1v1h-1v-4h-1v-1h-1v-1h-1v-3h1v-3h1v-1h1v-10h1v3h1v-1h2v1h2v3h-1v1h-1v1h3z" style="fill:#000017;fill-rule:nonzero" transform="translate(-411 -252)"/><path d="M728 278h46v23h23v1h-69v-1h45v-22h-45z" style="fill:#322268;fill-rule:nonzero" transform="translate(-411 -252)"/><path d="M568 878h1v45h86v1h-87z" style="fill:#39395d;fill-rule:nonzero" transform="translate(-411 -252)"/><path d="M569 810h64v1h-63v67h-1z" style="fill:#e9d5ff;fill-rule:nonzero" transform="translate(-411 -252)"/><path d="M797 538h23v1h-22v23h1v-1h1v-2h2v3h-2v6h-3v-1h-2v1h-2v-1h-1v-3h-16v-1h21v-1h-22v-1h22z" style="fill:#f8f8f9;fill-rule:nonzero" transform="translate(-411 -252)"/><path d="M569 709h1v21h84v-21h1v22h-86z" style="fill:#7059d0;fill-rule:nonzero" transform="translate(-411 -252)"/><path d="M570 391h106v1H571v21h-1z" style="fill:#cac9d7;fill-rule:nonzero" transform="translate(-411 -252)"/><path d="M524 256h1v21h-44v-1h1v-1h37v-1h5v-2h-1v-13h1z" style="fill:#f2f2f4;fill-rule:nonzero" transform="translate(-411 -252)"/><path d="M547 819h1v81h20v2h-21z" style="fill-rule:nonzero" transform="translate(-411 -252)"/><path d="M842 371h1v122h-1z" style="fill:#88889e;fill-rule:nonzero" transform="translate(-411 -252)"/><path d="M546 618h1v113h-1z" style="fill:#72758e;fill-rule:nonzero" transform="translate(-411 -252)"/><path d="M434 326h23v45h-1v-44h-21v44h-1z" style="fill:#0f074a;fill-rule:nonzero" transform="translate(-411 -252)"/><path d="M568 786h87v1h-86v22h-1z" style="fill:#8f8fa7;fill-rule:nonzero" transform="translate(-411 -252)"/><path d="M671 548h2v2h5v3h-1v1h1v2h-1v2h-6v1h-3v1h-1v3h-2v-1h-1v-2h-3v-2h3v-2h4v-5h3v1h1v-2h-1z" style="fill:#bd99ff;fill-rule:nonzero" transform="translate(-411 -252)"/><path d="M588 561h44v1h-43v21h21v1h-42v-1h20z" style="fill:#6e708b;fill-rule:nonzero" transform="translate(-411 -252)"/><path d="M677 340h3v1h2v2h-1v2h-1v1h1v1h1v2h-1v1h-3v-1h-1v42h-1v-43h1v-1h-6v-1h-5v-1h8v-1h1v-2h3v-1h-1z" style="fill:#bb94fe;fill-rule:nonzero" transform="translate(-411 -252)"/><path d="M454 302h3v24h-23v-1h20v-1h-13v-1h12v-2h1z" style="fill:#f2f2f3;fill-rule:nonzero" transform="translate(-411 -252)"/><path d="M718 603h16v14h-8v-1h2v-1h-1v-4h1v-1h1v-1h1v-5h-11v12h1v1h-2z" style="fill:#000003;fill-rule:nonzero" transform="translate(-411 -252)"/><path d="M548 391h1v79h-21v-1h20z" style="fill:#51556b;fill-rule:nonzero" transform="translate(-411 -252)"/><path d="M411 371h1v99h-1z" style="fill:#898aa4;fill-rule:nonzero" transform="translate(-411 -252)"/><path d="M457 302h3v2h-1v18h1v1h-1v1h22v2h-24z" style="fill:#000003;fill-rule:nonzero" transform="translate(-411 -252)"/><path d="M677 809h1v93h-1z" style="fill:#c2c4d2;fill-rule:nonzero" transform="translate(-411 -252)"/><path d="M546 809h1v93h-1z" style="fill:#6f728c;fill-rule:nonzero" transform="translate(-411 -252)"/><path d="M434 493h93v1h-93z" style="fill:#d5d5df;fill-rule:nonzero" transform="translate(-411 -252)"/><path d="M676 391h1v4h1v6h1v3h-1v7h8v1h11v-21h1v22h-22z" style="fill:#000001;fill-rule:nonzero" transform="translate(-411 -252)"/><path d="M797 326h22v6h-1v-4h-19v1h-1v42h-1z" style="fill:#000004;fill-rule:nonzero" transform="translate(-411 -252)"/><path d="M568 618h1v91h-1z" style="fill:#977acb;fill-rule:nonzero" transform="translate(-411 -252)"/><path d="M655 809h22v1h-21v68h-1z" style="fill:#120e59;fill-rule:nonzero" transform="translate(-411 -252)"/><path d="M435 492h90v1h-90z" style="fill:#0c0d2d;fill-rule:nonzero" transform="translate(-411 -252)"/><path d="M734 601h1v1h18v1h-18v15h-1v-15h-16v37h-1v-38h17z" style="fill:#2b2c3f;fill-rule:nonzero" transform="translate(-411 -252)"/><path d="M713 561h20v1h-19v1h11v1h-2v2h-1v2h-1v-1h-1v1h-1v1h-2v1h-2v-5h-1v18h-1z" style="fill:#8767e6;fill-rule:nonzero" transform="translate(-411 -252)"/><path d="M632 516h1v22h21v1h-21v22h-1v-22h-22v-1h22z" style="fill:#64647f;fill-rule:nonzero" transform="translate(-411 -252)"/><path d="M568 753h87v1h-87z" style="fill:#81829d;fill-rule:nonzero" transform="translate(-411 -252)"/><path d="M697 618h1v45h-43v-1h42z" style="fill:#3b3c57;fill-rule:nonzero" transform="translate(-411 -252)"/><path d="M569 902h86v1h-86z" style="fill:#010043;fill-rule:nonzero" transform="translate(-411 -252)"/><path d="M633 810h22v10h-1v-1h-1v2h-1v-1h-3v-2h-2v-1h-1v-1h1v-2h-1v-2h8v-1h-21z" style="fill:#bb98fd;fill-rule:nonzero" transform="translate(-411 -252)"/><path d="M434 447h1v22h12v1h-12v23h-1v-23h-22v-1h22z" style="fill:#4e42ab;fill-rule:nonzero" transform="translate(-411 -252)"/><path d="M798 371h22v59h-1v-58h-21z" style="fill:#8066df;fill-rule:nonzero" transform="translate(-411 -252)"/><path d="M697 413h1v57h-22v-1h21z" style="fill:#9fa2b0;fill-rule:nonzero" transform="translate(-411 -252)"/><path d="M717 413h1v57h-20v-1h19z" style="fill:#170c45;fill-rule:nonzero" transform="translate(-411 -252)"/><path d="M547 809h21v2h-1v5h-1v-1h-1v1h-1v-1h-1v-1h-3v-2h6v-1h-18v8h-1z" style="fill:#000008;fill-rule:nonzero" transform="translate(-411 -252)"/><path d="M435 447h70v1h-70z" style="fill:#8569dc;fill-rule:nonzero" transform="translate(-411 -252)"/><path d="M677 663h1v68h-1z" style="fill:#cfd1db;fill-rule:nonzero" transform="translate(-411 -252)"/><path d="M655 663h1v68h-1z" style="fill:#070545;fill-rule:nonzero" transform="translate(-411 -252)"/><path d="M526 256h1v23h-46v-1h45z" style="fill:#82869d;fill-rule:nonzero" transform="translate(-411 -252)"/><path d="M568 709h1v44h-1v-21h-21v-1h21z" style="fill:#3d3e59;fill-rule:nonzero" transform="translate(-411 -252)"/><path d="M570 708h63v1h-63z" style="fill:#9175e4;fill-rule:nonzero" transform="translate(-411 -252)"/><path d="M753 561h1v22h21v1h-21v19h-1z" style="fill:#251f67;fill-rule:nonzero" transform="translate(-411 -252)"/><path d="M797 430h1v63h-1z" style="fill:#8469de;fill-rule:nonzero" transform="translate(-411 -252)"/><path d="M599 923h56v1h-56z" style="fill:#36365c;fill-rule:nonzero" transform="translate(-411 -252)"/><path d="M569 618h19v1h-11v2h-1v1h-3v-1h-1v1h-1v-3h-1v21h-1z" style="fill:#e1caff;fill-rule:nonzero" transform="translate(-411 -252)"/><path d="M434 391h1v56h-1z" style="fill:#a58bee;fill-rule:nonzero" transform="translate(-411 -252)"/><path d="M718 618h17v1h-2v1h-14v20h-1z" style="fill:#fdfefd;fill-rule:nonzero" transform="translate(-411 -252)"/><path d="M655 486h1v1h1v1h2v1h2v1h-7v2h22v1h-23v-2h-1v-1h-1v-2h3v-1h1z" style="fill:#fbfbfb;fill-rule:nonzero" transform="translate(-411 -252)"/><path d="M456 302h1v24h-23v-1h20v-1h2z" style="fill:#fff;fill-rule:nonzero" transform="translate(-411 -252)"/><path d="M569 832h1v46h-1z" style="fill:#d4b5ff;fill-rule:nonzero" transform="translate(-411 -252)"/><path d="M568 832h1v46h-1z" style="fill:#8a6dc6;fill-rule:nonzero" transform="translate(-411 -252)"/><path d="M631 731h46v1h-46z" style="fill:#1f1662;fill-rule:nonzero" transform="translate(-411 -252)"/><path d="M797 302h1v23h22v1h-23z" style="fill:#bdbdcb;fill-rule:nonzero" transform="translate(-411 -252)"/><path d="M728 278h46v1h-46z" style="fill:#7d8198;fill-rule:nonzero" transform="translate(-411 -252)"/><path d="M633 663h1v45h-1z" style="fill:#8368e4;fill-rule:nonzero" transform="translate(-411 -252)"/><path d="M797 538h23v1h-22v22h-1z" style="fill:#8887a0;fill-rule:nonzero" transform="translate(-411 -252)"/><path d="M819 493h1v45h-1z" style="fill:#25274a;fill-rule:nonzero" transform="translate(-411 -252)"/><path d="M797 493h1v45h-1z" style="fill:#241768;fill-rule:nonzero" transform="translate(-411 -252)"/><path d="M434 326h1v45h-1z" style="fill:#35385a;fill-rule:nonzero" transform="translate(-411 -252)"/><path d="M797 326h1v45h-1z" style="fill:#2c196f;fill-rule:nonzero" transform="translate(-411 -252)"/><path d="M819 326h1v45h-1z" style="fill:#2b2e53;fill-rule:nonzero" transform="translate(-411 -252)"/><path d="M775 538h22v1h-21v22h-1z" style="fill:#000029;fill-rule:nonzero" transform="translate(-411 -252)"/><path d="M654 516h22v2h-22z" style="fill:#e5cfff;fill-rule:nonzero" transform="translate(-411 -252)"/><path d="M655 902h22v1h-21v21h-1z" style="fill:#cecfd9;fill-rule:nonzero" transform="translate(-411 -252)"/><path d="M411 427h1v43h-1z" style="fill:#9797ad;fill-rule:nonzero" transform="translate(-411 -252)"/><path d="M698 640h20v1h-19v22h-1z" style="fill:#eaeaf0;fill-rule:nonzero" transform="translate(-411 -252)"/><path d="M633 539h21v1h-20v21h-1z" style="fill:#ebd5ff;fill-rule:nonzero" transform="translate(-411 -252)"/><path d="M676 349h1v42h-1z" style="fill:#a989f1;fill-rule:nonzero" transform="translate(-411 -252)"/><path d="M713 561h20v1h-19v21h-1z" style="fill:#9a7af1;fill-rule:nonzero" transform="translate(-411 -252)"/><path d="M755 561h20v22h-1v-21h-19z" style="fill:#252d45;fill-rule:nonzero" transform="translate(-411 -252)"/><path d="M677 494h21v1h-20v20h-1z" style="fill:#e5cdff;fill-rule:nonzero" transform="translate(-411 -252)"/><path d="M589 584h21v1h-20v18h-1z" style="fill:#f1dbff;fill-rule:nonzero" transform="translate(-411 -252)"/><path d="M734 601h1v1h18v1h-18v15h-1z" style="fill:#05061c;fill-rule:nonzero" transform="translate(-411 -252)"/><path d="M732 584h1v17h1v1h-17v-1h15z" style="fill:#745ad8;fill-rule:nonzero" transform="translate(-411 -252)"/><path d="M588 584h1v34h-1z" style="fill:#4d3d8a;fill-rule:nonzero" transform="translate(-411 -252)"/><path d="M504 413h1v34h-1z" style="fill:#a88af8;fill-rule:nonzero" transform="translate(-411 -252)"/><path d="M633 810h22v10h-1v-9h-21z" style="fill:#ceadff;fill-rule:nonzero" transform="translate(-411 -252)"/><path d="M526 279h1v23h-8v-1h7z" style="fill:#352c67;fill-rule:nonzero" transform="translate(-411 -252)"/><path d="M547 391h1v22h-2v-1h-3v-1h4z" style="fill:#765fda;fill-rule:nonzero" transform="translate(-411 -252)"/><path d="M569 878h1v24h-1z" style="fill:#7b63e7;fill-rule:nonzero" transform="translate(-411 -252)"/><path d="M568 878h1v24h-1z" style="fill:#443496;fill-rule:nonzero" transform="translate(-411 -252)"/><path d="M655 878h1v24h-1z" style="fill:#040346;fill-rule:nonzero" transform="translate(-411 -252)"/><path d="M457 326h24v1h-24z" style="fill:#c2aaed;fill-rule:nonzero" transform="translate(-411 -252)"/><path d="M457 302h1v24h-1z" style="fill:#515573;fill-rule:nonzero" transform="translate(-411 -252)"/><path d="M481 302h1v24h-1z" style="fill:#b4a7e0;fill-rule:nonzero" transform="translate(-411 -252)"/><path d="M773 302h1v24h-1z" style="fill:#7458d9;fill-rule:nonzero" transform="translate(-411 -252)"/><path d="M676 493h1v23h-1z" style="fill:#8f7cc3;fill-rule:nonzero" transform="translate(-411 -252)"/><path d="M676 470h1v23h-1z" style="fill:#404260;fill-rule:nonzero" transform="translate(-411 -252)"/><path d="M434 470h1v23h-1z" style="fill:#2e2f4f;fill-rule:nonzero" transform="translate(-411 -252)"/><path d="M526 470h1v23h-1z" style="fill:#383950;fill-rule:nonzero" transform="translate(-411 -252)"/><path d="M697 470h1v23h-1z" style="fill:#372b68;fill-rule:nonzero" transform="translate(-411 -252)"/><path d="M774 326h1v23h-1z" style="fill:#a080f8;fill-rule:nonzero" transform="translate(-411 -252)"/><path d="M458 327h23v1h-23z" style="fill:#e2cbff;fill-rule:nonzero" transform="translate(-411 -252)"/><path d="M435 326h22v2h-1v-1h-21z" style="fill:#020324;fill-rule:nonzero" transform="translate(-411 -252)"/><path d="M774 325h23v1h-23z" style="fill:#0a0244;fill-rule:nonzero" transform="translate(-411 -252)"/><path d="M458 325h23v1h-23z" style="fill:#14093e;fill-rule:nonzero" transform="translate(-411 -252)"/><path d="M774 302h1v23h-1z" style="fill:#00002c;fill-rule:nonzero" transform="translate(-411 -252)"/><path d="M774 301h23v1h-23z" style="fill:#9699aa;fill-rule:nonzero" transform="translate(-411 -252)"/><path d="M458 301h23v1h-23z" style="fill:#9496a8;fill-rule:nonzero" transform="translate(-411 -252)"/><path d="M727 279h1v23h-1z" style="fill:#9e82e3;fill-rule:nonzero" transform="translate(-411 -252)"/><path d="M773 279h1v23h-1z" style="fill:#464e6e;fill-rule:nonzero" transform="translate(-411 -252)"/><path d="M655 809h22v1h-22z" style="fill:#262c4f;fill-rule:nonzero" transform="translate(-411 -252)"/><path d="M633 809h22v1h-22z" style="fill:#866bc5;fill-rule:nonzero" transform="translate(-411 -252)"/><path d="M568 787h1v22h-1z" style="fill:#444663;fill-rule:nonzero" transform="translate(-411 -252)"/><path d="M655 787h1v22h-1z" style="fill:#9c9daf;fill-rule:nonzero" transform="translate(-411 -252)"/><path d="M655 731h22v1h-22z" style="fill:#7f7f99;fill-rule:nonzero" transform="translate(-411 -252)"/><path d="M568 709h1v22h-1z" style="fill:#473899;fill-rule:nonzero" transform="translate(-411 -252)"/><path d="M655 662h22v1h-22z" style="fill:#463496;fill-rule:nonzero" transform="translate(-411 -252)"/><path d="M633 662h22v1h-22z" style="fill:#aa88f8;fill-rule:nonzero" transform="translate(-411 -252)"/><path d="M697 618h1v22h-1z" style="fill:#3b3186;fill-rule:nonzero" transform="translate(-411 -252)"/><path d="M696 618h1v22h-1z" style="fill:#7961e2;fill-rule:nonzero" transform="translate(-411 -252)"/><path d="M718 618h1v22h-1z" style="fill:#e1e2e7;fill-rule:nonzero" transform="translate(-411 -252)"/><path d="M610 562h22v1h-22z" style="fill:#e9d5ff;fill-rule:nonzero" transform="translate(-411 -252)"/><path d="M775 561h22v1h-22z" style="fill:#9797a8;fill-rule:nonzero" transform="translate(-411 -252)"/><path d="M610 561h22v1h-22z" style="fill:#8874b5;fill-rule:nonzero" transform="translate(-411 -252)"/><path d="M797 539h1v22h-1z" style="fill:#afafbb;fill-rule:nonzero" transform="translate(-411 -252)"/><path d="M774 539h1v22h-1z" style="fill:#634dc2;fill-rule:nonzero" transform="translate(-411 -252)"/><path d="M733 539h1v22h-1z" style="fill:#936ef1;fill-rule:nonzero" transform="translate(-411 -252)"/><path d="M632 539h1v22h-1z" style="fill:#7967ac;fill-rule:nonzero" transform="translate(-411 -252)"/><path d="M775 538h22v1h-22z" style="fill:#291e71;fill-rule:nonzero" transform="translate(-411 -252)"/><path d="M632 516h1v22h-1z" style="fill:#4d506c;fill-rule:nonzero" transform="translate(-411 -252)"/><path d="M654 516h22v1h-22z" style="fill:#dbc7fb;fill-rule:nonzero" transform="translate(-411 -252)"/><path d="M654 515h22v1h-22z" style="fill:#322556;fill-rule:nonzero" transform="translate(-411 -252)"/><path d="M632 515h22v1h-22z" style="fill:#b2b3c1;fill-rule:nonzero" transform="translate(-411 -252)"/><path d="M820 493h22v1h-22z" style="fill:#d2d3dc;fill-rule:nonzero" transform="translate(-411 -252)"/><path d="M654 493h22v1h-22z" style="fill:#060620;fill-rule:nonzero" transform="translate(-411 -252)"/><path d="M820 492h22v1h-22z" style="fill:#070627;fill-rule:nonzero" transform="translate(-411 -252)"/><path d="M654 492h22v1h-22z" style="fill:#c9cbd6;fill-rule:nonzero" transform="translate(-411 -252)"/><path d="M412 469h22v1h-22z" style="fill:#30304f;fill-rule:nonzero" transform="translate(-411 -252)"/><path d="M526 391h1v22h-1z" style="fill:#9e83f2;fill-rule:nonzero" transform="translate(-411 -252)"/><path d="M697 391h1v22h-1z" style="fill:#3f3276;fill-rule:nonzero" transform="translate(-411 -252)"/><path d="M676 391h1v22h-1z" style="fill:#3d4058;fill-rule:nonzero" transform="translate(-411 -252)"/><path d="M548 391h1v22h-1z" style="fill:#2b2073;fill-rule:nonzero" transform="translate(-411 -252)"/><path d="M412 371h22v1h-22z" style="fill:#16193d;fill-rule:nonzero" transform="translate(-411 -252)"/><path d="M570 349h1v22h-1z" style="fill:#7f65d9;fill-rule:nonzero" transform="translate(-411 -252)"/><path d="M434 325h22v1h-22z" style="fill:#c4c6d3;fill-rule:nonzero" transform="translate(-411 -252)"/><path d="M728 279h1v22h-1z" style="fill:#07022f;fill-rule:nonzero" transform="translate(-411 -252)"/><path d="M727 256h1v22h-1z" style="fill:#0c0c2b;fill-rule:nonzero" transform="translate(-411 -252)"/><path d="M526 256h1v22h-1z" style="fill:#9a9bad;fill-rule:nonzero" transform="translate(-411 -252)"/><path d="M728 256h1v22h-1z" style="fill:#cacad7;fill-rule:nonzero" transform="translate(-411 -252)"/><path d="M655 903h1v21h-1z" style="fill:#cfd3de;fill-rule:nonzero" transform="translate(-411 -252)"/><path d="M547 902h21v1h-21z" style="fill:#cdcfda;fill-rule:nonzero" transform="translate(-411 -252)"/><path d="M547 809h21v1h-21z" style="fill:#313459;fill-rule:nonzero" transform="translate(-411 -252)"/><path d="M547 731h21v1h-21z" style="fill:#83829c;fill-rule:nonzero" transform="translate(-411 -252)"/><path d="M676 640h1v21h-1z" style="fill:#604fbd;fill-rule:nonzero" transform="translate(-411 -252)"/><path d="M547 617h21v1h-21z" style="fill:#9191a8;fill-rule:nonzero" transform="translate(-411 -252)"/><path d="M754 583h21v1h-21z" style="fill:#81829a;fill-rule:nonzero" transform="translate(-411 -252)"/><path d="M589 583h21v1h-21z" style="fill:#7261a3;fill-rule:nonzero" transform="translate(-411 -252)"/><path d="M589 561h21v1h-21z" style="fill:#4e4e6a;fill-rule:nonzero" transform="translate(-411 -252)"/><path d="M677 493h21v1h-21z" style="fill:#b7a6de;fill-rule:nonzero" transform="translate(-411 -252)"/><path d="M528 470h21v1h-21z" style="fill:#ecedf0;fill-rule:nonzero" transform="translate(-411 -252)"/><path d="M412 470h21v1h-21z" style="fill:#eaeaf0;fill-rule:nonzero" transform="translate(-411 -252)"/><path d="M676 469h21v1h-21z" style="fill:#b3b5c4;fill-rule:nonzero" transform="translate(-411 -252)"/><path d="M820 371h21v1h-21z" style="fill:#05072b;fill-rule:nonzero" transform="translate(-411 -252)"/><path d="M821 370h21v1h-21z" style="fill:#dedee5;fill-rule:nonzero" transform="translate(-411 -252)"/><path d="M412 370h21v1h-21z" style="fill:#e6e6eb;fill-rule:nonzero" transform="translate(-411 -252)"/><path d="M752 301h21v1h-21z" style="fill:#1b0d59;fill-rule:nonzero" transform="translate(-411 -252)"/><path d="M481 279h1v21h-1z" style="fill:#0f1130;fill-rule:nonzero" transform="translate(-411 -252)"/><path d="M548 901h20v1h-20z" style="fill:#002;fill-rule:nonzero" transform="translate(-411 -252)"/><path d="M655 733h1v20h-1z" style="fill:#d4d8e1;fill-rule:nonzero" transform="translate(-411 -252)"/><path d="M676 602h20v1h-20z" style="fill:#a082f1;fill-rule:nonzero" transform="translate(-411 -252)"/><path d="M753 583h1v20h-1z" style="fill:#474a5e;fill-rule:nonzero" transform="translate(-411 -252)"/><path d="M698 469h20v1h-20z" style="fill:#342a62;fill-rule:nonzero" transform="translate(-411 -252)"/><path d="M528 469h20v1h-20z" style="fill:#35354e;fill-rule:nonzero" transform="translate(-411 -252)"/><path d="M677 412h20v1h-20z" style="fill:#0a0d2f;fill-rule:nonzero" transform="translate(-411 -252)"/><path d="M677 391h20v1h-20z" style="fill:#00002c;fill-rule:nonzero" transform="translate(-411 -252)"/><path d="M548 371h1v20h-1z" style="fill:#8d70e6;fill-rule:nonzero" transform="translate(-411 -252)"/><path d="M570 371h1v20h-1z" style="fill:#0b053e;fill-rule:nonzero" transform="translate(-411 -252)"/><path d="M676 371h1v20h-1z" style="fill:#7a5fb6;fill-rule:nonzero" transform="translate(-411 -252)"/><path d="M569 617h19v1h-19z" style="fill:#2a1f62;fill-rule:nonzero" transform="translate(-411 -252)"/><path d="M734 583h19v1h-19z" style="fill:#140d56;fill-rule:nonzero" transform="translate(-411 -252)"/><path d="M755 561h19v1h-19z" style="fill:#140c52;fill-rule:nonzero" transform="translate(-411 -252)"/><path d="M677 492h19v1h-19z" style="fill:#010026;fill-rule:nonzero" transform="translate(-411 -252)"/><path d="M549 412h19v1h-19z" style="fill:#0c1034;fill-rule:nonzero" transform="translate(-411 -252)"/><path d="M549 372h1v19h-1z" style="fill:#5c47c5;fill-rule:nonzero" transform="translate(-411 -252)"/><path d="M799 326h19v1h-19z" style="fill:#010225;fill-rule:nonzero" transform="translate(-411 -252)"/><path d="M733 583h1v18h-1z" style="fill:#382d8e;fill-rule:nonzero" transform="translate(-411 -252)"/><path d="M696 583h18v1h-18z" style="fill:#8e6ce9;fill-rule:nonzero" transform="translate(-411 -252)"/><path d="M798 371h18v1h-18z" style="fill:#7c5ed4;fill-rule:nonzero" transform="translate(-411 -252)"/><path d="M698 617h17v1h-17z" style="fill:#604cb8;fill-rule:nonzero" transform="translate(-411 -252)"/><path d="M736 602h17v1h-17z" style="fill:#302d49;fill-rule:nonzero" transform="translate(-411 -252)"/><path d="M717 602h17v1h-17z" style="fill:#3b308a;fill-rule:nonzero" transform="translate(-411 -252)"/><path d="M637 538h17v1h-17z" style="fill:#7163a4;fill-rule:nonzero" transform="translate(-411 -252)"/><path d="M572 618h16v1h-16z" style="fill:#e9d5ff;fill-rule:nonzero" transform="translate(-411 -252)"/><path d="M720 618h15v1h-15z" style="fill:#ebebef;fill-rule:nonzero" transform="translate(-411 -252)"/><path d="M735 603h1v15h-1z" style="fill:#c1c0c9;fill-rule:nonzero" transform="translate(-411 -252)"/><path d="M589 603h1v15h-1z" style="fill:#d6b8ff;fill-rule:nonzero" transform="translate(-411 -252)"/><path d="M717 603h1v15h-1z" style="fill:#26196a;fill-rule:nonzero" transform="translate(-411 -252)"/><path d="M819 416h1v14h-1z" style="fill:#755cd5;fill-rule:nonzero" transform="translate(-411 -252)"/><path d="M655 810h1v13h-1z" style="fill:#222069;fill-rule:nonzero" transform="translate(-411 -252)"/><path d="M526 413h1v13h-1z" style="fill:#4b3da5;fill-rule:nonzero" transform="translate(-411 -252)"/><path d="M526 297h1v5h-8v-1h7z" style="fill:#3f316b;fill-rule:nonzero" transform="translate(-411 -252)"/><path d="M697 482h1v11h-1z" style="fill:#4a3d7b;fill-rule:nonzero" transform="translate(-411 -252)"/><path d="M457 302h1v11h-1z" style="fill:#626782;fill-rule:nonzero" transform="translate(-411 -252)"/><path d="M481 278h11v1h-11z" style="fill:#8b90a5;fill-rule:nonzero" transform="translate(-411 -252)"/><path d="M568 902h1v10h-1z" style="fill:#47496b;fill-rule:nonzero" transform="translate(-411 -252)"/><path d="M546 809h1v10h-1z" style="fill:#878ba1;fill-rule:nonzero" transform="translate(-411 -252)"/><path d="M697 640h1v10h-1z" style="fill:#3b3a4c;fill-rule:nonzero" transform="translate(-411 -252)"/><path d="M708 640h10v1h-10z" style="fill:#dcdfe4;fill-rule:nonzero" transform="translate(-411 -252)"/><path d="M717 630h1v10h-1z" style="fill:#1c1d2f;fill-rule:nonzero" transform="translate(-411 -252)"/><path d="M716 607h1v10h-1z" style="fill:#7e5fe5;fill-rule:nonzero" transform="translate(-411 -252)"/><path d="M753 583h1v10h-1z" style="fill:#595d72;fill-rule:nonzero" transform="translate(-411 -252)"/><path d="M727 279h1v10h-1z" style="fill:#ac96e8;fill-rule:nonzero" transform="translate(-411 -252)"/><path d="M655 902h9v1h-9z" style="fill:#c4c6d2;fill-rule:nonzero" transform="translate(-411 -252)"/><path d="M568 731h1v9h-1z" style="fill:#4b4c69;fill-rule:nonzero" transform="translate(-411 -252)"/><path d="M699 640h9v1h-9z" style="fill:#edf1f7;fill-rule:nonzero" transform="translate(-411 -252)"/><path d="M734 601h1v1h1v1h-1v6h-1z" style="fill:#15142c;fill-rule:nonzero" transform="translate(-411 -252)"/><path d="M588 584h1v9h-1z" style="fill:#44387d;fill-rule:nonzero" transform="translate(-411 -252)"/><path d="M654 516h9v1h-9z" style="fill:#d1b9f2;fill-rule:nonzero" transform="translate(-411 -252)"/><path d="M718 632h1v8h-1z" style="fill:#d1d3d8;fill-rule:nonzero" transform="translate(-411 -252)"/><path d="M654 515h8v1h-8z" style="fill:#231647;fill-rule:nonzero" transform="translate(-411 -252)"/><path d="M834 492h8v1h-8z" style="fill:#111236;fill-rule:nonzero" transform="translate(-411 -252)"/><path d="M596 391h8v1h-8z" style="fill:#d4d3de;fill-rule:nonzero" transform="translate(-411 -252)"/><path d="M481 279h1v8h-1z" style="fill:#1f2141;fill-rule:nonzero" transform="translate(-411 -252)"/><path d="M568 611h1v7h-1z" style="fill:#4b4c67;fill-rule:nonzero" transform="translate(-411 -252)"/><path d="M733 594h1v7h-1z" style="fill:#4c3ba4;fill-rule:nonzero" transform="translate(-411 -252)"/><path d="M797 326h1v7h-1z" style="fill:#2d1e6e;fill-rule:nonzero" transform="translate(-411 -252)"/><path d="M434 326h1v7h-1z" style="fill:#3e3f62;fill-rule:nonzero" transform="translate(-411 -252)"/><path d="M435 326h7v1h-7z" style="fill:#0a0c32;fill-rule:nonzero" transform="translate(-411 -252)"/><path d="M728 279h1v7h-1z" style="fill:#131040;fill-rule:nonzero" transform="translate(-411 -252)"/><path d="M721 278h7v1h-7z" style="fill:#4e3e83;fill-rule:nonzero" transform="translate(-411 -252)"/><path d="M655 747h1v6h-1z" style="fill:#dfe2e8;fill-rule:nonzero" transform="translate(-411 -252)"/><path d="M546 618h1v6h-1z" style="fill:#83859a;fill-rule:nonzero" transform="translate(-411 -252)"/><path d="M735 603h1v6h-1z" style="fill:#d1d1da;fill-rule:nonzero" transform="translate(-411 -252)"/><path d="M583 583h6v1h-6z" style="fill:#64647c;fill-rule:nonzero" transform="translate(-411 -252)"/><path d="M568 583h6v1h-6z" style="fill:#6d7089;fill-rule:nonzero" transform="translate(-411 -252)"/><path d="M698 469h6v1h-6z" style="fill:#291a56;fill-rule:nonzero" transform="translate(-411 -252)"/><path d="M568 809h1v5h-1z" style="fill:#9583c4;fill-rule:nonzero" transform="translate(-411 -252)"/><path d="M568 704h1v5h-1z" style="fill:#9274c8;fill-rule:nonzero" transform="translate(-411 -252)"/><path d="M588 578h1v5h-1z" style="fill:#7e8098;fill-rule:nonzero" transform="translate(-411 -252)"/><path d="M434 488h1v5h-1z" style="fill:#373752;fill-rule:nonzero" transform="translate(-411 -252)"/><path d="M527 412h5v1h-5z" style="fill:#6b54c5;fill-rule:nonzero" transform="translate(-411 -252)"/><path d="M526 297h1v5h-1z" style="fill:#413a77;fill-rule:nonzero" transform="translate(-411 -252)"/><path d="M769 278h5v1h-5z" style="fill:#808399;fill-rule:nonzero" transform="translate(-411 -252)"/><path d="M728 278h5v1h-5z" style="fill:#8d8fa6;fill-rule:nonzero" transform="translate(-411 -252)"/><path d="M727 273h1v5h-1z" style="fill:#18193b;fill-rule:nonzero" transform="translate(-411 -252)"/><path d="M655 902h4v1h-4z" style="fill:#bbbecb;fill-rule:nonzero" transform="translate(-411 -252)"/><path d="M677 898h1v4h-1z" style="fill:#c7c9d4;fill-rule:nonzero" transform="translate(-411 -252)"/><path d="M655 809h4v1h-4z" style="fill:#2f3158;fill-rule:nonzero" transform="translate(-411 -252)"/><path d="M697 618h1v4h-1z" style="fill:#2e2572;fill-rule:nonzero" transform="translate(-411 -252)"/><path d="M717 614h1v4h-1z" style="fill:#2e2375;fill-rule:nonzero" transform="translate(-411 -252)"/><path d="M717 603h1v4h-1z" style="fill:#19104f;fill-rule:nonzero" transform="translate(-411 -252)"/><path d="M588 561h1v4h-1z" style="fill:#71748c;fill-rule:nonzero" transform="translate(-411 -252)"/><path d="M633 538h4v1h-4z" style="fill:#5f5491;fill-rule:nonzero" transform="translate(-411 -252)"/><path d="M632 515h4v1h-4z" style="fill:#bbbccc;fill-rule:nonzero" transform="translate(-411 -252)"/><path d="M697 409h1v4h-1z" style="fill:#453a76;fill-rule:nonzero" transform="translate(-411 -252)"/><path d="M676 391h1v4h-1z" style="fill:#494964;fill-rule:nonzero" transform="translate(-411 -252)"/><path d="M820 371h4v1h-4z" style="fill:#0a0c32;fill-rule:nonzero" transform="translate(-411 -252)"/><path d="M527 279h2v2h-2z" style="fill:#ebd7ff;fill-rule:nonzero" transform="translate(-411 -252)"/><path d="M527 278h4v1h-4z" style="fill:#514079;fill-rule:nonzero" transform="translate(-411 -252)"/><path d="M481 278h4v1h-4z" style="fill:#989cad;fill-rule:nonzero" transform="translate(-411 -252)"/><path d="M674 809h3v1h-3z" style="fill:#323558;fill-rule:nonzero" transform="translate(-411 -252)"/><path d="M568 753h3v1h-3z" style="fill:#7b7a93;fill-rule:nonzero" transform="translate(-411 -252)"/><path d="M694 662h3v1h-3z" style="fill:#323449;fill-rule:nonzero" transform="translate(-411 -252)"/><path d="M717 637h1v3h-1z" style="fill:#0e0f21;fill-rule:nonzero" transform="translate(-411 -252)"/><path d="M568 583h3v1h-3z" style="fill:#6f7285;fill-rule:nonzero" transform="translate(-411 -252)"/><path d="M797 538h3v1h-3z" style="fill:#8b899d;fill-rule:nonzero" transform="translate(-411 -252)"/><path d="M673 492h3v1h-3z" style="fill:#d6d6e0;fill-rule:nonzero" transform="translate(-411 -252)"/><path d="M842 490h1v3h-1z" style="fill:#9494a5;fill-rule:nonzero" transform="translate(-411 -252)"/><path d="M526 490h1v3h-1z" style="fill:#44465d;fill-rule:nonzero" transform="translate(-411 -252)"/><path d="M694 412h3v1h-3z" style="fill:#1c1b37;fill-rule:nonzero" transform="translate(-411 -252)"/><path d="M548 410h1v3h-1z" style="fill:#35277c;fill-rule:nonzero" transform="translate(-411 -252)"/><path d="M547 409h1v3h-1z" style="fill:#7e63ee;fill-rule:nonzero" transform="translate(-411 -252)"/><path d="M797 326h1v3h-1z" style="fill:#352771;fill-rule:nonzero" transform="translate(-411 -252)"/><path d="M434 326h1v3h-1z" style="fill:#4a4b63;fill-rule:nonzero" transform="translate(-411 -252)"/><path d="M797 323h1v3h-1z" style="fill:#b1b4bf;fill-rule:nonzero" transform="translate(-411 -252)"/><path d="M773 279h1v3h-1z" style="fill:#575c78;fill-rule:nonzero" transform="translate(-411 -252)"/><path d="M654 900h1v2h-1z" style="fill:#755fc6;fill-rule:nonzero" transform="translate(-411 -252)"/><path d="M655 810h1v2h-1z" style="fill:#2c266c;fill-rule:nonzero" transform="translate(-411 -252)"/><path d="M568 809h1v2h-1z" style="fill:#9b87bd;fill-rule:nonzero" transform="translate(-411 -252)"/><path d="M655 809h2v1h-2z" style="fill:#393e54;fill-rule:nonzero" transform="translate(-411 -252)"/><path d="M653 786h2v1h-2z" style="fill:#898ba4;fill-rule:nonzero" transform="translate(-411 -252)"/><path d="M675 662h2v1h-2z" style="fill:#4c439d;fill-rule:nonzero" transform="translate(-411 -252)"/><path d="M733 599h1v2h-1z" style="fill:#5547b2;fill-rule:nonzero" transform="translate(-411 -252)"/><path d="M753 583h1v2h-1z" style="fill:#55586d;fill-rule:nonzero" transform="translate(-411 -252)"/><path d="M754 583h2v1h-2z" style="fill:#7d7e90;fill-rule:nonzero" transform="translate(-411 -252)"/><path d="M774 581h1v2h-1z" style="fill:#1e2033;fill-rule:nonzero" transform="translate(-411 -252)"/><path d="M774 561h1v2h-1z" style="fill:#192241;fill-rule:nonzero" transform="translate(-411 -252)"/><path d="M588 561h1v2h-1z" style="fill:#706d86;fill-rule:nonzero" transform="translate(-411 -252)"/><path d="M632 515h2v1h-2z" style="fill:#bbc0ca;fill-rule:nonzero" transform="translate(-411 -252)"/><path d="M819 493h1v2h-1z" style="fill:#28274e;fill-rule:nonzero" transform="translate(-411 -252)"/><path d="M797 491h1v2h-1z" style="fill:#9273e4;fill-rule:nonzero" transform="translate(-411 -252)"/><path d="M699 470h1v2h-1z" style="fill:#e7dafc;fill-rule:nonzero" transform="translate(-411 -252)"/><path d="M676 470h1v2h-1z" style="fill:#33374f;fill-rule:nonzero" transform="translate(-411 -252)"/><path d="M526 470h1v2h-1z" style="fill:#3f4157;fill-rule:nonzero" transform="translate(-411 -252)"/><path d="M434 447h1v2h-1z" style="fill:#443ca3;fill-rule:nonzero" transform="translate(-411 -252)"/><path d="M548 413h1v2h-1z" style="fill:#585f76;fill-rule:nonzero" transform="translate(-411 -252)"/><path d="M527 412h2v1h-2z" style="fill:#5e4bb6;fill-rule:nonzero" transform="translate(-411 -252)"/><path d="M570 391h1v2h-1z" style="fill:#c9c5d2;fill-rule:nonzero" transform="translate(-411 -252)"/><path d="M411 371h1v2h-1z" style="fill:#848599;fill-rule:nonzero" transform="translate(-411 -252)"/><path d="M434 371h2v1h-2z" style="fill:#b59adf;fill-rule:nonzero" transform="translate(-411 -252)"/><path d="M481 301h2v1h-2z" style="fill:#3f3068;fill-rule:nonzero" transform="translate(-411 -252)"/><path d="M726 279h1v2h-1z" style="fill:#e2cbff;fill-rule:nonzero" transform="translate(-411 -252)"/><path d="M655 923h1v1h-1z" style="fill:#e3e3ed;fill-rule:nonzero" transform="translate(-411 -252)"/><path d="M569 923h1v1h-1z" style="fill:#302c40;fill-rule:nonzero" transform="translate(-411 -252)"/><path d="M568 923h1v1h-1z" style="fill:#6f737d;fill-rule:nonzero" transform="translate(-411 -252)"/><path d="M568 922h1v1h-1z" style="fill:#242840;fill-rule:nonzero" transform="translate(-411 -252)"/><path d="M655 903h1v1h-1z" style="fill:#d8dae5;fill-rule:nonzero" transform="translate(-411 -252)"/><path d="M655 902h1v1h-1z" style="fill:#a4a4bd;fill-rule:nonzero" transform="translate(-411 -252)"/><path d="M569 902h1v1h-1z" style="fill:#000030;fill-rule:nonzero" transform="translate(-411 -252)"/><path d="M567 902h1v1h-1z" style="fill:#c3c4d5;fill-rule:nonzero" transform="translate(-411 -252)"/><path d="M546 902h1v1h-1z" style="fill:#ededee;fill-rule:nonzero" transform="translate(-411 -252)"/><path d="M655 901h1v1h-1z" style="fill:#131045;fill-rule:nonzero" transform="translate(-411 -252)"/><path d="M568 901h1v1h-1z" style="fill:#564595;fill-rule:nonzero" transform="translate(-411 -252)"/><path d="M569 900h1v1h-1z" style="fill:#8975f2;fill-rule:nonzero" transform="translate(-411 -252)"/><path d="M654 878h1v1h-1z" style="fill:#7c61e2;fill-rule:nonzero" transform="translate(-411 -252)"/><path d="M569 878h1v1h-1z" style="fill:#8e71f2;fill-rule:nonzero" transform="translate(-411 -252)"/><path d="M568 878h1v1h-1z" style="fill:#5e46a6;fill-rule:nonzero" transform="translate(-411 -252)"/><path d="M655 810h1v1h-1z" style="fill:#0d0d4b;fill-rule:nonzero" transform="translate(-411 -252)"/><path d="M654 810h1v1h-1z" style="fill:#edd1ff;fill-rule:nonzero" transform="translate(-411 -252)"/><path d="M569 810h1v1h-1z" style="fill:#fff;fill-rule:nonzero" transform="translate(-411 -252)"/><path d="M677 809h1v1h-1z" style="fill:#dcdae3;fill-rule:nonzero" transform="translate(-411 -252)"/><path d="M676 809h1v1h-1z" style="fill:#404b68;fill-rule:nonzero" transform="translate(-411 -252)"/><path d="M655 809h1v1h-1z" style="fill:#514d7a;fill-rule:nonzero" transform="translate(-411 -252)"/><path d="M568 809h1v1h-1z" style="fill:#787194;fill-rule:nonzero" transform="translate(-411 -252)"/><path d="M567 809h1v1h-1z" style="fill:#49455e;fill-rule:nonzero" transform="translate(-411 -252)"/><path d="M546 809h1v1h-1z" style="fill:#abb0b7;fill-rule:nonzero" transform="translate(-411 -252)"/><path d="M655 787h1v1h-1z" style="fill:#9493a7;fill-rule:nonzero" transform="translate(-411 -252)"/><path d="M568 787h1v1h-1z" style="fill:#3f3f5a;fill-rule:nonzero" transform="translate(-411 -252)"/><path d="M655 786h1v1h-1z" style="fill:#dcd8e2;fill-rule:nonzero" transform="translate(-411 -252)"/><path d="M568 786h1v1h-1z" style="fill:#b7b5c1;fill-rule:nonzero" transform="translate(-411 -252)"/><path d="M568 753h1v1h-1z" style="fill:#a5a5af;fill-rule:nonzero" transform="translate(-411 -252)"/><path d="M655 732h1v1h-1z" style="fill:#eaf0f6;fill-rule:nonzero" transform="translate(-411 -252)"/><path d="M677 731h1v1h-1z" style="fill:#f1f1f2;fill-rule:nonzero" transform="translate(-411 -252)"/><path d="M676 731h1v1h-1z" style="fill:#9892a1;fill-rule:nonzero" transform="translate(-411 -252)"/><path d="M568 731h1v1h-1z" style="fill:#50437c;fill-rule:nonzero" transform="translate(-411 -252)"/><path d="M547 731h1v1h-1z" style="fill:#71718d;fill-rule:nonzero" transform="translate(-411 -252)"/><path d="M546 731h1v1h-1z" style="fill:#bcbcc5;fill-rule:nonzero" transform="translate(-411 -252)"/><path d="M569 730h1v1h-1z" style="fill:#8f78f5;fill-rule:nonzero" transform="translate(-411 -252)"/><path d="M546 730h1v1h-1z" style="fill:#696d81;fill-rule:nonzero" transform="translate(-411 -252)"/><path d="M569 708h1v1h-1z" style="fill:#ae8fff;fill-rule:nonzero" transform="translate(-411 -252)"/><path d="M568 708h1v1h-1z" style="fill:#6f5bb1;fill-rule:nonzero" transform="translate(-411 -252)"/><path d="M677 663h1v1h-1z" style="fill:#ccd1db;fill-rule:nonzero" transform="translate(-411 -252)"/><path d="M697 662h1v1h-1z" style="fill:#787785;fill-rule:nonzero" transform="translate(-411 -252)"/><path d="M696 662h1v1h-1z" style="fill:#242033;fill-rule:nonzero" transform="translate(-411 -252)"/><path d="M677 662h1v1h-1z" style="fill:#3f3f5d;fill-rule:nonzero" transform="translate(-411 -252)"/><path d="M655 662h1v1h-1z" style="fill:#5d4bb5;fill-rule:nonzero" transform="translate(-411 -252)"/><path d="M697 661h1v1h-1z" style="fill:#383847;fill-rule:nonzero" transform="translate(-411 -252)"/><path d="M675 661h1v1h-1z" style="fill:#876ef2;fill-rule:nonzero" transform="translate(-411 -252)"/><path d="M698 640h1v1h-1z" style="fill:#ced2d6;fill-rule:nonzero" transform="translate(-411 -252)"/><path d="M718 618h1v1h-1z" style="fill:#d9dbd8;fill-rule:nonzero" transform="translate(-411 -252)"/><path d="M734 617h1v1h-1z" style="fill:#15162b;fill-rule:nonzero" transform="translate(-411 -252)"/><path d="M717 617h1v1h-1z" style="fill:#3b3472;fill-rule:nonzero" transform="translate(-411 -252)"/><path d="M589 617h1v1h-1z" style="fill:#caaaff;fill-rule:nonzero" transform="translate(-411 -252)"/><path d="M588 617h1v1h-1z" style="fill:#735ab2;fill-rule:nonzero" transform="translate(-411 -252)"/><path d="M569 617h1v1h-1z" style="fill:#251751;fill-rule:nonzero" transform="translate(-411 -252)"/><path d="M568 617h1v1h-1z" style="fill:#5a5571;fill-rule:nonzero" transform="translate(-411 -252)"/><path d="M546 617h1v1h-1z" style="fill:#d6d8da;fill-rule:nonzero" transform="translate(-411 -252)"/><path d="M716 616h1v1h-1z" style="fill:#8a6af3;fill-rule:nonzero" transform="translate(-411 -252)"/><path d="M588 616h1v1h-1z" style="fill:#412e83;fill-rule:nonzero" transform="translate(-411 -252)"/><path d="M735 603h1v1h-1z" style="fill:#e4e0e5;fill-rule:nonzero" transform="translate(-411 -252)"/><path d="M717 603h1v1h-1z" style="fill:#09033b;fill-rule:nonzero" transform="translate(-411 -252)"/><path d="M753 602h1v1h-1z" style="fill:#85828f;fill-rule:nonzero" transform="translate(-411 -252)"/><path d="M752 602h1v1h-1z" style="fill:#231e39;fill-rule:nonzero" transform="translate(-411 -252)"/><path d="M732 602h1v1h-1z" style="fill:#4c3a99;fill-rule:nonzero" transform="translate(-411 -252)"/><path d="M717 602h1v1h-1z" style="fill:#433393;fill-rule:nonzero" transform="translate(-411 -252)"/><path d="M589 584h1v1h-1z" style="fill:#fff;fill-rule:nonzero" transform="translate(-411 -252)"/><path d="M568 584h1v1h-1z" style="fill:#38384d;fill-rule:nonzero" transform="translate(-411 -252)"/><path d="M774 583h1v1h-1z" style="fill:#a6a2ac;fill-rule:nonzero" transform="translate(-411 -252)"/><path d="M753 583h1v1h-1z" style="fill:#41426c;fill-rule:nonzero" transform="translate(-411 -252)"/><path d="M733 583h1v1h-1z" style="fill:#4a3ba1;fill-rule:nonzero" transform="translate(-411 -252)"/><path d="M713 583h1v1h-1z" style="fill:#7a5dda;fill-rule:nonzero" transform="translate(-411 -252)"/><path d="M609 583h1v1h-1z" style="fill:#7e69a9;fill-rule:nonzero" transform="translate(-411 -252)"/><path d="M568 583h1v1h-1z" style="fill:#9b9ba7;fill-rule:nonzero" transform="translate(-411 -252)"/><path d="M588 582h1v1h-1z" style="fill:#9493a0;fill-rule:nonzero" transform="translate(-411 -252)"/><path d="M797 561h1v1h-1z" style="fill:#e9e9e9;fill-rule:nonzero" transform="translate(-411 -252)"/><path d="M796 561h1v1h-1z" style="fill:#aba7b0;fill-rule:nonzero" transform="translate(-411 -252)"/><path d="M775 561h1v1h-1z" style="fill:#a2a0b2;fill-rule:nonzero" transform="translate(-411 -252)"/><path d="M774 561h1v1h-1z" style="fill:#3d407a;fill-rule:nonzero" transform="translate(-411 -252)"/><path d="M754 561h1v1h-1z" style="fill:#020036;fill-rule:nonzero" transform="translate(-411 -252)"/><path d="M753 561h1v1h-1z" style="fill:#3b2f86;fill-rule:nonzero" transform="translate(-411 -252)"/><path d="M733 561h1v1h-1z" style="fill:#7f61e0;fill-rule:nonzero" transform="translate(-411 -252)"/><path d="M632 561h1v1h-1z" style="fill:#ab8ae3;fill-rule:nonzero" transform="translate(-411 -252)"/><path d="M631 561h1v1h-1z" style="fill:#7b67a7;fill-rule:nonzero" transform="translate(-411 -252)"/><path d="M610 561h1v1h-1z" style="fill:#8b7eae;fill-rule:nonzero" transform="translate(-411 -252)"/><path d="M609 561h1v1h-1z" style="fill:#5c5570;fill-rule:nonzero" transform="translate(-411 -252)"/><path d="M589 561h1v1h-1z" style="fill:#3d3d54;fill-rule:nonzero" transform="translate(-411 -252)"/><path d="M588 561h1v1h-1z" style="fill:#aaa7b4;fill-rule:nonzero" transform="translate(-411 -252)"/><path d="M754 560h1v1h-1z" style="fill:#6355bc;fill-rule:nonzero" transform="translate(-411 -252)"/><path d="M633 539h1v1h-1z" style="fill:#fffdff;fill-rule:nonzero" transform="translate(-411 -252)"/><path d="M819 538h1v1h-1z" style="fill:#aeaebf;fill-rule:nonzero" transform="translate(-411 -252)"/><path d="M797 538h1v1h-1z" style="fill:#80749f;fill-rule:nonzero" transform="translate(-411 -252)"/><path d="M796 538h1v1h-1z" style="fill:#3a2e7a;fill-rule:nonzero" transform="translate(-411 -252)"/><path d="M775 538h1v1h-1z" style="fill:#311c79;fill-rule:nonzero" transform="translate(-411 -252)"/><path d="M753 538h1v1h-1z" style="fill:#856ce8;fill-rule:nonzero" transform="translate(-411 -252)"/><path d="M632 538h1v1h-1z" style="fill:#6b6a87;fill-rule:nonzero" transform="translate(-411 -252)"/><path d="M610 538h1v1h-1z" style="fill:#757586;fill-rule:nonzero" transform="translate(-411 -252)"/><path d="M796 537h1v1h-1z" style="fill:#896eea;fill-rule:nonzero" transform="translate(-411 -252)"/><path d="M632 537h1v1h-1z" style="fill:#5c6377;fill-rule:nonzero" transform="translate(-411 -252)"/><path d="M654 517h1v1h-1z" style="fill:#d6c8fd;fill-rule:nonzero" transform="translate(-411 -252)"/><path d="M654 516h1v1h-1z" style="fill:#baaedb;fill-rule:nonzero" transform="translate(-411 -252)"/><path d="M653 516h1v1h-1z" style="fill:#100a2b;fill-rule:nonzero" transform="translate(-411 -252)"/><path d="M632 516h1v1h-1z" style="fill:#606274;fill-rule:nonzero" transform="translate(-411 -252)"/><path d="M676 515h1v1h-1z" style="fill:#a48ad7;fill-rule:nonzero" transform="translate(-411 -252)"/><path d="M675 515h1v1h-1z" style="fill:#241b4d;fill-rule:nonzero" transform="translate(-411 -252)"/><path d="M654 515h1v1h-1z" style="fill:#2a2048;fill-rule:nonzero" transform="translate(-411 -252)"/><path d="M632 515h1v1h-1z" style="fill:#d5d7da;fill-rule:nonzero" transform="translate(-411 -252)"/><path d="M697 494h1v1h-1z" style="fill:#d7bfff;fill-rule:nonzero" transform="translate(-411 -252)"/><path d="M677 494h1v1h-1z" style="fill:#fff2ff;fill-rule:nonzero" transform="translate(-411 -252)"/><path d="M842 493h1v1h-1z" style="fill:#f0f3f3;fill-rule:nonzero" transform="translate(-411 -252)"/><path d="M819 493h1v1h-1z" style="fill:#303164;fill-rule:nonzero" transform="translate(-411 -252)"/><path d="M797 493h1v1h-1z" style="fill:#44298c;fill-rule:nonzero" transform="translate(-411 -252)"/><path d="M676 493h1v1h-1z" style="fill:#7971a1;fill-rule:nonzero" transform="translate(-411 -252)"/><path d="M674 493h1v1h-1z" style="fill:#13132b;fill-rule:nonzero" transform="translate(-411 -252)"/><path d="M654 493h1v1h-1z" style="fill:#1b1b3c;fill-rule:nonzero" transform="translate(-411 -252)"/><path d="M526 493h1v1h-1z" style="fill:#e4e4e7;fill-rule:nonzero" transform="translate(-411 -252)"/><path d="M842 492h1v1h-1z" style="fill:#a6a7b4;fill-rule:nonzero" transform="translate(-411 -252)"/><path d="M841 492h1v1h-1z" style="fill:#0e0a24;fill-rule:nonzero" transform="translate(-411 -252)"/><path d="M526 492h1v1h-1z" style="fill:#616175;fill-rule:nonzero" transform="translate(-411 -252)"/><path d="M434 492h1v1h-1z" style="fill:#575969;fill-rule:nonzero" transform="translate(-411 -252)"/><path d="M798 491h1v1h-1z" style="fill:#6b55ce;fill-rule:nonzero" transform="translate(-411 -252)"/><path d="M697 491h1v1h-1z" style="fill:#433469;fill-rule:nonzero" transform="translate(-411 -252)"/><path d="M698 470h1v1h-1z" style="fill:#d5cce7;fill-rule:nonzero" transform="translate(-411 -252)"/><path d="M697 470h1v1h-1z" style="fill:#4b3e65;fill-rule:nonzero" transform="translate(-411 -252)"/><path d="M526 470h1v1h-1z" style="fill:#4a4a66;fill-rule:nonzero" transform="translate(-411 -252)"/><path d="M717 469h1v1h-1z" style="fill:#523c79;fill-rule:nonzero" transform="translate(-411 -252)"/><path d="M716 469h1v1h-1z" style="fill:#281d47;fill-rule:nonzero" transform="translate(-411 -252)"/><path d="M698 469h1v1h-1z" style="fill:#332e50;fill-rule:nonzero" transform="translate(-411 -252)"/><path d="M696 469h1v1h-1z" style="fill:#c3bfcb;fill-rule:nonzero" transform="translate(-411 -252)"/><path d="M676 469h1v1h-1z" style="fill:#cbc8ce;fill-rule:nonzero" transform="translate(-411 -252)"/><path d="M548 469h1v1h-1z" style="fill:#847e8c;fill-rule:nonzero" transform="translate(-411 -252)"/><path d="M547 469h1v1h-1z" style="fill:#2f2a36;fill-rule:nonzero" transform="translate(-411 -252)"/><path d="M527 469h1v1h-1z" style="fill:#58536b;fill-rule:nonzero" transform="translate(-411 -252)"/><path d="M434 469h1v1h-1z" style="fill:#4c4598;fill-rule:nonzero" transform="translate(-411 -252)"/><path d="M412 469h1v1h-1z" style="fill:#36314e;fill-rule:nonzero" transform="translate(-411 -252)"/><path d="M411 469h1v1h-1z" style="fill:#b2b7bf;fill-rule:nonzero" transform="translate(-411 -252)"/><path d="M717 468h1v1h-1z" style="fill:#12063a;fill-rule:nonzero" transform="translate(-411 -252)"/><path d="M548 468h1v1h-1z" style="fill:#42445c;fill-rule:nonzero" transform="translate(-411 -252)"/><path d="M525 468h1v1h-1z" style="fill:#967ff6;fill-rule:nonzero" transform="translate(-411 -252)"/><path d="M411 468h1v1h-1z" style="fill:#8a8f9e;fill-rule:nonzero" transform="translate(-411 -252)"/><path d="M695 467h1v1h-1z" style="fill:#dedee1;fill-rule:nonzero" transform="translate(-411 -252)"/><path d="M435 447h1v1h-1z" style="fill:#9570f1;fill-rule:nonzero" transform="translate(-411 -252)"/><path d="M434 447h1v1h-1z" style="fill:#6a59c0;fill-rule:nonzero" transform="translate(-411 -252)"/><path d="M504 446h1v1h-1z" style="fill:#b293ff;fill-rule:nonzero" transform="translate(-411 -252)"/><path d="M435 446h1v1h-1z" style="fill:#dbabff;fill-rule:nonzero" transform="translate(-411 -252)"/><path d="M548 413h1v1h-1z" style="fill:#666c8e;fill-rule:nonzero" transform="translate(-411 -252)"/><path d="M698 412h1v1h-1z" style="fill:#b3a4e6;fill-rule:nonzero" transform="translate(-411 -252)"/><path d="M697 412h1v1h-1z" style="fill:#5c5777;fill-rule:nonzero" transform="translate(-411 -252)"/><path d="M676 412h1v1h-1z" style="fill:#5b5c70;fill-rule:nonzero" transform="translate(-411 -252)"/><path d="M569 412h1v1h-1z" style="fill:#1e1e3d;fill-rule:nonzero" transform="translate(-411 -252)"/><path d="M548 412h1v1h-1z" style="fill:#45427d;fill-rule:nonzero" transform="translate(-411 -252)"/><path d="M697 391h1v1h-1z" style="fill:#45348a;fill-rule:nonzero" transform="translate(-411 -252)"/><path d="M571 391h1v1h-1z" style="fill:#dfe0ee;fill-rule:nonzero" transform="translate(-411 -252)"/><path d="M570 391h1v1h-1z" style="fill:#a8a5b4;fill-rule:nonzero" transform="translate(-411 -252)"/><path d="M676 390h1v1h-1z" style="fill:#735e97;fill-rule:nonzero" transform="translate(-411 -252)"/><path d="M569 390h1v1h-1z" style="fill:#665dbb;fill-rule:nonzero" transform="translate(-411 -252)"/><path d="M435 372h1v1h-1z" style="fill:#fbe8ff;fill-rule:nonzero" transform="translate(-411 -252)"/><path d="M434 372h1v1h-1z" style="fill:#c1aeef;fill-rule:nonzero" transform="translate(-411 -252)"/><path d="M842 371h1v1h-1z" style="fill:#9c98a9;fill-rule:nonzero" transform="translate(-411 -252)"/><path d="M820 371h1v1h-1z" style="fill:#1f1c46;fill-rule:nonzero" transform="translate(-411 -252)"/><path d="M819 371h1v1h-1z" style="fill:#8272c4;fill-rule:nonzero" transform="translate(-411 -252)"/><path d="M818 371h1v1h-1z" style="fill:#9d79e4;fill-rule:nonzero" transform="translate(-411 -252)"/><path d="M798 371h1v1h-1z" style="fill:#624bc8;fill-rule:nonzero" transform="translate(-411 -252)"/><path d="M797 371h1v1h-1z" style="fill:#8971e6;fill-rule:nonzero" transform="translate(-411 -252)"/><path d="M570 371h1v1h-1z" style="fill:#21146f;fill-rule:nonzero" transform="translate(-411 -252)"/><path d="M434 371h1v1h-1z" style="fill:#9689b9;fill-rule:nonzero" transform="translate(-411 -252)"/><path d="M433 371h1v1h-1z" style="fill:#33324f;fill-rule:nonzero" transform="translate(-411 -252)"/><path d="M412 371h1v1h-1z" style="fill:#151537;fill-rule:nonzero" transform="translate(-411 -252)"/><path d="M411 371h1v1h-1z" style="fill:#aaa5b3;fill-rule:nonzero" transform="translate(-411 -252)"/><path d="M820 370h1v1h-1z" style="fill:#f3edf6;fill-rule:nonzero" transform="translate(-411 -252)"/><path d="M819 370h1v1h-1z" style="fill:#3a336b;fill-rule:nonzero" transform="translate(-411 -252)"/><path d="M675 370h1v1h-1z" style="fill:#4d3fa3;fill-rule:nonzero" transform="translate(-411 -252)"/><path d="M571 370h1v1h-1z" style="fill:#5f4eb2;fill-rule:nonzero" transform="translate(-411 -252)"/><path d="M434 370h1v1h-1z" style="fill:#464069;fill-rule:nonzero" transform="translate(-411 -252)"/><path d="M456 369h1v1h-1z" style="fill:#090347;fill-rule:nonzero" transform="translate(-411 -252)"/><path d="M796 348h1v1h-1z" style="fill:#9c7cfc;fill-rule:nonzero" transform="translate(-411 -252)"/><path d="M570 348h1v1h-1z" style="fill:#a486f0;fill-rule:nonzero" transform="translate(-411 -252)"/><path d="M456 328h1v1h-1z" style="fill:#1e114c;fill-rule:nonzero" transform="translate(-411 -252)"/><path d="M458 327h1v1h-1z" style="fill:#f4e3ff;fill-rule:nonzero" transform="translate(-411 -252)"/><path d="M819 326h1v1h-1z" style="fill:#3b3f59;fill-rule:nonzero" transform="translate(-411 -252)"/><path d="M798 326h1v1h-1z" style="fill:#09051c;fill-rule:nonzero" transform="translate(-411 -252)"/><path d="M797 326h1v1h-1z" style="fill:#483b73;fill-rule:nonzero" transform="translate(-411 -252)"/><path d="M775 326h1v1h-1z" style="fill:#6c54cf;fill-rule:nonzero" transform="translate(-411 -252)"/><path d="M774 326h1v1h-1z" style="fill:#8d75e4;fill-rule:nonzero" transform="translate(-411 -252)"/><path d="M456 326h1v1h-1z" style="fill:#3b3355;fill-rule:nonzero" transform="translate(-411 -252)"/><path d="M434 326h1v1h-1z" style="fill:#68697c;fill-rule:nonzero" transform="translate(-411 -252)"/><path d="M819 325h1v1h-1z" style="fill:#cccfd6;fill-rule:nonzero" transform="translate(-411 -252)"/><path d="M797 325h1v1h-1z" style="fill:#918faa;fill-rule:nonzero" transform="translate(-411 -252)"/><path d="M774 325h1v1h-1z" style="fill:#141151;fill-rule:nonzero" transform="translate(-411 -252)"/><path d="M773 325h1v1h-1z" style="fill:#7f61d7;fill-rule:nonzero" transform="translate(-411 -252)"/><path d="M480 325h1v1h-1z" style="fill:#201049;fill-rule:nonzero" transform="translate(-411 -252)"/><path d="M457 325h1v1h-1z" style="fill:#72718f;fill-rule:nonzero" transform="translate(-411 -252)"/><path d="M456 325h1v1h-1z" style="fill:#e7e2e9;fill-rule:nonzero" transform="translate(-411 -252)"/><path d="M434 325h1v1h-1z" style="fill:#e1e4e5;fill-rule:nonzero" transform="translate(-411 -252)"/><path d="M797 301h1v1h-1z" style="fill:#eaeaed;fill-rule:nonzero" transform="translate(-411 -252)"/><path d="M774 301h1v1h-1z" style="fill:#a9aab9;fill-rule:nonzero" transform="translate(-411 -252)"/><path d="M773 301h1v1h-1z" style="fill:#504e82;fill-rule:nonzero" transform="translate(-411 -252)"/><path d="M728 301h1v1h-1z" style="fill:#44337f;fill-rule:nonzero" transform="translate(-411 -252)"/><path d="M526 301h1v1h-1z" style="fill:#7664a7;fill-rule:nonzero" transform="translate(-411 -252)"/><path d="M525 301h1v1h-1z" style="fill:#382e58;fill-rule:nonzero" transform="translate(-411 -252)"/><path d="M481 301h1v1h-1z" style="fill:#504772;fill-rule:nonzero" transform="translate(-411 -252)"/><path d="M457 301h1v1h-1z" style="fill:#cbc9ce;fill-rule:nonzero" transform="translate(-411 -252)"/><path d="M773 300h1v1h-1z" style="fill:#36425d;fill-rule:nonzero" transform="translate(-411 -252)"/><path d="M526 300h1v1h-1z" style="fill:#312960;fill-rule:nonzero" transform="translate(-411 -252)"/><path d="M481 300h1v1h-1z" style="fill:#02031c;fill-rule:nonzero" transform="translate(-411 -252)"/><path d="M773 278h1v1h-1z" style="fill:#bcc0c8;fill-rule:nonzero" transform="translate(-411 -252)"/><path d="M728 278h1v1h-1z" style="fill:#8a889d;fill-rule:nonzero" transform="translate(-411 -252)"/><path d="M727 278h1v1h-1z" style="fill:#584f79;fill-rule:nonzero" transform="translate(-411 -252)"/><path d="M481 278h1v1h-1z" style="fill:#b0b3b9;fill-rule:nonzero" transform="translate(-411 -252)"/><path d="M728 277h1v1h-1z" style="fill:#e3e3ec;fill-rule:nonzero" transform="translate(-411 -252)"/><path d="M727 277h1v1h-1z" style="fill:#0e1029;fill-rule:nonzero" transform="translate(-411 -252)"/><path d="M526 277h1v1h-1z" style="fill:#afb0c0;fill-rule:nonzero" transform="translate(-411 -252)"/><path d="M727 256h1v1h-1z" style="fill:#22233e;fill-rule:nonzero" transform="translate(-411 -252)"/><path d="M727 255h1v1h-1z" style="fill:#dedce7;fill-rule:nonzero" transform="translate(-411 -252)"/><path d="M526 255h1v1h-1z" style="fill:#e9edee;fill-rule:nonzero" transform="translate(-411 -252)"/></svg>