<svg xmlns="http://www.w3.org/2000/svg" xml:space="preserve" style="fill-rule:evenodd;clip-rule:evenodd;stroke-linejoin:round;stroke-miterlimit:2" viewBox="0 0 494 501"><path d="M411 512h-16v-16h-16V392h16v-13h16v-19h431v18h15v14h16v104h-16v16h-16v-16h15V393h-15v-13H411v13h-15v103h15zm430 0v42h16v14h16v93h-16v-88h-16v-11H411v11h-15v88h15v13h430v-13h15v14h-15v45h16v16h16v93h-16v15h-15v17H411v-17h-16v-15h-16v-93h16v-16h16v-45h-16v-14h-16v-94h16v-13h16v-42zM432 693v18h389v-18zm0-163v18h389v-18zm-21 196v10h-15v93h15v14h430v-14h15v-92h-15v-11z" style="fill:#57ecbf" transform="translate(-379 -360)"/><path d="M704 605h22v28h-22z" style="fill:#52e7ba;fill-rule:nonzero" transform="translate(-379 -360)"/><path d="M705 769h21v28h-22v-27h1z" style="fill:#54e5b9;fill-rule:nonzero" transform="translate(-379 -360)"/><path d="M745 769h21v28h-21z" style="fill:#58e8bb;fill-rule:nonzero" transform="translate(-379 -360)"/><path d="M745 605h21v28h-21z" style="fill:#54e8bb;fill-rule:nonzero" transform="translate(-379 -360)"/><path d="M745 434h21v28h-21z" style="fill:#56e7b9;fill-rule:nonzero" transform="translate(-379 -360)"/><path d="M785 434h20v28h-20z" style="fill:#53e7ba;fill-rule:nonzero" transform="translate(-379 -360)"/><path d="M705 434h20v28h-20z" style="fill:#56e9bc;fill-rule:nonzero" transform="translate(-379 -360)"/><path d="M444 769h23v24h-23z" style="fill:#57ecbe;fill-rule:nonzero" transform="translate(-379 -360)"/><path d="M785 606h20v27h-20z" style="fill:#56e9bd;fill-rule:nonzero" transform="translate(-379 -360)"/><path d="M785 770h20v27h-20z" style="fill:#56e8ba;fill-rule:nonzero" transform="translate(-379 -360)"/><path d="M444 605h23v22h-23z" style="fill:#52e9bb;fill-rule:nonzero" transform="translate(-379 -360)"/><path d="M444 433h23v22h-23z" style="fill:#51e7b9;fill-rule:nonzero" transform="translate(-379 -360)"/></svg>