<svg xmlns="http://www.w3.org/2000/svg" xml:space="preserve" style="fill-rule:evenodd;clip-rule:evenodd;stroke-linejoin:round;stroke-miterlimit:2" viewBox="0 0 540 487"><path d="M515 806v-16h23v-18h38v-17h22v-18h52v18h30v17h36v18h24v16h35v-53h-17v-54h18v53h18v54h17v34h-36v-16h-36v-17h-24v-17h-36v-17h-29v-17h-52v17h-21v17h-37v17h-13v-1zm-69-191h17v16h34v18h18v50h-18v54h-18v53h36v18h-36v16h-36v-34h17v-54h18v-54h18v-48h-35v-18h-15zm110-99v-40h20v40zm-110 99h-26v-18h-16v-14h-13v-12h-15v-17h-19v-19h181v-19h18v38H392v17h13v9h16v17h7v-1h18zm312 84h-18v-49h18zm50-84v-19h25v-15h1v-1h15v-9h13v-17H698v-38h-19v-40h-19v-43h20v42h19v41h18v19h180v19h-19v17h-15v12h-13v14h-16v18zm0 0v17h-15v17h-35v-18h33v-16zM618 353h18v18h6v19h19v40h-20v-39h-26v39h-21v-40h21v-18h3zm-42 80h20v42h-20z" style="fill:#19f3c4" transform="translate(-357 -353)"/></svg>