<svg xmlns="http://www.w3.org/2000/svg" xml:space="preserve" style="fill-rule:evenodd;clip-rule:evenodd;stroke-linejoin:round;stroke-miterlimit:2" viewBox="0 0 1280 1024"><path d="M0 0h1280v1024H0z" style="fill:#000015;fill-rule:nonzero" transform="matrix(.6844 0 0 .63245 196.958 213.371)"/><path d="M209 136h858v14h15v12h14v16h12v669h-12v14h-12v12h-14v12H211v-12h-13v-12h-14v-13h-1v-1h-12V178h13v-16h12v-12h13zm-13 114v582h25v28h838v-27h25V250z" style="fill:#9150fe;fill-rule:nonzero"/><path d="M209 136h858v14h15v12h14v16h12v669h-12v14h-12v12h-14v12H211v-12h-13v-12h-14v-13h-1v-1h-12V178h13v-16h12v-12h13zm11 24v14h-12v14h-12v644h25v28h838v-27h25V188h-13v-14h-12v-14z" style="fill:#c188ff;fill-rule:nonzero"/><path d="M209 136h858v14h15v12h14v16h12v669h-12v14h-12v12h-14v12H211v-12h-13v-12h-14v-13h-1v-1h-12V178h13v-16h12v-12h13zm8 11v15h-11v12h-10v5h-13v663h17v11h8v6h9v13h845v-10h11v-10h11v-10h12V185h-10v-11h-13v-13h-11v-14z" style="fill:#000014;fill-rule:nonzero"/><path d="M245 161h407v2h1v3h1v-2h2v2h1v2h-1v-1h-1v2h1v2h3v-1h-1v-2h1v1h2v2h1v-1h1v-1h2v1h1v1h1v1h2v3h-1v1h-1v1h1v2h2v-1h1v-1h1v1h2v-2h2v-1h2v-1h1v-1h4v2h1v1h1v-1h2v-1h1v-2h1v3h-1v2h1v1h-1v1h2v4h-1v2h-1v-1h-3v1h-1v1h1v1h-3v-2h-1v1h-2v1h-1v1h2v-1h1v2h-1v2h-2v1h1v1h-2v1h-1v1h1v1h-2v-1h-1v2h-1v1h-2v1h-2v-2h2v-1h1v-2h2v-1h1v-1h-2v-2h-1v-3h1v1h1v-1h1v-1h1v-3h-1v1h-2v-1h-2v1h1v1h-1v2h-1v-1h-1v1h-1v-1h-1v-2h-1v-1h-3v-1h-1v-1h-1v2h-2v-3h1v-1h-3v1h-1v2h1v1h-1v2h-1v1h-2v-1h-1v3h-2v-1h-1v2h-1v-1h-1v-2h-1v1h-2v1h-1v1h-1v-2h1v-2h-1v1h-2v3h1v3h-2v1h-1v1h-1v1h-1v1h-1v-1h-3v2h-1v3h-1v1h2v-2h2v1h2v3h-1v-1h-2v1h-1v2h1v1h-1v2h1v1h1v1h2v-1h1v-1h-1v-1h1v-1h2v1h1v-1h1v-1h1v2h-1v2h-2v1h1v2h1v-1h1v2h1v1h1v1h-2v1h1v2h-2v1h-1v1h-2v1h1v1h-1v1h1v2h-2v-2h-2v1h-1v-1h-2v1h1v1h-2v-1h-1v1h-1v1h-1v-1h-2v2h-3v3h-1v-1h-2v1h1v1h-2v1h-1v-1h-4v-1h1v-1h-2v3h-1v-1h-1v1h-4v1h-2v-1h-1v1h-1v2h-1v-1h-3v1h-1v-1h-5v1h-1v1h-2v-2h-3v1h-3v1h-2v1h-1v-1h-3v-1h-1v1h-2v-1h-2v3h-1v-2h-1v1h-1v1h-1v1h-1v-1h-1v2h-1v2h-1v1h-2v-1h-2v1h-3v1h-1v-1h-2v-1h-2v-1h-1v2h-6v1h-2v-1h-1v1h-2v1h-2v-1h-2v1h-2v-1h-1v1h-2v-1h-1v1h-7v1h-1v-1h-4v1h-2v-1h-1v1h-3v-1h-2v1h-1v-1h-2v1h-1v-1h-1v1h-2v-5h-1v1h-1v1h-1v1h-1v2h-2v-1h-3v1h-1v-1h-1v1h-1v-1h-1v1h-4v-1h-1v1h-5v1h-3v-1h1v-1h1v-1h-1v-1h1v-1h1v-1h-2v1h-1v1h-1v2h-1v1h-1v-1h-2v1h-1v-2h-1v3h-1v-1h-2v1h-1v-1h-7v-1h-1v1h-6v1h-2v1h16v1h1v-1h102v1h9v-1h1v1h23v-1h13v1h19v-1h1v1h6v1H261v-1h-40v-1h-12v-3h1v1h2v1h1v-1h1v1h2v-1h5v-1h1v2h4v-1h1v-1h1v1h1v1h2v1h1v-1h1v-5h1v-1h1v-2h-2v-2h1v-1h1v-1h1v-1h1v-2h-1v-1h1v-1h1v-1h1v1h1v-1h1v-2h1v3h1v-49h-2v-1h-1v-1h-1v-1h2v-1h3v-2h-1v-1h2v-1h1v-2h1v1h1v-2h-1v-1h-1v-1h-1v-1h1v-2h1v-1h-1v-2h-1zm2 2v1h1v-1zm409 0h1v1h-1zm28 8h1v1h-1zm-1 1h1v1h-1zm7 6h2v1h-2zm-33 3h1v1h-1zm5 2h1v1h-1zm-15 6h1v1h-1zm21 10h1v1h-1zm-35 5h2v1h-2zm9 5h1v2h-1z" style="fill:#9d5dfe;fill-rule:nonzero"/><path d="M196 250h888v583h-25v-1h14v-1h-1V264H209v568h-13z" style="fill:#300e80;fill-rule:nonzero"/><path d="M217 147h845v2h-1v12h-1v-2H220v15h-12v14h-12v654h-13V179h13v-5h10v-12h11z" style="fill:#ddb8ff;fill-rule:nonzero"/><path d="M220 160h443v1h179v1h-1v1h-1v2h1v1h1v1h-1v1h-1v1h1v1h-1v1h1v1h-2v-2h-1v1h-2v-1h1v-2h-1v-1h-2v2h-1v-1h-1v-1h-1v-1h-3v-2h-1v1h-1v-1h-1v1h-2v1h-1v1h-1v1h-1v-1h-1v1h-2v2h-2v1h-1v2h-1v-1h-1v1h-1v-1h-1v-1h-1v1h-2v-5h1v-1h-1v-1h-1v1h-1v1h-1v3h-1v-1h-1v1h-1v-2h1v-1h-1v-2h-1v-2h-1v-1h-1v3h1v1h-1v1h-1v-1h-1v-3h-1v1h-1v1h1v2h-3v1h-1v2h-1v-4h-1v2h-2v-1h-1v2h1v1h-2v1h-2v1h-1v3h1v1h1v1h-1v2h1v1h-2v-1h-1v-1h-1v-1h-1v-2h-2v1h-1v1h-1v1h-1v1h1v1h1v-1h1v1h1v-1h1v1h1v2h1v2h1v-1h1v1h1v1h1v-1h1v-1h3v1h2v-1h1v1h1v1h1v-1h3v2h5v-1h2v1h3v2h-2v3h-1v1h-1v-2h-1v1h-1v-1h-1v1h-1v1h1v2h2v-1h1v3h1v1h-1v1h-3v-1h-1v-2h-1v1h-1v1h-2v-2h-1v1h-1v1h-1v1h3v1h-1v1h1v1h1v1h1v2h-1v-1h-2v1h-1v1h-1v-2h1v-3h-1v-1h-2v1h-1v1h-1v2h-1v-1h-1v1h-1v1h1v2h-1v1h-1v2h-2v2h-1v-1h-2v-1h-1v2h-1v1h-1v-2h-1v-1h-1v-1h-1v1h-2v1h-1v-1h-1v-1h-2v2h1v1h-2v2h1v1h-1v1h2v2h-1v-1h-1v1h-2v-1h-2v1h-3v1h1v1h-1v1h-1v-2h-1v1h-1v-1h-2v2h-1v1h-1v-2h-6v1h-1v-3h1v-2h-2v1h-1v1h-3v2h-2v-3h2v-1h1v-2h-2v-1h1v-2h-1v1h-1v1h-1v1h-1v1h-2v-1h1v-2h1v-2h1v-1h-1v-1h-1v-2h-1v-2h-1v1h-1v-1h-2v-2h-1v1h-1v-3h-1v1h-1v1h-1v-3h-2v1h-1v1h1v1h-1v1h-1v-1h-1v-2h-1v-1h-2v1h1v2h-1v1h2v1h1v1h1v1h-1v1h-3v1h1v1h-3v2h2v1h2v1h2v1h-2v2h1v1h1v-1h1v1h1v1h-1v1h-1v1h1v1h-2v-3h-1v-1h-1v-1h-1v1h-1v1h-1v1h-1v1h-1v-1h-1v1h-1v1h-1v1h-1v2h-1v-1h-1v1h-1v2h-1v1h-2v1h-2v-1h-1v2h-1v-1h-2v-1h-3v1h-2v-1h-1v1h-2v1h-1v2h-2v-2h1v-2h-1v-1h-1v1h-1v1h-1v-2h1v-1h-1v-2h-1v2h-1v1h-2v1h-1v-1h-2v-2h-1v1h-1v1h-2v1h-1v-1h-1v1h-1v1h-1v1h-1v-1h-1v-1h-2v1h-2v1h-2v-2h-1v1h-1v1h-1v1h-1v1h-1v2h-1v-5h-2v1h-2v-1h-1v-1h-1v2h-1v1h-1v-1h-3v-1h-1v1h-1v1h-1v2h-1v1h1v1h1v1h-1v1h-1v-2h-1v-1h-2v1h-1v1h-1v4h-1v1h2v1h-1v1h-1v1h-1v1h-1v1h-1v1h1v1h-1v1h-1v1h6v1h-19v-1h-13v1h-23v-1h-1v1h-9v-1H468v1h-1v-1h-16v-1h2v-1h6v-1h1v1h7v1h1v-1h2v1h1v-3h1v2h1v-1h2v1h1v-1h1v-2h1v-1h1v-1h2v1h-1v1h-1v1h1v1h-1v1h-1v1h3v-1h5v-1h1v1h4v-1h1v1h1v-1h1v1h1v-1h3v1h2v-2h1v-1h1v-1h1v-1h1v5h2v-1h1v1h1v-1h2v1h1v-1h2v1h3v-1h1v1h2v-1h4v1h1v-1h7v-1h1v1h2v-1h1v1h2v-1h2v1h2v-1h2v-1h1v1h2v-1h6v-2h1v1h2v1h2v1h1v-1h3v-1h2v1h2v-1h1v-2h1v-2h1v1h1v-1h1v-1h1v-1h1v2h1v-3h2v1h2v-1h1v1h3v1h1v-1h2v-1h3v-1h3v2h2v-1h1v-1h5v1h1v-1h3v1h1v-2h1v-1h1v1h2v-1h4v-1h1v1h1v-3h2v1h-1v1h4v1h1v-1h2v-1h-1v-1h2v1h1v-3h3v-2h2v1h1v-1h1v-1h1v1h2v-1h-1v-1h2v1h1v-1h2v2h2v-2h-1v-1h1v-1h-1v-1h2v-1h1v-1h2v-2h-1v-1h2v-1h-1v-1h-1v-2h-1v1h-1v-2h-1v-1h2v-2h1v-2h-1v1h-1v1h-1v-1h-2v1h-1v1h1v1h-1v1h-2v-1h-1v-1h-1v-2h1v-1h-1v-2h1v-1h2v1h1v-3h-2v-1h-2v2h-2v-1h1v-3h1v-2h3v1h1v-1h1v-1h1v-1h1v-1h2v-3h-1v-3h2v-1h1v2h-1v2h1v-1h1v-1h2v-1h1v2h1v1h1v-2h1v1h2v-3h1v1h2v-1h1v-2h1v-1h-1v-2h1v-1h3v1h-1v3h2v-2h1v1h1v1h3v1h1v2h1v1h1v-1h1v1h1v-2h1v-1h-1v-1h2v1h2v-1h1v3h-1v1h-1v1h-1v-1h-1v3h1v2h2v1h-1v1h-2v2h-1v1h-2v2h2v-1h2v-1h1v-2h1v1h2v-1h-1v-1h1v-1h2v-1h-1v-1h2v-2h1v-2h-1v1h-2v-1h1v-1h2v-1h1v2h3v-1h-1v-1h1v-1h3v1h1v-2h1v-4h-2v-1h1v-1h-1v-2h1v-3h-1v2h-1v1h-2v1h-1v-1h-1v-2h-4v1h-1v1h-2v1h-2v2h-2v-1h-1v1h-1v1h-2v-2h-1v-1h1v-1h1v-3h-2v-1h-1v-1h-1v-1h-2v1h-1v1h-1v-2h-2v-1h-1v2h1v1h-3v-2h-1v-2h1v1h1v-2h-1v-2h-2v2h-1v-3h-1v-2H245v1h1v2h1v1h-1v2h-1v1h1v1h1v1h1v2h-1v-1h-1v2h-1v1h-2v1h1v2h-3v1h-2v1h1v1h1v1h2v49h-1v-3h-1v2h-1v1h-1v-1h-1v1h-1v1h-1v1h1v2h-1v1h-1v1h-1v1h-1v2h2v2h-1v1h-1v5h-1v1h-1v-1h-2v-1h-1v-1h-1v1h-1v1h-4v-2h-1v1h-5v1h-2v-1h-1v1h-1v-1h-2v-1h-1v3h12v1h40v1h-65v-62h12v-14h12zm576 2v1h1v-1zm-140 1v1h1v-1zm28 8v1h1v-1zm-1 1v1h1v-1zm7 6v1h2v-1zm-33 3v1h1v-1zm5 2v1h1v-1zm121 2v2h1v-2zm-136 4v1h1v-1zm156 0v1h1v-1zm-78 7v2h2v-2zm-57 3v1h1v-1zm62 1v1h1v-1zm-97 4v1h2v-1zm9 5v2h1v-2zm72 1v1h1v-1zm28 1v1h1v-1zm-1 1v1h1v-1zm5 1v2h1v-2zm-92 13v1h1v-1zm-407-63h1v1h-1z" style="fill:#9a5aff;fill-rule:nonzero"/><path d="M222 847h837v13H221v-12h1z" style="fill:#2e0e7c;fill-rule:nonzero"/><path d="M198 252h158v1h-3v1h-3v-1h-3v1h-1v-1h-1v2h-4v2h-3v1h-2v1h1v1h1v1h-1v1h12v-1h1v1h29v1h52v1H209v9h-1v558h-10z" style="fill:#3a1397;fill-rule:nonzero"/><path d="M217 147h845v2h-1v12h-1v-2H600v-1h-2v-1h-2v-1h2v-1h-1v-1h2v-1h2v-1h-4v-2h-12v-1H218v13h-1z" style="fill:#cba7ff;fill-rule:nonzero"/><path d="M288 330h22v14h15v14h14v14h13v14h13v26h-13v14h-13v13h-14v13h-14v12h-23v-21h13v-13h13v-1h1v-13h13v-12h12v-15h-12v-11h-12v-12h-13v-13h-15z" style="fill:#a96bff;fill-rule:nonzero"/><path d="M180 469h1v371h-1v1h2v2h1v-1h17v11h8v6h9v13h829v1H217v1h7v2h1v1h1v1h1v1h1v1h-2v-1h-1v1h-2v1h-1v-1h-7v1h-1v-1h-1v3h856v-10h1v12H211v-12h-13v-12h-13v-14h-1v-1h-11v-10h1v-1h1v-1h-1v-1h2v2h1v-1h2v1h1v-6h-2v1h-1v1h-1v-1h-1v-1h2v-3h1v1h2v-5h-2v-1h2v-2h-2v-1h2v-36h-2v-1h2v-37h-1v-2h1v-13h-1v-1h-1v-1h2v-2h-1v-1h1v-4h-1v-1h1v-2h-1v-1h-1v-1h2v-4h-1v-1h1v-6h-3v-2h1v1h2v-5h-2v-1h2v-2h-1v-1h1v-87h-1v-1h-1v-2h2v-1h-1v-1h1v-29h-1v-1h1v-2h-1v-1h1v-22h-1v-1h1v-3h-2v-2h2v-41h-1v-1h1v-5h-1v-1h1zm46 406h2v2h-2z" style="fill:#000016;fill-rule:nonzero"/><path d="M244 180h52v51h-52z" style="fill:#000015;fill-rule:nonzero"/><path d="M413 180h52v50h-52z" style="fill:#000016;fill-rule:nonzero"/><path d="M329 180h51v50h-51z" style="fill:#001;fill-rule:nonzero"/><path d="M1069 873h1v12H211v-2h1v-9h1v9h856z" style="fill-rule:nonzero"/><path d="M217 147h845v2h-1v12h-1v-12H218v13h-1z" style="fill:#fde1ff;fill-rule:nonzero"/><path d="M220 860h839v2H221v-1h-1z" style="fill:#c48dff;fill-rule:nonzero"/><path d="M196 250h888v1H197v581h-1z" style="fill:#3e1ca2;fill-rule:nonzero"/><path d="M1061 149h1v12h11v13h13v11h-1v-10h-11v1h10v10h-4v1h4v1h-13v-14h-12v-14H220v-1h840v2h1z" style="fill:#b584fe;fill-rule:nonzero"/><path d="M413 180h52v50h-52zm2 2v37h1v-1h3v-1h1v1h1v-1h1v-12h1v-2h-1v-1h2v-3h1v-5h1v23h26v1h3v1h1v1h-1v3h-1v1h-1v3h2v1h2v1h1v-1h3v-1h1v-39h-1v-1h1v-1h-1v-3h-5v-1z" style="fill:#00000d;fill-rule:nonzero"/><path d="M209 264h863v1H209z" style="fill:#050036;fill-rule:nonzero"/><path d="M211 884h859v1H211z" style="fill:#404146;fill-rule:nonzero"/><path d="M209 135h858v1H209z" style="fill:#afb3b6;fill-rule:nonzero"/><path d="M217 147h845v1H217z" style="fill:#9c7fbe;fill-rule:nonzero"/><path d="M222 847h837v1H222z" style="fill:#180850;fill-rule:nonzero"/><path d="M223 860h836v1H223z" style="fill:#d8a0ff;fill-rule:nonzero"/><path d="M223 859h836v1H223z" style="fill:#32127f;fill-rule:nonzero"/><path d="M385 451h64v13h-64z" style="fill:#9f53fe;fill-rule:nonzero"/><path d="M217 872h829v1H217z" style="fill:#150a33;fill-rule:nonzero"/><path d="M196 832h25v28h-1v1h1v1h38v1h-9v1h-2v1h-1v-1h-1v1h-1v1h-1v-1h-1v-1h-1v1h-1v-1h-1v1h-1v1h-2v-1h-1v1h-1v1h-1v-1h-4v1h-1v-1h-4v1h1v2h-2v1h-3v1h-2v-11h-1v12h-1v-13h-9v-6h-8v-11h-4z" style="fill:#b77cfe;fill-rule:nonzero"/><path d="M990 202h51v14h-51z" style="fill:#000015;fill-rule:nonzero"/><path d="M921 202h51v14h-51z" style="fill:#001;fill-rule:nonzero"/><path d="M1108 178h1v670h-13v-1h12z" style="fill:#a4a3af;fill-rule:nonzero"/><path d="M170 178h1v662h-1z" style="fill:#f0f0f3;fill-rule:nonzero"/><path d="M183 181h1v661h-1z" style="fill:#c5a7ed;fill-rule:nonzero"/><path d="M1096 185h1v657h-1z" style="fill:#120835;fill-rule:nonzero"/><path d="M1082 251h1v581h-10v-1h9z" style="fill:#1e0163;fill-rule:nonzero"/><path d="M196 250h1v582h-1z" style="fill:#7151bf;fill-rule:nonzero"/><path d="M1059 834h22v1h-2v1h2v1h1v1h1v4h1v10h-11v10h-11v10h-1v-11h-1v-1h-1z" style="fill:#a562fe;fill-rule:nonzero"/><path d="M342 194h25v23h-25z" style="fill:#3d1394;fill-rule:nonzero"/><path d="M1072 264h1v567h-1z" style="fill:#220666;fill-rule:nonzero"/><path d="M208 273h1v559h-1z" style="fill:#220d6f;fill-rule:nonzero"/><path d="M257 194h24v23h-24z" style="fill:#3c1396;fill-rule:nonzero"/><path d="M426 194h24v23h-24z" style="fill:#39118c;fill-rule:nonzero"/><path d="M244 180h52v51h-52zm2 2v47h48v-45h-1v-2z" style="fill:#000004;fill-rule:nonzero"/><path d="M682 148h380v1h-1v12h-1v-12H682z" style="fill:#f1cbff;fill-rule:nonzero"/><path d="M1066 136h1v14h15v12h14v16h-1v-15h-13v3h-3v2h-1v1h-1v1h-1v-1h-1v-8h-1v13h-1v-13h-11v-2h2v-14h-1v-2h-1v-2h-1v-1h-18v-1h1v-1h5v-1h16v13h1zm-870 14h1v12h1v-9h1v1h2v1h1v-2h2v1h-1v2h2v2h1v1h-1v13h-8v1h-2v1h-1v3h-2v1h-7v-14h12v-1h-13v-1h12z" style="fill:#000017;fill-rule:nonzero"/><path d="M990 202h51v14h-2v-1h-38v-1h38v-10h-49z" style="fill:#000002;fill-rule:nonzero"/><path d="M1108 707h1v141h-13v-1h12z" style="fill:#acabb7;fill-rule:nonzero"/><path d="M219 160h1v14h-12v-11h10v1h1z" style="fill:#dcb6ff;fill-rule:nonzero"/><path d="M1108 577h1v130h-1z" style="fill:#a9a8b5;fill-rule:nonzero"/><path d="M412 180h1v50h52v1h-53z" style="fill:#462a90;fill-rule:nonzero"/><path d="M295 180h1v51h-52v-1h51z" style="fill:#492d97;fill-rule:nonzero"/><path d="M196 150h1v12h1v-9h1v1h2v1h1v-2h2v1h-1v2h2v2h1v1h-1v2h-2v1h-1v1h-2v2h-1v-1h-1v-1h-14v-1h12z" style="fill:#00001d;fill-rule:nonzero"/><path d="M1062 162h11v13h-1v1h-1v-2h-11v-2h5v-1h1v-1h1v-3h2v-2h2v-2h-9z" style="fill:#c18aff;fill-rule:nonzero"/><path d="M1083 775h1v58h-25v-1h24z" style="fill:#250476;fill-rule:nonzero"/><path d="M185 854h2v1h4v-1h1v2h4v1h-1v2h3v1h1v13h-1v-12h-13z" style="fill:#00001e;fill-rule:nonzero"/><path d="M1081 150h1v12h14v16h-1v-15h-13v3h-3v2h-1v1h-1v1h-1v-1h-1v-6h1v-1h5z" style="fill:#000015;fill-rule:nonzero"/><path d="M1108 405h1v79h-1z" style="fill:#abaab6;fill-rule:nonzero"/><path d="M216 140h1v1h2v-1h2v1h4v1h-2v2h-4v2h-1v1h-1v15h-11v-2h1v-2h2v-1h1v1h1v1h-1v1h-2v1h8v-14h-1v-2h1v-2h-1v-2h1z" style="fill:#000016;fill-rule:nonzero"/><path d="M342 194h1v22h23v-22h1v23h-25z" style="fill:#27096e;fill-rule:nonzero"/><path d="M1073 174h13v11h-1v-10h-11v1h10v1h-7v3h-1v2h1v1h1v1h-2v2h-3z" style="fill:#b580ff;fill-rule:nonzero"/><path d="M323 433h1v1h-1zm15-7h1v13h-14v13h-14v-1h13v-12h-3v-1h1v-4h1v1h1v2h1v1h13z" style="fill:#9963f3;fill-rule:nonzero"/><path d="M385 464h64v1h-64z" style="fill:#300b7f;fill-rule:nonzero"/><path d="M990 202h51v14h-1v-13h-50z" style="fill:#270f62;fill-rule:nonzero"/><path d="M196 188h1v62h-1z" style="fill:#b981ff;fill-rule:nonzero"/><path d="M202 839h1v1h1v1h1v5h-1v5h-2v-9h-1v10h7v1h-8v-11h-3v-2h5z" style="fill:#b072fe;fill-rule:nonzero"/><path d="M288 444h2v1h-1v18h21v-12h1v13h-23z" style="fill:#c776ff;fill-rule:nonzero"/><path d="M352 387h13v25h-13v5h-1v-6h13v-23h-12z" style="fill:#bb74ff;fill-rule:nonzero"/><path d="M1108 351h1v54h-1z" style="fill:#a5a4b2;fill-rule:nonzero"/><path d="M412 231h53v1h-53z" style="fill:#af6bff;fill-rule:nonzero"/><path d="M316 377h13v4h1v6h10v2h-12v-11h-12z" style="fill:#b56bff;fill-rule:nonzero"/><path d="M329 231h52v1h-52z" style="fill:#b874ff;fill-rule:nonzero"/><path d="M244 231h52v1h-52z" style="fill:#b975ff;fill-rule:nonzero"/><path d="M872 884h51v1h-51z" style="fill:#434449;fill-rule:nonzero"/><path d="M197 832h24v28h-1v-27h-23z" style="fill:#7c56c0;fill-rule:nonzero"/><path d="M329 230h51v1h-51z" style="fill:#4c309a;fill-rule:nonzero"/><path d="M412 180h1v51h-1z" style="fill:#5d3abb;fill-rule:nonzero"/><path d="M411 180h1v51h-1z" style="fill:#ba72ff;fill-rule:nonzero"/><path d="M921 202h51v1h-51z" style="fill:#27115f;fill-rule:nonzero"/><path d="M296 180h1v51h-1z" style="fill:#bd74ff;fill-rule:nonzero"/><path d="M702 884h50v1h-50z" style="fill:#4f5154;fill-rule:nonzero"/><path d="M328 404h13v2h-12v11h-14v-1h13z" style="fill:#b272fe;fill-rule:nonzero"/><path d="M381 180h1v50h-1z" style="fill:#b86aff;fill-rule:nonzero"/><path d="M295 180h1v50h-1z" style="fill:#402877;fill-rule:nonzero"/><path d="M380 180h1v50h-1z" style="fill:#5e3ea9;fill-rule:nonzero"/><path d="M288 330h22v15h-1v1h-2v-1h-2v-1h1v-2h1v-2h1v4h1v-13h-21z" style="fill:#a66dfc;fill-rule:nonzero"/><path d="M426 194h1v22h23v1h-24z" style="fill:#200660;fill-rule:nonzero"/><path d="M257 194h1v22h23v1h-24z" style="fill:#240768;fill-rule:nonzero"/><path d="M1108 178h1v44h-1z" style="fill:#a5a3b0;fill-rule:nonzero"/><path d="M1108 534h1v43h-1z" style="fill:#a3a3b1;fill-rule:nonzero"/><path d="M206 162h1v15h-1v2h-1v-1h-5v1h-1v-3h7v-1h-10v-1h10z" style="fill:#deb4fe;fill-rule:nonzero"/><path d="M185 859h13v1h1v13h-1v-12h-13z" style="fill:#000012;fill-rule:nonzero"/><path d="M1108 821h1v27h-13v-1h12z" style="fill:#77767f;fill-rule:nonzero"/><path d="M339 372h13v12h-1v2h-1v-13h-11z" style="fill:#b876ff;fill-rule:nonzero"/><path d="M1060 854h1v6h1v1h11v1h-11v10h-1v-11h-1v-1h-1v-5h1z" style="fill:#a665fc;fill-rule:nonzero"/><path d="M216 148h1v14h-11v-2h1v-2h2v-1h1v1h1v1h-1v1h-2v1h8z" style="fill:#00000b;fill-rule:nonzero"/><path d="M350 412h1v5h1v9h-13v-1h12v-1h-1z" style="fill:#b16cff;fill-rule:nonzero"/><path d="M217 147h31v1h-31z" style="fill:#9f88b8;fill-rule:nonzero"/><path d="M1082 162h14v16h-1v-15h-13z" style="fill:#60626f;fill-rule:nonzero"/><path d="M1066 136h1v15h2v1h-2v1h-2v3h-1v-7h1v1h1z" style="fill:#000014;fill-rule:nonzero"/><path d="M1108 707h1v28h-1z" style="fill:#908ba0;fill-rule:nonzero"/><path d="M530 884h27v1h-27z" style="fill:#525456;fill-rule:nonzero"/><path d="M301 430h1v14h-14v-1h13z" style="fill:#bc85fe;fill-rule:nonzero"/><path d="M310 344h14v14h-1v-13h-13z" style="fill:#c583ff;fill-rule:nonzero"/><path d="M1062 159h2v1h10v14h-1v-13h-11z" style="fill-rule:nonzero"/><path d="M365 386h1v26h-1z" style="fill:#3d2777;fill-rule:nonzero"/><path d="M1045 884h25v1h-25z" style="fill:#5a5c60;fill-rule:nonzero"/><path d="M898 884h25v1h-25z" style="fill:#56585a;fill-rule:nonzero"/><path d="M1059 832h25v1h-25z" style="fill:#543281;fill-rule:nonzero"/><path d="M315 417h13v1h-12v12h-1z" style="fill:#ca88ff;fill-rule:nonzero"/><path d="M208 136h1v14h-12v-1h11z" style="fill:#b9babd;fill-rule:nonzero"/><path d="M1070 873h14v1h-13v10h-1z" style="fill:#bdc0c3;fill-rule:nonzero"/><path d="M197 832h24v1h-24z" style="fill:#51397b;fill-rule:nonzero"/><path d="M385 464h24v1h-24z" style="fill:#3c148d;fill-rule:nonzero"/><path d="M323 439h1v12h-13v-1h12zm14-13h1v12h-13v-1h12z" style="fill:#c37dff;fill-rule:nonzero"/><path d="M302 430h12v1h-11v12h-1z" style="fill:#c983ff;fill-rule:nonzero"/><path d="M355 884h23v1h-23z" style="fill:#57595b;fill-rule:nonzero"/><path d="M288 464h23v1h-23z" style="fill:#622fb7;fill-rule:nonzero"/><path d="M303 366h13v11h-1v-10h-12z" style="fill:#3c227c;fill-rule:nonzero"/><path d="M366 194h1v23h-1z" style="fill:#1a0651;fill-rule:nonzero"/><path d="M1044 135h23v1h-23z" style="fill:#b6b9ba;fill-rule:nonzero"/><path d="M211 884h22v1h-22z" style="fill:#5d5f68;fill-rule:nonzero"/><path d="M316 366h1v10h11v1h-12z" style="fill:#c374ff;fill-rule:nonzero"/><path d="M1108 351h1v22h-1z" style="fill:#75717f;fill-rule:nonzero"/><path d="M287 331h1v22h-1z" style="fill:#371e6f;fill-rule:nonzero"/><path d="M288 330h22v1h-22z" style="fill:#955eec;fill-rule:nonzero"/><path d="M1074 174h12v11h-1v-10h-11z" style="fill:#724eb1;fill-rule:nonzero"/><path d="M196 176h2v4h-1v1h-1v-1h-13v-1h13z" style="fill:#e5c2ff;fill-rule:nonzero"/><path d="M209 135h22v1h-22z" style="fill:#c6c9c9;fill-rule:nonzero"/><path d="M287 443h1v21h-1z" style="fill:#2e1a68;fill-rule:nonzero"/><path d="M1041 147h21v1h-21z" style="fill:#9172b8;fill-rule:nonzero"/><path d="M233 884h20v1h-20z" style="fill:#47494e;fill-rule:nonzero"/><path d="M1108 534h1v20h-1z" style="fill:#706d76;fill-rule:nonzero"/><path d="M1074 175h11v10h-1v-9h-10z" style="fill:#e5a5ff;fill-rule:nonzero"/><path d="M303 352h3v1h2v1h-3v-1h-1v13h-1z" style="fill:#a76dff;fill-rule:nonzero"/><path d="M281 197h1v19h-1z" style="fill:#120542;fill-rule:nonzero"/><path d="M200 842h1v10h7v1h-8z" style="fill:#8a4fdc;fill-rule:nonzero"/><path d="M1108 735h1v18h-1z" style="fill:#a19fae;fill-rule:nonzero"/><path d="M352 412h13v1h-12v5h-1z" style="fill:#10092d;fill-rule:nonzero"/><path d="M1073 852h11v1h-10v5h-1z" style="fill:#090229;fill-rule:nonzero"/><path d="M413 230h16v1h-16z" style="fill:#40278b;fill-rule:nonzero"/><path d="M1108 178h1v16h-1z" style="fill:#70697a;fill-rule:nonzero"/><path d="M339 389h1v15h-1z" style="fill:#160d32;fill-rule:nonzero"/><path d="M340 389h1v15h-1z" style="fill:#bc7fff;fill-rule:nonzero"/><path d="M288 353h15v1h-15z" style="fill:#402279;fill-rule:nonzero"/><path d="M365 230h15v1h-15z" style="fill:#3d237d;fill-rule:nonzero"/><path d="M295 215h1v15h-1z" style="fill:#392171;fill-rule:nonzero"/><path d="M183 163h1v15h-1z" style="fill:#b6b5b8;fill-rule:nonzero"/><path d="M1067 149h15v1h-15z" style="fill:#b7b8b8;fill-rule:nonzero"/><path d="M184 861h14v1h-14z" style="fill:#e4e2e7;fill-rule:nonzero"/><path d="M208 852h1v5h8v1h-9z" style="fill:#cb81ff;fill-rule:nonzero"/><path d="M1059 833h14v1h-14z" style="fill:#c67aff;fill-rule:nonzero"/><path d="M311 451h14v1h-14z" style="fill:#5b33a9;fill-rule:nonzero"/><path d="M337 358h1v14h-1z" style="fill:#c97eff;fill-rule:nonzero"/><path d="M325 357h14v1h-14z" style="fill:#1e0e40;fill-rule:nonzero"/><path d="M324 344h1v14h-1z" style="fill:#704abd;fill-rule:nonzero"/><path d="M310 343h14v1h-14z" style="fill:#21154d;fill-rule:nonzero"/><path d="M972 202h1v14h-1z" style="fill:#7944e0;fill-rule:nonzero"/><path d="M1040 202h1v14h-1z" style="fill:#402680;fill-rule:nonzero"/><path d="M208 174h1v14h-1z" style="fill:#c391ff;fill-rule:nonzero"/><path d="M219 160h1v14h-1z" style="fill:#c999ff;fill-rule:nonzero"/><path d="M1082 162h14v1h-14z" style="fill:#949595;fill-rule:nonzero"/><path d="M216 148h1v14h-1z" style="fill:#7a6985;fill-rule:nonzero"/><path d="M198 873h13v1h-13z" style="fill:#b1b7c0;fill-rule:nonzero"/><path d="M220 847h1v13h-1z" style="fill:#8856e7;fill-rule:nonzero"/><path d="M183 848h1v13h-1z" style="fill:#afb0b3;fill-rule:nonzero"/><path d="M1096 847h13v1h-13z" style="fill:#7f7d91;fill-rule:nonzero"/><path d="M384 451h1v13h-1z" style="fill:#1d0e40;fill-rule:nonzero"/><path d="M449 451h1v13h-1z" style="fill:#3b1d72;fill-rule:nonzero"/><path d="M301 430h1v13h-1z" style="fill:#5b378b;fill-rule:nonzero"/><path d="M339 425h13v1h-13z" style="fill:#6938af;fill-rule:nonzero"/><path d="M315 416h13v1h-13z" style="fill:#61458f;fill-rule:nonzero"/><path d="M352 386h13v1h-13z" style="fill:#8d5ce9;fill-rule:nonzero"/><path d="M339 371h13v1h-13z" style="fill:#332058;fill-rule:nonzero"/><path d="M338 358h1v13h-1z" style="fill:#7b4ed2;fill-rule:nonzero"/><path d="M380 217h1v13h-1z" style="fill:#6545bf;fill-rule:nonzero"/><path d="M1041 203h1v13h-1z" style="fill:#a65fff;fill-rule:nonzero"/><path d="M1108 194h1v13h-1z" style="fill:#9591a2;fill-rule:nonzero"/><path d="M1073 161h1v13h-1z" style="fill:#352661;fill-rule:nonzero"/><path d="M207 162h1v13h-1z" style="fill:#fff2ff;fill-rule:nonzero"/><path d="M1066 136h1v13h-1z" style="fill:#484756;fill-rule:nonzero"/><path d="M198 861h1v12h-1z" style="fill:#44454c;fill-rule:nonzero"/><path d="M1083 861h1v12h-1z" style="fill:#20223a;fill-rule:nonzero"/><path d="M1084 861h12v1h-12z" style="fill:#e3e1e5;fill-rule:nonzero"/><path d="M1096 849h1v12h-1z" style="fill:#d7d7d7;fill-rule:nonzero"/><path d="M171 847h12v1h-12z" style="fill:#b5b6bd;fill-rule:nonzero"/><path d="M1072 832h12v1h-12z" style="fill:#6438c7;fill-rule:nonzero"/><path d="M197 832h12v1h-12z" style="fill:#6844c5;fill-rule:nonzero"/><path d="M183 830h1v12h-1z" style="fill:#b390db;fill-rule:nonzero"/><path d="M1083 820h1v12h-1z" style="fill:#2f1085;fill-rule:nonzero"/><path d="M1108 723h1v12h-1z" style="fill:#76737f;fill-rule:nonzero"/><path d="M311 452h1v12h-1z" style="fill:#190e44;fill-rule:nonzero"/><path d="M302 429h12v1h-12z" style="fill:#452973;fill-rule:nonzero"/><path d="M314 417h1v12h-1z" style="fill:#513b8d;fill-rule:nonzero"/><path d="M339 424h12v1h-12z" style="fill:#c678ff;fill-rule:nonzero"/><path d="M328 388h12v1h-12z" style="fill:#8e53fa;fill-rule:nonzero"/><path d="M316 377h12v1h-12z" style="fill:#55359f;fill-rule:nonzero"/><path d="M206 162h1v12h-1z" style="fill:#8b7295;fill-rule:nonzero"/><path d="M1072 162h1v12h-1z" style="fill:#e0a5ff;fill-rule:nonzero"/><path d="M184 162h12v1h-12z" style="fill:#8a8a88;fill-rule:nonzero"/><path d="M196 150h1v12h-1z" style="fill:#7c7f82;fill-rule:nonzero"/><path d="M197 149h12v1h-12z" style="fill:#adaca8;fill-rule:nonzero"/><path d="M1062 861h11v1h-11z" style="fill:#8045e2;fill-rule:nonzero"/><path d="M327 378h1v11h-1z" style="fill:#201241;fill-rule:nonzero"/><path d="M990 202h11v1h-11z" style="fill:#2c166f;fill-rule:nonzero"/><path d="M1096 178h11v1h-11z" style="fill:#161623;fill-rule:nonzero"/><path d="M1074 174h11v1h-11z" style="fill:#906bd7;fill-rule:nonzero"/><path d="M1062 161h11v1h-11z" style="fill:#986ee9;fill-rule:nonzero"/><path d="M1070 874h1v10h-1z" style="fill:#d7dadb;fill-rule:nonzero"/><path d="M1108 811h1v10h-1z" style="fill:#9e9dac;fill-rule:nonzero"/><path d="M301 464h10v1h-10z" style="fill:#341767;fill-rule:nonzero"/><path d="M315 367h1v10h-1z" style="fill:#2b1854;fill-rule:nonzero"/><path d="M1108 341h1v10h-1z" style="fill:#9d9dab;fill-rule:nonzero"/><path d="M1074 175h10v1h-10z" style="fill:#ce97ff;fill-rule:nonzero"/><path d="M196 175h10v1h-10z" style="fill:#f9cdff;fill-rule:nonzero"/><path d="M196 174h10v1h-10z" style="fill:#cea4e7;fill-rule:nonzero"/><path d="M1081 150h1v10h-1z" style="fill:#2b2e3e;fill-rule:nonzero"/><path d="M1057 135h10v1h-10z" style="fill:#cacdcd;fill-rule:nonzero"/><path d="M1061 884h9v1h-9z" style="fill:#656468;fill-rule:nonzero"/><path d="M211 874h1v9h-1z" style="fill:#11111d;fill-rule:nonzero"/><path d="M208 858h9v1h-9z" style="fill:#9151f4;fill-rule:nonzero"/><path d="M1108 554h1v9h-1z" style="fill:#9b98a8;fill-rule:nonzero"/><path d="M207 161h9v1h-9z" style="fill:#3a2944;fill-rule:nonzero"/><path d="M217 147h9v1h-9z" style="fill:#77647d;fill-rule:nonzero"/><path d="M233 884h8v1h-8z" style="fill:#51545b;fill-rule:nonzero"/><path d="M211 884h8v1h-8z" style="fill:#6b6973;fill-rule:nonzero"/><path d="M1108 839h1v8h-1z" style="fill:#727377;fill-rule:nonzero"/><path d="M1108 735h1v8h-1z" style="fill:#948fa2;fill-rule:nonzero"/><path d="M1108 534h1v8h-1z" style="fill:#858097;fill-rule:nonzero"/><path d="M441 464h8v1h-8z" style="fill:#250764;fill-rule:nonzero"/><path d="M1108 373h1v8h-1z" style="fill:#9a98a7;fill-rule:nonzero"/><path d="M413 230h8v1h-8z" style="fill:#36257f;fill-rule:nonzero"/><path d="M183 181h1v8h-1z" style="fill:#c5a1ea;fill-rule:nonzero"/><path d="M183 179h8v1h-8z" style="fill:#ce9bf1;fill-rule:nonzero"/><path d="M1054 147h8v1h-8z" style="fill:#634f85;fill-rule:nonzero"/><path d="M226 147h8v1h-8z" style="fill:#947aaa;fill-rule:nonzero"/><path d="M1045 884h7v1h-7z" style="fill:#4f5056;fill-rule:nonzero"/><path d="M184 861h7v1h-7z" style="fill:#f1eff1;fill-rule:nonzero"/><path d="M207 853h1v6h-1z" style="fill:#0e0731;fill-rule:nonzero"/><path d="M1073 852h1v6h-1z" style="fill:#1c144d;fill-rule:nonzero"/><path d="M202 852h6v1h-6z" style="fill:#955ee9;fill-rule:nonzero"/><path d="M196 826h1v6h-1z" style="fill:#7f5dc8;fill-rule:nonzero"/><path d="M1108 717h1v6h-1z" style="fill:#837d93;fill-rule:nonzero"/><path d="M288 443h6v1h-6z" style="fill:#b57ce0;fill-rule:nonzero"/><path d="M314 417h1v6h-1z" style="fill:#372465;fill-rule:nonzero"/><path d="M303 360h1v6h-1z" style="fill:#8555d8;fill-rule:nonzero"/><path d="M303 354h1v6h-1z" style="fill:#9663f1;fill-rule:nonzero"/><path d="M324 344h1v6h-1z" style="fill:#583ba3;fill-rule:nonzero"/><path d="M178 178h6v1h-6z" style="fill:#131215;fill-rule:nonzero"/><path d="M198 873h5v1h-5z" style="fill:#bac1c8;fill-rule:nonzero"/><path d="M217 867h1v5h-1z" style="fill:#aa75f1;fill-rule:nonzero"/><path d="M1079 832h5v1h-5z" style="fill:#6e3ed2;fill-rule:nonzero"/><path d="M1108 821h1v5h-1z" style="fill:#837f96;fill-rule:nonzero"/><path d="M1108 549h1v5h-1z" style="fill:#7c788b;fill-rule:nonzero"/><path d="M311 451h5v1h-5z" style="fill:#5c3cb6;fill-rule:nonzero"/><path d="M324 446h1v5h-1z" style="fill:#9a62ef;fill-rule:nonzero"/><path d="M334 438h5v1h-5z" style="fill:#8853d9;fill-rule:nonzero"/><path d="M339 425h5v1h-5z" style="fill:#734bca;fill-rule:nonzero"/><path d="M360 412h5v1h-5z" style="fill:#0f052e;fill-rule:nonzero"/><path d="M327 411h1v5h-1z" style="fill:#0e0324;fill-rule:nonzero"/><path d="M327 384h1v5h-1z" style="fill:#0d0830;fill-rule:nonzero"/><path d="M1108 351h1v5h-1z" style="fill:#847e94;fill-rule:nonzero"/><path d="M287 339h1v5h-1z" style="fill:#42227d;fill-rule:nonzero"/><path d="M1108 194h1v5h-1z" style="fill:#807a91;fill-rule:nonzero"/><path d="M412 180h1v5h-1z" style="fill:#6a43c6;fill-rule:nonzero"/><path d="M1108 178h1v5h-1z" style="fill:#585560;fill-rule:nonzero"/><path d="M191 179h5v1h-5z" style="fill:#daaafe;fill-rule:nonzero"/><path d="M1061 156h1v5h-1z" style="fill:#a887e7;fill-rule:nonzero"/><path d="M1077 149h5v1h-5z" style="fill:#c5c5c5;fill-rule:nonzero"/><path d="M1067 149h5v1h-5z" style="fill:#a9aaaf;fill-rule:nonzero"/><path d="M1070 874h1v4h-1z" style="fill:#cccecf;fill-rule:nonzero"/><path d="M1092 861h4v1h-4z" style="fill:#d8d5da;fill-rule:nonzero"/><path d="M208 858h4v1h-4z" style="fill:#9f55f8;fill-rule:nonzero"/><path d="M179 847h4v1h-4z" style="fill:#a49fab;fill-rule:nonzero"/><path d="M200 842h1v4h-1z" style="fill:#6540af;fill-rule:nonzero"/><path d="M1108 735h1v4h-1z" style="fill:#857f97;fill-rule:nonzero"/><path d="M1108 554h1v4h-1z" style="fill:#8f8a9d;fill-rule:nonzero"/><path d="M297 464h4v1h-4z" style="fill:#51249d;fill-rule:nonzero"/><path d="M310 429h4v1h-4z" style="fill:#482f82;fill-rule:nonzero"/><path d="M302 429h4v1h-4z" style="fill:#392457;fill-rule:nonzero"/><path d="M315 416h4v1h-4z" style="fill:#563e79;fill-rule:nonzero"/><path d="M352 412h4v1h-4z" style="fill:#170e40;fill-rule:nonzero"/><path d="M365 386h1v4h-1z" style="fill:#3b2071;fill-rule:nonzero"/><path d="M1108 373h1v4h-1z" style="fill:#8f8a9d;fill-rule:nonzero"/><path d="M303 366h4v1h-4z" style="fill:#3b2276;fill-rule:nonzero"/><path d="M1108 347h1v4h-1z" style="fill:#938fa2;fill-rule:nonzero"/><path d="M287 331h1v4h-1z" style="fill:#2d195b;fill-rule:nonzero"/><path d="M288 330h4v1h-4z" style="fill:#9055d1;fill-rule:nonzero"/><path d="M413 230h4v1h-4z" style="fill:#312068;fill-rule:nonzero"/><path d="M244 230h4v1h-4z" style="fill:#402c90;fill-rule:nonzero"/><path d="M990 202h4v1h-4z" style="fill:#301d7c;fill-rule:nonzero"/><path d="M183 179h4v1h-4z" style="fill:#b484e1;fill-rule:nonzero"/><path d="M1081 174h4v1h-4z" style="fill:#8762c6;fill-rule:nonzero"/><path d="M212 161h4v1h-4z" style="fill:#35243a;fill-rule:nonzero"/><path d="M196 158h1v4h-1z" style="fill:#737174;fill-rule:nonzero"/><path d="M205 149h4v1h-4z" style="fill:#a3a29f;fill-rule:nonzero"/><path d="M1054 147h4v1h-4z" style="fill:#6f5593;fill-rule:nonzero"/><path d="M226 147h4v1h-4z" style="fill:#886e9a;fill-rule:nonzero"/><path d="M1073 858h1v3h-1z" style="fill:#090738;fill-rule:nonzero"/><path d="M1083 849h1v3h-1z" style="fill:#944af9;fill-rule:nonzero"/><path d="M218 832h3v1h-3z" style="fill:#4e356e;fill-rule:nonzero"/><path d="M1108 818h1v3h-1z" style="fill:#9390a3;fill-rule:nonzero"/><path d="M1108 539h1v3h-1z" style="fill:#7b7887;fill-rule:nonzero"/><path d="M308 464h3v1h-3z" style="fill:#2f165b;fill-rule:nonzero"/><path d="M301 464h3v1h-3z" style="fill:#411b85;fill-rule:nonzero"/><path d="M322 451h3v1h-3z" style="fill:#573396;fill-rule:nonzero"/><path d="M287 443h1v3h-1z" style="fill:#2b1651;fill-rule:nonzero"/><path d="M301 440h1v3h-1z" style="fill:#6e44b0;fill-rule:nonzero"/><path d="M351 422h1v3h-1z" style="fill:#9d58fc;fill-rule:nonzero"/><path d="M365 409h1v3h-1z" style="fill:#2d185e;fill-rule:nonzero"/><path d="M339 401h1v3h-1z" style="fill:#221140;fill-rule:nonzero"/><path d="M315 374h1v3h-1z" style="fill:#1b103e;fill-rule:nonzero"/><path d="M349 371h3v1h-3z" style="fill:#281948;fill-rule:nonzero"/><path d="M338 358h1v3h-1z" style="fill:#6d3ebd;fill-rule:nonzero"/><path d="M1095 175h1v3h-1z" style="fill:#525368;fill-rule:nonzero"/><path d="M1095 163h1v3h-1z" style="fill:#5e5e6b;fill-rule:nonzero"/><path d="M216 146h2v1h-1v1h-1z" style="fill:#000001;fill-rule:nonzero"/><path d="M1064 135h3v1h-3z" style="fill:#d4d8d6;fill-rule:nonzero"/><path d="M1070 873h2v1h-2z" style="fill:#d0d4d3;fill-rule:nonzero"/><path d="M217 870h1v2h-1z" style="fill:#c08df8;fill-rule:nonzero"/><path d="M198 861h1v2h-1z" style="fill:#40444a;fill-rule:nonzero"/><path d="M215 858h2v1h-2z" style="fill:#7d54df;fill-rule:nonzero"/><path d="M1073 852h1v2h-1z" style="fill:#251945;fill-rule:nonzero"/><path d="M200 852h2v1h-2z" style="fill:#9362d8;fill-rule:nonzero"/><path d="M200 846h1v2h-1z" style="fill:#7e48cf;fill-rule:nonzero"/><path d="M200 842h1v2h-1z" style="fill:#482979;fill-rule:nonzero"/><path d="M385 464h2v1h-2z" style="fill:#351874;fill-rule:nonzero"/><path d="M288 464h2v1h-2z" style="fill:#5c30a2;fill-rule:nonzero"/><path d="M288 463h2v1h-2z" style="fill:#d574ff;fill-rule:nonzero"/><path d="M311 451h2v1h-2z" style="fill:#583dae;fill-rule:nonzero"/><path d="M301 438h1v2h-1z" style="fill:#67419f;fill-rule:nonzero"/><path d="M314 427h1v2h-1z" style="fill:#5b389e;fill-rule:nonzero"/><path d="M344 425h2v1h-2z" style="fill:#6a3dba;fill-rule:nonzero"/><path d="M314 423h1v2h-1z" style="fill:#463081;fill-rule:nonzero"/><path d="M315 417h2v1h-2z" style="fill:#dc8bff;fill-rule:nonzero"/><path d="M315 416h2v1h-2z" style="fill:#47326b;fill-rule:nonzero"/><path d="M352 412h2v1h-2z" style="fill:#171040;fill-rule:nonzero"/><path d="M365 386h1v2h-1z" style="fill:#3d236d;fill-rule:nonzero"/><path d="M303 366h2v1h-2z" style="fill:#382371;fill-rule:nonzero"/><path d="M323 344h1v2h-1z" style="fill:#d584ff;fill-rule:nonzero"/><path d="M197 250h2v1h-2z" style="fill:#592cb7;fill-rule:nonzero"/><path d="M244 230h2v1h-2z" style="fill:#3a2776;fill-rule:nonzero"/><path d="M1040 202h1v2h-1z" style="fill:#412879;fill-rule:nonzero"/><path d="M1085 183h1v2h-1z" style="fill:#58439e;fill-rule:nonzero"/><path d="M412 180h1v2h-1z" style="fill:#7246c7;fill-rule:nonzero"/><path d="M187 179h2v1h-2z" style="fill:#bf8fe8;fill-rule:nonzero"/><path d="M183 179h2v1h-2z" style="fill:#c48de3;fill-rule:nonzero"/><path d="M182 178h2v1h-2z" style="fill:#1b172c;fill-rule:nonzero"/><path d="M1085 174h1v2h-1z" style="fill:#8059ba;fill-rule:nonzero"/><path d="M196 162h2v1h-2z" style="fill:#000005;fill-rule:nonzero"/><path d="M1081 160h1v2h-1z" style="fill:#0c0b26;fill-rule:nonzero"/><path d="M207 161h2v1h-2z" style="fill:#3d294a;fill-rule:nonzero"/><path d="M1061 159h1v2h-1z" style="fill:#9377d7;fill-rule:nonzero"/><path d="M1081 158h1v2h-1z" style="fill:#1a1d2f;fill-rule:nonzero"/><path d="M1081 150h1v2h-1z" style="fill:#302e3a;fill-rule:nonzero"/><path d="M1052 147h2v1h-2z" style="fill:#8263a7;fill-rule:nonzero"/><path d="M1070 884h1v1h-1z" style="fill:#eef1f1;fill-rule:nonzero"/><path d="M1069 884h1v1h-1z" style="fill:#5b5b5f;fill-rule:nonzero"/><path d="M211 884h1v1h-1z" style="fill:#7f807d;fill-rule:nonzero"/><path d="M1083 873h1v1h-1z" style="fill:#cbced2;fill-rule:nonzero"/><path d="M1070 873h1v1h-1z" style="fill:#8f8f93;fill-rule:nonzero"/><path d="M198 873h1v1h-1z" style="fill:#d0d0d1;fill-rule:nonzero"/><path d="M217 872h1v1h-1z" style="fill:#160c33;fill-rule:nonzero"/><path d="M198 872h1v1h-1z" style="fill:#39353c;fill-rule:nonzero"/><path d="M1061 871h1v1h-1z" style="fill:#854ecc;fill-rule:nonzero"/><path d="M218 871h1v1h-1z" style="fill:#ffb5ff;fill-rule:nonzero"/><path d="M1072 861h1v1h-1z" style="fill:#6f44c1;fill-rule:nonzero"/><path d="M198 861h1v1h-1z" style="fill:#242738;fill-rule:nonzero"/><path d="M1057 858h1v1h-1z" style="fill:#090240;fill-rule:nonzero"/><path d="M1073 852h1v1h-1z" style="fill:#4e338d;fill-rule:nonzero"/><path d="M200 852h1v1h-1z" style="fill:#5d4395;fill-rule:nonzero"/><path d="M201 851h1v1h-1z" style="fill:#ed97ff;fill-rule:nonzero"/><path d="M200 851h1v1h-1z" style="fill:#b26bfb;fill-rule:nonzero"/><path d="M1096 848h1v1h-1z" style="fill:#ecebe6;fill-rule:nonzero"/><path d="M221 848h1v1h-1z" style="fill:#2b0c7f;fill-rule:nonzero"/><path d="M1108 847h1v1h-1z" style="fill:#bbb8bd;fill-rule:nonzero"/><path d="M1107 847h1v1h-1z" style="fill:#707274;fill-rule:nonzero"/><path d="M1096 847h1v1h-1z" style="fill:#716f7b;fill-rule:nonzero"/><path d="M1057 847h1v1h-1z" style="fill:#0e043b;fill-rule:nonzero"/><path d="M221 847h1v1h-1z" style="fill:#090030;fill-rule:nonzero"/><path d="M183 847h1v1h-1z" style="fill:#474b5b;fill-rule:nonzero"/><path d="M1108 846h1v1h-1z" style="fill:#636066;fill-rule:nonzero"/><path d="M200 846h1v1h-1z" style="fill:#7044bd;fill-rule:nonzero"/><path d="M200 844h1v1h-1z" style="fill:#55349a;fill-rule:nonzero"/><path d="M1084 842h1v1h-1z" style="fill:#0a0726;fill-rule:nonzero"/><path d="M200 842h1v1h-1z" style="fill:#361f6d;fill-rule:nonzero"/><path d="M1095 841h1v1h-1z" style="fill:#bc7eff;fill-rule:nonzero"/><path d="M1059 833h1v1h-1z" style="fill:#d273ff;fill-rule:nonzero"/><path d="M220 833h1v1h-1z" style="fill:#9b6fd0;fill-rule:nonzero"/><path d="M219 833h1v1h-1z" style="fill:#faafff;fill-rule:nonzero"/><path d="M1072 832h1v1h-1z" style="fill:#5d33ae;fill-rule:nonzero"/><path d="M1059 832h1v1h-1z" style="fill:#3f255b;fill-rule:nonzero"/><path d="M220 832h1v1h-1z" style="fill:#2b2046;fill-rule:nonzero"/><path d="M197 832h1v1h-1z" style="fill:#5e35c0;fill-rule:nonzero"/><path d="M196 832h1v1h-1z" style="fill:#a47ff0;fill-rule:nonzero"/><path d="M1083 831h1v1h-1z" style="fill:#28017a;fill-rule:nonzero"/><path d="M1082 831h1v1h-1z" style="fill:#030049;fill-rule:nonzero"/><path d="M1072 831h1v1h-1z" style="fill:#0e002d;fill-rule:nonzero"/><path d="M208 831h1v1h-1z" style="fill:#10024e;fill-rule:nonzero"/><path d="M197 831h1v1h-1z" style="fill:#11006b;fill-rule:nonzero"/><path d="M449 464h1v1h-1z" style="fill:#02002c;fill-rule:nonzero"/><path d="M287 464h1v1h-1z" style="fill:#09032b;fill-rule:nonzero"/><path d="M385 463h1v1h-1z" style="fill:#d778ff;fill-rule:nonzero"/><path d="M288 463h1v1h-1z" style="fill:#ec8fff;fill-rule:nonzero"/><path d="M448 452h1v1h-1z" style="fill:#ca68ff;fill-rule:nonzero"/><path d="M385 452h1v1h-1z" style="fill:#c862ff;fill-rule:nonzero"/><path d="M449 451h1v1h-1z" style="fill:#38205d;fill-rule:nonzero"/><path d="M448 451h1v1h-1z" style="fill:#ae5bff;fill-rule:nonzero"/><path d="M324 451h1v1h-1z" style="fill:#35216b;fill-rule:nonzero"/><path d="M311 451h1v1h-1z" style="fill:#7a55da;fill-rule:nonzero"/><path d="M323 450h1v1h-1z" style="fill:#df8cff;fill-rule:nonzero"/><path d="M288 444h1v1h-1z" style="fill:#ed87ff;fill-rule:nonzero"/><path d="M287 443h1v1h-1z" style="fill:#1f102b;fill-rule:nonzero"/><path d="M301 442h1v1h-1z" style="fill:#7d4ec9;fill-rule:nonzero"/><path d="M338 438h1v1h-1z" style="fill:#4d318c;fill-rule:nonzero"/><path d="M337 437h1v1h-1z" style="fill:#e891ff;fill-rule:nonzero"/><path d="M302 430h1v1h-1z" style="fill:#f293ff;fill-rule:nonzero"/><path d="M314 429h1v1h-1z" style="fill:#8f5dea;fill-rule:nonzero"/><path d="M301 429h1v1h-1z" style="fill:#10071e;fill-rule:nonzero"/><path d="M351 425h1v1h-1z" style="fill:#43247a;fill-rule:nonzero"/><path d="M315 417h1v1h-1z" style="fill:#ffb0ff;fill-rule:nonzero"/><path d="M314 417h1v1h-1z" style="fill:#463357;fill-rule:nonzero"/><path d="M327 416h1v1h-1z" style="fill:#714db0;fill-rule:nonzero"/><path d="M327 414h1v1h-1z" style="fill:#1d0d3b;fill-rule:nonzero"/><path d="M352 412h1v1h-1z" style="fill:#44307f;fill-rule:nonzero"/><path d="M328 404h1v1h-1z" style="fill:#aa6bdd;fill-rule:nonzero"/><path d="M339 403h1v1h-1z" style="fill:#2e1a5a;fill-rule:nonzero"/><path d="M328 388h1v1h-1z" style="fill:#9962ed;fill-rule:nonzero"/><path d="M364 387h1v1h-1z" style="fill:#d983ff;fill-rule:nonzero"/><path d="M328 387h1v1h-1z" style="fill:#d17bff;fill-rule:nonzero"/><path d="M365 386h1v1h-1z" style="fill:#211544;fill-rule:nonzero"/><path d="M327 377h1v1h-1z" style="fill:#6b4bc1;fill-rule:nonzero"/><path d="M338 371h1v1h-1z" style="fill:#8f63ee;fill-rule:nonzero"/><path d="M315 367h1v1h-1z" style="fill:#261749;fill-rule:nonzero"/><path d="M315 366h1v1h-1z" style="fill:#553ca7;fill-rule:nonzero"/><path d="M314 366h1v1h-1z" style="fill:#2d1c5d;fill-rule:nonzero"/><path d="M303 366h1v1h-1z" style="fill:#1d133e;fill-rule:nonzero"/><path d="M304 365h1v1h-1z" style="fill:#de88ff;fill-rule:nonzero"/><path d="M303 365h1v1h-1z" style="fill:#945ed3;fill-rule:nonzero"/><path d="M324 357h1v1h-1z" style="fill:#865be2;fill-rule:nonzero"/><path d="M287 353h1v1h-1z" style="fill:#06041c;fill-rule:nonzero"/><path d="M288 352h1v1h-1z" style="fill:#e287ff;fill-rule:nonzero"/><path d="M324 344h1v1h-1z" style="fill:#664a9e;fill-rule:nonzero"/><path d="M323 344h1v1h-1z" style="fill:#f4a4ff;fill-rule:nonzero"/><path d="M324 343h1v1h-1z" style="fill:#0c0a2e;fill-rule:nonzero"/><path d="M323 343h1v1h-1z" style="fill:#312468;fill-rule:nonzero"/><path d="M309 331h1v1h-1z" style="fill:#ac70f0;fill-rule:nonzero"/><path d="M308 331h1v1h-1z" style="fill:#e08dff;fill-rule:nonzero"/><path d="M288 331h1v1h-1z" style="fill:#ef87ff;fill-rule:nonzero"/><path d="M309 330h1v1h-1z" style="fill:#7855ab;fill-rule:nonzero"/><path d="M287 330h1v1h-1z" style="fill:#130725;fill-rule:nonzero"/><path d="M1082 251h1v1h-1z" style="fill:#1b0549;fill-rule:nonzero"/><path d="M197 251h1v1h-1z" style="fill:#0b005f;fill-rule:nonzero"/><path d="M1083 250h1v1h-1z" style="fill:#471da4;fill-rule:nonzero"/><path d="M197 250h1v1h-1z" style="fill:#3c0ea3;fill-rule:nonzero"/><path d="M196 250h1v1h-1z" style="fill:#8a68d2;fill-rule:nonzero"/><path d="M464 230h1v1h-1z" style="fill:#633db5;fill-rule:nonzero"/><path d="M412 230h1v1h-1z" style="fill:#6b49cc;fill-rule:nonzero"/><path d="M380 230h1v1h-1z" style="fill:#8c55f7;fill-rule:nonzero"/><path d="M295 230h1v1h-1z" style="fill:#7244cf;fill-rule:nonzero"/><path d="M412 229h1v1h-1z" style="fill:#4a3198;fill-rule:nonzero"/><path d="M426 216h1v1h-1z" style="fill:#130542;fill-rule:nonzero"/><path d="M366 216h1v1h-1z" style="fill:#0d013f;fill-rule:nonzero"/><path d="M342 216h1v1h-1z" style="fill:#13063d;fill-rule:nonzero"/><path d="M257 216h1v1h-1z" style="fill:#21065f;fill-rule:nonzero"/><path d="M1040 215h1v1h-1z" style="fill:#5c2fb5;fill-rule:nonzero"/><path d="M1040 214h1v1h-1z" style="fill:#4c259b;fill-rule:nonzero"/><path d="M1040 202h1v1h-1z" style="fill:#5634ac;fill-rule:nonzero"/><path d="M1039 202h1v1h-1z" style="fill:#190f3f;fill-rule:nonzero"/><path d="M990 202h1v1h-1z" style="fill:#483095;fill-rule:nonzero"/><path d="M921 202h1v1h-1z" style="fill:#3c267e;fill-rule:nonzero"/><path d="M1085 182h1v1h-1z" style="fill:#6449a5;fill-rule:nonzero"/><path d="M464 180h1v1h-1z" style="fill:#120b31;fill-rule:nonzero"/><path d="M412 180h1v1h-1z" style="fill:#7d53dd;fill-rule:nonzero"/><path d="M295 180h1v1h-1z" style="fill:#422f88;fill-rule:nonzero"/><path d="M244 180h1v1h-1z" style="fill:#0e0926;fill-rule:nonzero"/><path d="M183 180h1v1h-1z" style="fill:#e2b9f7;fill-rule:nonzero"/><path d="M183 179h1v1h-1z" style="fill:#977eae;fill-rule:nonzero"/><path d="M1108 178h1v1h-1z" style="fill:#717070;fill-rule:nonzero"/><path d="M1107 178h1v1h-1z" style="fill:#0e0d0d;fill-rule:nonzero"/><path d="M182 178h1v1h-1z" style="fill:#272824;fill-rule:nonzero"/><path d="M1095 177h1v1h-1z" style="fill:#404058;fill-rule:nonzero"/><path d="M1084 175h1v1h-1z" style="fill:#ffb7ff;fill-rule:nonzero"/><path d="M1085 174h1v1h-1z" style="fill:#3f316e;fill-rule:nonzero"/><path d="M1073 174h1v1h-1z" style="fill:#a278f6;fill-rule:nonzero"/><path d="M205 174h1v1h-1z" style="fill:#b69ee5;fill-rule:nonzero"/><path d="M196 174h1v1h-1z" style="fill:#c3a8d0;fill-rule:nonzero"/><path d="M1095 163h1v1h-1z" style="fill:#544e56;fill-rule:nonzero"/><path d="M1095 162h1v1h-1z" style="fill:#b2b2b2;fill-rule:nonzero"/><path d="M1094 162h1v1h-1z" style="fill:#808081;fill-rule:nonzero"/><path d="M1082 162h1v1h-1z" style="fill:#908c8f;fill-rule:nonzero"/><path d="M1072 162h1v1h-1z" style="fill:#f9b8ff;fill-rule:nonzero"/><path d="M196 162h1v1h-1z" style="fill:#252336;fill-rule:nonzero"/><path d="M184 162h1v1h-1z" style="fill:#7f8181;fill-rule:nonzero"/><path d="M183 162h1v1h-1z" style="fill:#e3e2e3;fill-rule:nonzero"/><path d="M1073 161h1v1h-1z" style="fill:#241a46;fill-rule:nonzero"/><path d="M1072 161h1v1h-1z" style="fill:#ac88e6;fill-rule:nonzero"/><path d="M216 161h1v1h-1z" style="fill:#8f6c9f;fill-rule:nonzero"/><path d="M215 161h1v1h-1z" style="fill:#1e1420;fill-rule:nonzero"/><path d="M207 161h1v1h-1z" style="fill:#4e3d56;fill-rule:nonzero"/><path d="M206 161h1v1h-1z" style="fill:#171127;fill-rule:nonzero"/><path d="M220 160h1v1h-1z" style="fill:#8d3aff;fill-rule:nonzero"/><path d="M1081 150h1v1h-1z" style="fill:#211e21;fill-rule:nonzero"/><path d="M1066 149h1v1h-1z" style="fill:#181732;fill-rule:nonzero"/><path d="M208 149h1v1h-1z" style="fill:#625c6f;fill-rule:nonzero"/><path d="M207 149h1v1h-1z" style="fill:#b3b5b5;fill-rule:nonzero"/><path d="M197 149h1v1h-1z" style="fill:#a1a0a0;fill-rule:nonzero"/><path d="M196 149h1v1h-1z" style="fill:#d8d7d8;fill-rule:nonzero"/><path d="M1061 148h1v1h-1z" style="fill:#d5b5ff;fill-rule:nonzero"/><path d="M1060 148h1v1h-1z" style="fill:#ffd7ff;fill-rule:nonzero"/><path d="M216 148h1v1h-1z" style="fill:#8c7c8c;fill-rule:nonzero"/><path d="M208 148h1v1h-1z" style="fill:#c4c0c4;fill-rule:nonzero"/><path d="M1061 147h1v1h-1z" style="fill:#53486d;fill-rule:nonzero"/><path d="M217 147h1v1h-1z" style="fill:#7d7273;fill-rule:nonzero"/><path d="M216 147h1v1h-1z" style="fill:#322b33;fill-rule:nonzero"/><path d="M1066 135h1v1h-1z" style="fill:#e1e4e5;fill-rule:nonzero"/></svg>