<svg xmlns="http://www.w3.org/2000/svg" xml:space="preserve" style="fill-rule:evenodd;clip-rule:evenodd;stroke-linejoin:round;stroke-miterlimit:2" viewBox="0 0 593 459"><path d="M371 382h512v15h14v13h12v13h14v377h-14v14h-12v13h-14v14H371v-14h-14v-13h-13v-14h-14V423h14v-13h1v-1h12v-12h14zm3 23v11h-12v12h-12v367h12v13h12v12h506v-12h12v-13h12V428h-12v-12h-12v-11z" style="fill:#0ff5ca;fill-rule:nonzero" transform="translate(-330 -382)"/><path d="M428 491h31v23h22v20h20v19h21v17h18v19h20v23h-20v19h-18v18h-21v20h-20v21h-22v23h-31v-24h21v-22h21v-20h20v-19h20v-17h20v-20h-20v-16h-20v-19h-20v-20h-21v-21h-21zm164 198h123v23H592z" style="fill:#0ff3c7;fill-rule:nonzero" transform="translate(-330 -382)"/></svg>