<svg xmlns="http://www.w3.org/2000/svg" xml:space="preserve" style="fill-rule:evenodd;clip-rule:evenodd;stroke-linejoin:round;stroke-miterlimit:2" viewBox="0 0 954 1005"><path d="M546 9h3v1h49v1h1v1h1v1h1v1h2v1h1v3h2v1h1v1h5v1h2v2h4v1h19v-1h2v2h9v1h2v3h2v1h4v1h2v1h12v3-1h4v1h1v1h2v1h1v2h1v1h4v1h1v1h1v2h1v1h3v-1h3v-2h2v2h5v1h5v1h4v1h3v1h1v3h1v1h15v1h6v2h8v1h4v1h2v1h1v4h-1v1h-2v1h-1v2h1v1h3v1h6v-5h1v-2h4v1h5v1h2v1h5v2h5v1h2v1h2v5h2v1h1v1h4v-2h1v-1h1v-2h2v-1h2v1h1v2h3v1h4v1h2v1h2v2h3v1h4v1h1v1h1v3h1v2h1v1h2v3h1v-1h2v1h3v2h1v3h1v1h1v1h3v1h2v2h2v1h1v2h1v3h1v2h1v5h2v7h1v2h1v2h1v1h2v2h1v1h1v2h1v3h2v3h1v4h1v14h-1v9h-2v5h1v4h-2v11h2v21h-2v5h-1v3h-1v4h-1v2h-2v4h-1v3h-1v2h-1v4h-2v2h-1v4h-1v2h-1v8h-2v8h2v5h1v4h1v3h2v2h-1v1h2v2h1v4h1v1h1v3h2v2h1v1h1v3h1v2h1v2h1v-1h1v3h1v1h1v1h1v3h2v1h1v2h1v2h1v2h2v1h1v2h1v2h1v1h1v3h2v1h1v2h1v2h1v1h2v2h1v2h1v2h1v1h1v1h2v3h1v2h1v3h1v2h2v3h1v1h1v2h1v2h1v1h2v1h1v2h1v3h1v1h2v1h1v2h1v2h1v2h1v2h2v1h1v1h1v1h1v3h2v1h1v2h1v2h1v1h2v1h1v1h1v2h1v2h1v1h2v3h1v1h1v1h1v1h2v3h1v1h1v3h1v1h1v1h2v2h1v2h1v2h1v7h2v-3h1v5h1v2h1v4h1v1h2v1h1v4h-1v1h1v1h1v2h3v1h1v2h1v5h-1v1h-1v15h-1v3h-1v1h-2v1l-3 1v1h2v4h-2v3h-1v22h-1v1h-1v1h-1v1h-1v1h-1v3h-1v1h-1v3h-1v2h-2v1h-1v2h-1v1h-5v2h-4v1h-2l-.005 2H911v21h-1v2h1v1h-2v3h-1v4h-1v3h-1v2h-1v2h-2l-1 3h-1v3h-2v1h-1v2h-1v2h-1v1h-1v1h-2v3h-1v2h-1v2h-1v2h-2v1h-1v1h-2v1h-1v1h-1v1h1v1h-2v1h-1v2h-1v2h-1v1h-2v1h-1v1h-1v2h-1v1h-1v1h-2v1h-1v1h-1v2h-1v2h-2v1h-1v2h-1v1h-1v1h-1v1h-2v3h-1v1h-1v1h-1v1h-2v2h-1v1h-1v1h-1v1h-1v2h-2v1h-2v1h-1v1h-2v1h-1v2h-1v1h-1v1h-2v1h-2v2h-1v1h-1v1h-3v1h-2v1h-3v2h-2v1h-3v1h-3v1h-6v2h-16v1h-2v1h-2v1h-1v2h1v2h1v1h1v3h2v2h1v1h1v3h1v2h2v4h1v2h1v3h1v3h1v10h-1v8h1v2h2v1h1v1h1v2h1v3h2v5h1v3h2v1h1v1h2v1h1v2h1v1h1v2h3v1h1v2h1v1h1v1h2v3h1v2h2v1h2v2h1v1h1v1h1v1h2v1h-1v1h1v1h1v2h1v1h-1v3h1v10h1v-3h1v5h2v1h5v2h1v-1h1v3h1v33h-1v1h-1v9h1v6h1v5h1v26h-1v8h-1v11h1v5h1v2h-1v3h-1v7h1v3h1v1h2v5h1v3h1v3h1v2h2v7h1v2h1v2h1v3h1v4h2v2h-1v5h1v-1h1v22h1v1h1v5h-1v1h-1v4h-1v1h-1v1l-1 1v1h27v2h2v1h2v2h1v3h1v1h2v1h-1v2h1v2h1v34h-1v2h-2v1h-3v1h-1v1h-7v-1h-6v-1h-1v-1h-1v-2h-1v-2h-2v-1h-1v-2h-1v-1h-5v-1h-8v1h-2v-1h-1v-4h1v-2h2v-1h-1v-4h-6v9h-1v1h-1v1h-1v2h-4v1h-1v2h-1v1h-1v1h1v2h-2v1h-1v1h-1v1h-4v2h-2v1h-3v-2h-1v-1h-1v-2h-1v-3h-2v-1h-14v-1h-4v1h-4v-1h-1v-5h-1v-1h-1v-1h-5v-2h-1v2h-2v1h-5v1h-2v1h-2v-1h-2v1h-8v1h4v1h-5v1h-1v1h-1v1h-1v1h-1v2h-2v-1h-1v2h-1v1h-1v2h-1v2h-5v1h-4v-1h-18v-2h-3v-1h-2v-1h-1v-1h-3v-1h-1v-2h-1v-1h-1v-1h-2v-1h-11v-2h-2v1h-9v1h-13v1h-3v-1h-3v-1h-3v1h-6v-1h-1v-1h-1v-1h-3v-1h-1v-1h-1v-1h-1v-2h-2v-1h-1v-2h-1v-2h-1v-7h-2v-5h1v-1h-1v-6h2v-17h-2v-13h2v-4h1v-2h1v-3h1v-5h2v-3h2v-1h2v-10h-1v-1h-3v-1h-3v-1h-1v-3h-1v-2h-2v-1h-1v-3h-1v-5h-1v-4h-1v-6h-2v-6h-1v-2h-1v-1h-1v-3h-2v-1h-1v-1h-1v-3h-1v-2h-1v-3h-2v-1h-1v-1h-1v-4h-1v-2h-2v-3h-1v-3h-1v-3h-1v-2h-1v-3h-2v-1h-1v-2h-2v-2h-2v-1h-4v-5h-2v-12h-1v-1h-1v-1h-3v-2h-1v-6h-1v-5h1v-1h-7v1h-4v2h-4v1h-2v1h-2v1h-7v-1h-1v-1h-1v-1h-1v-2h-4v2h-2v1h-4v1h-2v1h-3v1h-1v2h-3v1h-2v1h-1v1h-1v2h-2v1h-1v1h-1v1h-3v1h-2v2h-3v1h-3v1h-11v-1h-12v1h-4v-1h-69v1h-2v1h-1v3h-10v-1h-6v1h-2v1h-2v1h-2v1h-7v-1h-3v-1h-8v-1h-8v1h-9v1h-3v1h-2v2h-1v1h-1v1h-3v1h-2v2h-5v1h-7v-1h-2v1h-2v1h-2v-1h-4v2h-5v-1h-4v1h-6v2h-8v1h-2v1h-2v1h-1v1h-1v2h-2v2h-1v5h1v11h2v2h1v3h1v8h-1v2h-3v1h-1v1h-1v1h-1v2h-4v1h-5v-2h-1v2h-7v1h-3v1h-2v1h-2v2h-1v1h-1v4h1v7h-1v6h-1v1h-1v5h-2v2h-2v1h-1v1h-4v1h-2v1h-3v2h-1v1h-1v1h-2v2h-1v3h1v1h2v3h1v2h1v2h1v5h-1v3h1v7h-1v1h-1v2h-3v1h-9v1h3v4h-1v2h-1v3h-1v2h-2v3h-1v2h-2v4h-1v2h-2v1h-6v1h4v2h-2v1h1v1h-4v2h-2v1h-1v1h-20v2h-2v2h-1v1h-1v1h-1v2h-2v2h-2v-2h-2v-1h-4v1h-1v1h-1v-1h-37v1h36v1h-22v1h-2v-1h-5v1h-1v1h-1v1h-4v2h-2v1h-5v1h-4v-1h-1v1h-3v1h-1v2h-4v1h-9v-2h-3v-1h-1v-1h-3v-1h-1v-1h-1v-3h-1v-1h-1v-1h-25v2h-1v1h-1v2h-3v1h-8v1H89v1h-5v-1h-1v-1h-2v-3h-1v-2h-1v-1h-4v1h-2v-1h-5v1h-6v-1H46v3h-4v1h-1v2h-5v-1h-3v1h-2v-1h-1v-3h-1v-15h-1v15h-1v-21h1v2h1v-8h1v-7h1v-3h4v2h1v1h1v-1h1v-3h1v-2h1v-3h1v-2h1v-1h1v-2h2v-3h1v-3h1v-1h1v-1h2v-3h1v-3h1v-3h1v-2h1v-2h1v-1h1v-3h1v-1h1v-3h1v-2h2v-2h1v-1h1v4h2v-3h-1v-3h2v-2h1v-1h2v-1h3v-1h1v-5h1v-3h1v2h4v-1h2v-1h-1v-1h1v-1h3v-1h1v-2h1v-1h2v-1h1v-1h6v-1h2v-1h3v1h-1v1h4v-1h-2v-1h4v-2h1v2h1v-1h1v1h2v-25h-1v-4h1v-2h1v-1h1v-3h1v-5h2v-2h1v-1h1v-2h1v-2h1v-1h2v-2h1v-1h1v-1h3v-6h1v-3h1v-2h1v-1h4v-2h1v-1h1v-2h2v-1h1v-2h1v-1h2v-1h4v-1h1v-2h2v-2h1v-1h1v-1h1v1h2v-1h1v-2h1v-1h1v-1h1v-4h2v-3h-2v-9h-1v-6h-1v-8h-1v-6h-2v-8h2v-8h1v-3h1v-12h-2v-2h-2v-1h-2v-1h-1v-1h-1v-3h-2v-1h-1v-2h-1v-2h-1v-1h-2v-2h-1v-4h-1v-4h-1v-3h-1v-3h-2v-1h-1v-1h-1v-3h-1v-2h-1v-1h-1v-2h1v-1h-2v-6h-1v-9h-1v-3h-1v-3h-2v-2h-1v-1h-1v-2h-1v-2h-1v-1h-2v-4h-1v-2h1v-6h-1v1h-4v-2h-1v-1h-2v-1h-2v-1h-1v-1h-1v-5h-1v-3h-2v-1h1v-3h-1v1h-1v-3h-1v-2h-2v-2h-2v-2h-1v-4h-1v-1h-1v-4h-2v-2h-1v-1h-1v-1h-1v-4h-1v-1h-2v-3h-1v-7h-1v-1h-1v-3h-1v-2h-1v-1h-1v1h-1v-2h-1v-2h-1v-1h-2v-1h-1v-2h-2v-1h-2v-1h-1v-1h-1v-2h-1v-1h-2v-1h-1v-1h-1v-1h-1v-3h-1v-1h-2v-4h-1v-5h-1v-5h-1v-4h-1v-1h-1v-2h1v-2h-2v-3h-1v-4h-1v-2h-1v-4h-2v-2h1v-1h-2v-4h-1v-2h-1v-4h-2v-2h1v-2h-2v-3h-1v-9h-1v-10h-1v-2h-2v-3h-1v-2h-1v-3h-1v-1h-2v-2h-1v-3h-1v-2h-1v-3h-1v-1h-2v-2h-1v-3h-1v-3h-1v-2h-2v-2h-1v-3h-1v-1h-1v-2h-1v-3h-2v-3h-1v-5h-1v-9h-1v-1h-2v-4H9v-6H8v-4H7v-2H6v-6H4v-9H3v-50h1v-6h2v-4h1v-2h1v-1h2v-6h1v-21h-1v-2h1v-3h1l1-3h1v-2h1v-3h2v-2h1v-1h2v-1h1v1h2v-5h1v-1h3v-3h2v-2h1v-1h1v-1h10v-1h1v-1h1v-2h2v-3h1v-1h2v-1h3v-1h1v-2h2v-1h3v-1h1v-5h1v-1h2v-1h1v-2h1v-1h1v-1h3v-1h5v1h1v1h1v-4h5v-1h2v-1h2v-4h2v-1h6v1h11v-1h1v-6h3v-1h4v-2h1v-1h2v-1h3v-1h1v-3h1v-1h1v-1h2v-1h1v-3h1v-1h1v-1h2v-1h1v-2h1v-1h1v-1h1v-1h2v-2h1v-1h1v-1h1v-1h2v-1h2v-2h1v-1h1v-1h2v-6h1v-3h1v-2h1v-6h2v-4h1v-2h1v-3h1v-4h1v-2h2v-2h1v-3h1v-2h1v-9h2v-7h1v-3h1v-2h1v-1h1v-3h2v-1h1v-1h1v-5h1v-3h2v-1h1v-1h1v-1h1v-2h2v-1h2v-1h1v-1h1v-1h2v-3h1v-1h2v-3h2v-1h1v-1h1v-1h1v-1h1v-2h2v-1h1v-1h1v-1h1v-2h2v-2h1v-2h1v-2h1v-2h1v-1h2v-2h1v-1h2v-1h2v-1h1v-1h1v-2h2v-1h2v-1h1v-1h2v-2h3v-1h5v-1h6v-1h2v-2h2v-1h1v-1h7v1h1v1h2v-1h1v-2h1v-3h1v-1h1v-1h2v-1h3v-2h3v-1h2v-1h4v-1h2v-1h10v-1h1v2h2v1h2v-5h1v-2h2v-2h3v-1h5v-1h9v-1h1v-1h1v-2h5v2h4v-2h1v-1h16v-1h8v1h3v-2h12v1h-4v1h8v-1h2v-1h1v-2h3v-1h2v-1h9v-5h1v-1h4v-1h15v-2h2v-1h2v-1h2v-1h6v-1h5v1h19v1h8v1h9v1h11v2h4v1h4v-1h6v-2h2v-1h3v-1h3v-1h3v-2h2v-1h3v-1h2v-1h4v-1h6v1h1v-1h3v-2h1v-1h1v-1h1v-1h2v-2h9v-1h3v-1h5v-2h2v-2h4v-1h1v-1h6v-1h2v1h1l1-1h1v-2h3zm52 2v1zm85 30v1zm1 2v1zm167 738h-1zm-563 26v1h43v-1zm28 36v7h1v-7zm-63 5v2h1v-2zm-2 1v1h1v-1zm75 8v7h1v-7zm-15 1v6h1v-6zm-205 26v1h3v-1zm-22 9v1h12v-1zm190 4v2h1v-2zm19 2v2h1v-2zm-19 1v2h1v-2zm5 5v1h10v-1zm-210 5v1h3v-1zm-15 13v1h1v-1zm220 20v1h1v-1zm-9 6v6h1v-6zm-228 7v3h1v-3zm180 3v13h1v-13zm11 2v9h1v-9zm33 0v4h1v-4zm590 22h-1zm-620-7v1h18v-1zm-135 8v6h1v-6zm15 1v1h17v1h10v-1h-7v-1zm-70 1v1h32v-1zm67 0v1h1v-1zm737 0v1h2v-1zm-677 7v1h2v-1z" style="fill-rule:nonzero"/><path d="M305 342h197v47h9v41h9v46h9v27h15v-17h1v-1h8v-9h8v-24h10v-16h9v-15h8v-14h9v-17h9v-24h10v-13h6v-11h178v1h1v12h-2v1h-1v29h-8v4h-2v32h-5v9h-10v1h-7v29h-19v3h1v2h1v2h-16v9h-7v9h-9v36h1v8h7v8h-7v8h-1v43h9v11h7v25h-7v44h7v10h8v8h3v25h-9v1h-1v38H561v-22h10v-42h1v-8h8v-10h7v-33h9v-37h10v-53h-9v11h-9v20h-8v23h-9v16h-10v20h-8v11h-8v13h-9v19h-8v17h-8v17h-9v16h-9v15h-7v7h-39v-29h-9v-43h-10v-54h-8v-36h-8v-12h-1v-31h-14v31h-8v49h-9v53h9v43h-9v29H230v-38h9v-26h1v-8h10v-10h8v-22h9v-47h10v-23h10v-11h9v-19h3v-24h-1v-1h-2v-10h9v-8h1v-27h-6v-9h-3v-25h6v1h2v-7h-7v-6h-10v-23h7v-1h1v-40h9z" style="fill:#fe000d;fill-rule:nonzero"/><path d="M545 14h52v7h4v1h3v5h32v1h1v9h35v9h12v17h33v8h1v1h38v7h35v9h23v11h8v10h11v56h-1v1h-10v36h-8v18h-17v-9h-15v-8h-16v8h-13v9h-27v-9h-17v-8h-25v-11h-17v-3h-27v-9h-25v-6h-18v-8h-10v-10h-7v-10h7v-10h-7v1h-9v9h-34v6h7v4h17v10h10v36h9v18h8v18h9v8h8v7h1v8h17v9h26v9h26v8h65v-8h8v-8h5v-10h3v-8h10v26h-1v1h-1v7h-8v10h-8v9h-15v10h-24v4h-43v-4h-9v-1h-24v-9h-45v-9h-17v-9h-10v-1h-8v-8h-9v-9h-16v-17h-8v-7h-9v-17h-8v24h7v8h2v18h8v17h-18v-9h-13v-8h-5v-8h-7v16h7v19h-16v-9h-10v-10h-10v-8h-10v8h1v10h9v19h-28v-9h-42v9h-16v9h-1v1h-65v16h-9v34h-10v31h-9v13h-9v-30h8v-24h10v-23h-6v7h-3v6h-9v10h-9v-24h-9v34h-11v-25h-8v-9h-6v14h5v34h-7v-14h-7v-10h-1v-1h-6v-9h-9v-14h-9v-8h-10v-8h-16v7h9v9h8v14h9v19h8v15h9v17h7v13h7v10h37v6h9v7h9v9h8v9h2v15h8v18h-9v-9h-9v-9h-8v10h6v16h-7v19h3v-3h1v-7h14v35h-6v10h-21v-19h-9v8h-11v11h-9v10h20v22h-11v10h-31v-10h-7v-11h-1v-8h-1v-1h-17v-3h-8v-9h-10v-11h-8v-9h-8v-7h-1v-19h-1v1H98v-9H80v-8h-5v-9h14v-10H51v-7h-1v-1h-1v-1h-9v-6h-9v-8h36v-16H40v-6H23v-10h-8v-13h34v-10h8v-1h-8v-7H32v-4h-1v-1h-8v-8h-8v-20h16v-6h-8v-8h-8v-1h-1v-33h8v-1h4v-1h1v-9h4v-10h27v-8h3v-8h16v-2h1v-8h20v-7h1v-1h21v-7h70v7h26v8h25v-8h-5v-1h-1v-5h-1v-1h-4v-8h20v-9h74v9h21v8h8v7h12v1h1v7h7v-23h-9v-8h-4v-9h4v-10h8v-9h5v-11h1v-1h1v-1h9v-12h9v-1h1v-2h3v-8h13v-10h-16v10h-18v8h-7v7h-12v10h-8v12h-9v8h-19v-8h9v-14h8v-11h3v-12h8v-10h8v-9h12v-10h6v-1h1v-7h9v-7h9v-6h8v-7h14V99h18V88h20v-9h10v-7h9v-9h7v-7h9V46h12v-9h15v-9h1v-1h7v-5h16v-1h1z" style="fill:#ab5e29;fill-rule:nonzero"/><path d="M219 695h3v33h-7v22h-2v22h193v-22h8v-47h6v9h9v39h8v21h1v1h72v-14h4v-8h6v-15h8v-15h8v-9h8v38h-8v22h1v1h34v9h-10v6h-11v8h-1v1h-22v5h-1v1h-6v2h-1v1h-71v-9h-18v-1h-1v-8h-15v8h-25v-8h-11v-6h-34v-8h-20v8h10v7h11v8h8v9h8v16h-7v-1h-1v-7h-19v-8h-57v9h10v7h9v9h9v1h1v8h8v16h-18v-10h-46v11h11v8h1v1h13v1h1v11h5v10h9v15h-13v-8h-55v9h19v9h21v9h5v1h8v10h2v8h-18v8h3v7h-2v1h-1v10h-9v7h-1v2h-18v1h17v1h-18v2h-2v2h-1v1h-1v1h-1v2h-2v2h-2v-2h-2v-1h-4v1h-1v1h-1v-1h-37v1h36v1h-22v1h-2v-1h-5v1h-1v1h-1v1h-4v2h-2v1h-5v1h-4v-1h-1v1h-3v1h-1v2h-4v1h-9v-2h-3v-1h-1v-1h-3v-1h-1v-1h-1v-3h-1v-1h-1v-1h-25v2h-1v1h-1v2h-3v1h-8v1H89v1h-5v-1h-1v-1h-2v-3h-1v-2h-1v-1h-4v1h-2v-1h-5v1h-6v-1H46v3h-4v1h-1v2h-5v-1h-3v1h-2v-1h-1v-3h-1v-15h-1v15h-1v-21h1v2h1v-8h1v-7h1v-3h4v2h1v1h1v-1h1v-3h1v-2h1v-3h1v-2h1v-1h1v-2h2v-3h1v-3h1v-1h1v-1h2v-3h1v-3h1v-3h1v-2h1v-2h1v-1h1v-3h1v-1h1v-3h1v-2h2v-2h1v-1h1v4h2v-3h-1v-3h2v-2h1v-1h2v-1h3v-1h1v-5h1v-3h1v2h4v-1h2v-1h-1v-1h1v-1h3v-1h1v-2h1v-1h2v-1h1v-1h6v-1h2v-1h3v1h-1v1h4v-1h-2v-1h4v-2h1v2h1v-1h1v1h2v-1h1v5h9v-9h-9v-22h9v-9h9v-16h10v-9h8v-7h17v7h17v-7h-8v-18h-7v-24h6v-1h1v-22h9v-14h9v-8h8v-7h7v-1h1v-9h1v-8h10v-1h1zM106 884v1h3v-1zm-22 9v1h12v-1zm-15 17v1h3v-1zm-15 13v1h1v-1zm-17 33v3h1v-3zm180 3v13h1v-13zm11 2v9h1v-9zM96 984v6h1v-6zm15 1v1h17v1h10v-1h-7v-1zm-70 1v1h32v-1zm67 0v1h1v-1zm60 7v1h2v-1z" style="fill:#aa5d29;fill-rule:nonzero"/><path d="M546 9h3v1h49v1h-53v1h1v1h-1v8h-1v1h-16v5h-7v1h-1v9h-15v9h-12v10h-9v7h-7v9h-9v7h-10v9h-20v11h-18v10h-14v7h-8v6h-9v7h-9v7h-1v1h-6v10h-12v9h-8v10h-8v12h-3v11h-8v14h-9v8h19v-8h9v-12h8v-10h12v-7h7v-8h18v-10h16v10h-13v8h-3v2h-1v1h-9v12h-9v1h-1v1h-1v11h-5v9h-8v10h-4v9h4v8h9v23h-7v-7h-1v-1h-12v-7h-8v-8h-21v-9h-74v9h-20v8h4v1h1v5h1v1h5v8h-25v-8h-26v-7h-70v7H99v1h-1v7H78v8h-1v2H61v8h-3v8H31v10h-4v9h-1v1h-4v1h-9v-4h1v-2h1v-3h2v-2h1v-1h2v-1h1v1h2v-5h1v-1h3v-3h2v-2h1v-1h1v-1h10v-1h1v-1h1v-2h2v-3h1v-1h2v-1h3v-1h1v-2h2v-1h3v-1h1v-5h1v-1h2v-1h1v-2h1v-1h1v-1h3v-1h5v1h1v1h1v-4h5v-1h2v-1h2v-4h2v-1h6v1h11v-1h1v-6h3v-1h4v-2h1v-1h2v-1h3v-1h1v-3h1v-1h1v-1h2v-1h1v-3h1v-1h1v-1h2v-1h1v-2h1v-1h1v-1h1v-1h2v-2h1v-1h1v-1h1v-1h2v-1h2v-2h1v-1h1v-1h2v-6h1v-3h1v-2h1v-6h2v-4h1v-2h1v-3h1v-4h1v-2h2v-2h1v-3h1v-2h1v-9h2v-7h1v-3h1v-2h1v-1h1v-3h2v-1h1v-1h1v-5h1v-3h2v-1h1v-1h1v-1h1v-2h2v-1h2v-1h1v-1h1v-1h2v-3h1v-1h2v-3h2v-1h1v-1h1v-1h1v-1h1v-2h2v-1h1v-1h1v-1h1v-2h2v-2h1v-2h1v-2h1v-2h1v-1h2v-2h1v-1h2v-1h2v-1h1v-1h1v-2h2v-1h2v-1h1v-1h2v-2h3v-1h5v-1h6v-1h2v-2h2v-1h1v-1h7v1h1v1h2v-1h1v-2h1v-3h1v-1h1v-1h2v-1h3v-2h3v-1h2v-1h4v-1h2v-1h10v-1h1v2h2v1h2v-5h1v-2h2v-2h3v-1h5v-1h9v-1h1v-1h1v-2h5v2h4v-2h1v-1h16v-1h8v1h3v-2h12v1h-4v1h8v-1h2v-1h1v-2h3v-1h2v-1h9v-5h1v-1h4v-1h15v-2h2v-1h2v-1h2v-1h6v-1h5v1h19v1h8v1h9v1h11v2h4v1h4v-1h6v-2h2v-1h3v-1h3v-1h3v-2h2v-1h3v-1h2v-1h4v-1h6v1h1v-1h3v-2h1v-1h1v-1h1v-1h2v-2h9v-1h3v-1h5v-2h2v-2h4v-1h1v-1h6v-1h2v1h1v5h-1v1h1v1h1v-1h1v-1h-1v-6h1v-2h3zm-44 32v1h1v-1zm-112 2v1h30v-1zm49 0v1h5v-1zm6 0v1h1v-1zm11 0v1h11v-1zm41 0v1h4v-1zm5 0v1h1v-1zM315 53v1h13v-1zm23 0v1h21v-1zm41 0v1h2v-1zm-73 7v1h4v-1zm-32 13v1h1v-1zm-9 8v9h1v-9zm-21 16v1h4v-1zm19 0v1h2v-1zm-35 29v1h1v-1zm-32 23v1h1v-1zm0 4v1h1v-1zm4 15v1h1v-1zm-48 36v6h1v-6zm-27 40v1h3v-1zm-24 7v1h8v-1zm11 0v1h3v-1zm5 0v1h1v-1zm-54 17v1h11v-1zm-31 16v1h7v-1zm-4 4v1h1v-1zm-14 17v1h7v-1z" style="fill-rule:nonzero"/><path d="M756 658h9v9h1v1h8v10h8v8h15v10h8v7h8v1h1v8h8v9h9v7h6v1h1v22h10v31h-9v5h-1v1h-6v9h7v9h10v49h-1v1h-10v21h-1v1h-15v5h-1v1h-6v1h-1v3h25v8h18v8h8v28h-1v1h-7v8h-10v-7h-8v-1h-34v8h-22v-8h-27v9h-16v6h-7v1h-7v32h-50v-2h-1v-12h-8v-10h9v-9h8v-7h16v-8h-25v8h-8v-18h8v-1h1v-8h6v-1h2v-8h1v-1h23v-1h1v-1h3v-2h1v-2h3v-1h1v-2h8v-8h9v-1h5v-6h-1v-2h-54v1h-1v1h-1v1h-1v1h-5v1h-1v4h-8v-9h9v-11h8v-10h1v-1h8v-9h24v-7h8v-18h-41v8h-17v-7h3v-1h3v-7h3v-1h3v-8h11v-7h1v-1h1v-1h8v-1h3v-1h1v-4h1v-1h13v-10h-1v-2h1v-1h1v-3h-2v-1h32v-23h6v-14h1v-8h9v-60h-9z" style="fill:#5d3114;fill-rule:nonzero"/><path d="M798 287h8v10h16v9h15v1h1v9h10v10h9v8h8v8h8v14h11v2h-1v3h-1v5h8v10h9v14h8v8h9v9h7v8h9v15h8v21h-1v1h-7v32h-1v1h-8v-19h-1v-5h-5v15h-1v26h-9v26h-8v17h-9v10h-1v1h-6v9h-2v-1h-1v-8h1v-11h-8v21h-8v10h-7v1h-1v11h-9v-12h6v-10h-6v-10h-6v9h-1v1h-2v11h-7v21h-10v8h-8v9h-16v1h-1v7h-31v-8h-11v-9h-7v-17h17v10h9v-11h-8v-22h-10v10h-8v12h-9v-1h-5v-11h-8v-20h7v-10h6v-10h8v1h1v8h8v-9h-3v-15h2v-10h-7v17h-13v-7h-2v-27h7v-9h15v-9h28v9h31v9h18v-27h-9v-1h-1v-11h-1v-2h-7v-16h8v-7h10v-9h7v-1h9v-6h16v5h7v-1h2v-12h-9v-9h-42v1h-8v-42h8v-30h-48v-10h8v-9h8v-1h1v-9h7z" style="fill:#af602a;fill-rule:nonzero"/><path d="M397 521h33v35h10v51h8v39h1v8h9v49h10v33h16v-8h9v-16h10v-17h8v-17h9v-20h8v-12h8v-11h8v-20h9v-16h8v-23h10v-20h9v-20h7v-15h36v35h-6v60h-10v38h-1v24h-9v8h-9v9h-1v8h-4v33h134v-24h9v-16h1v-10h-10v-8h-8v-43h8v-7h1v-29h15v25h-7v44h7v10h8v8h3v25h-9v1h-1v38H561v-22h10v-42h1v-8h8v-10h7v-33h9v-37h10v-53h-9v11h-9v20h-8v23h-9v16h-10v20h-8v11h-8v13h-9v19h-8v17h-8v17h-9v16h-9v15h-7v7h-39v-29h-9v-43h-10v-54h-8v-36h-8v-12h-1v-31h-14v31h-8v49h-9v53h9v43h-9v29H230v-38h9v-26h1v-8h10v-10h8v-22h9v-47h10v-23h10v48h-9v44h-11v18h-8v9h-2v17h-7v24h126v-33h10v-17h-8v-8h-5v-24h3v-8h1v-31h9v-59h11z" style="fill:#fefefe;fill-rule:nonzero"/><path d="M219 695h3v33h-7v22h-2v22h193v-22h8v-47h6v9h9v39h8v21h1v1h72v-14h4v-8h6v-15h8v-15h8v-9h8v38h-8v22h1v1h34v9h-10v6h-11v8h-1v1h-22v5h-1v1h-6v2h-1v1h-71v-9h-18v-1h-1v-8h-15v8h-25v-8h-11v-6h-34v-8h-20v8h10v7h11v8h8v9h8v16h-7v-1h-1v-7h-19v-8h-57v9h10v7h9v9h9v1h1v8h8v16h-18v-10h-19v-7h-47v1h-1v6h-1v-8h-1v-3h-1v-2h-3v-1h-2v-1h-2v-1h1v-1h-2v-1h-3v2h-1v-1h-1v-2h1v-1h1v-1h-3v4h-1v-4h-1v3h-1v-3h-1v1h-5v1h-1v-2h1v-1h1v-2h-1v-1h-1v-1h-1v1h-1v-3h-2v-2h-1v3h1v2h1v1h2v1h-1v1h-1v-1h-2v1h-1v1h3v3h-1v1h-1v-2h-2v-3h-1v-1h-2v-3h-2v1h-1v2h-1v-2h-2v1h-3v1h-1v1h-18v-1h17v-8h-8v-18h-7v-24h6v-1h1v-22h9v-14h9v-8h8v-7h7v-1h1v-9h1v-8h10v-1h1z" style="fill:#ad602a;fill-rule:nonzero"/><path d="M389 46h79v10h-9v7h-1v1h-9v-1h-20v9h-23v7h-10v9h-17v11h-8v10h-10v13h-8v7h-9v17h-10v10h-1v10h-9v13h-9v14h-1v9h-8v9h-19v-8h9v-9h-1v-4h-8v12h-10v-12h-9v21h-9v9h-9v-8h4v-1h1v-8h3v-1h1v-12h8v-13h-7v3h-2v10h-3v3h-1v2h-2v3h-1v3h-1v-12h-10v4h-3v1h-2v9h-5v8h10v-9h9v9h-8v9h-11v-8h-8v17h-8v8h-1v-16h-3v3h-1v5h-1v-7h-1v7h-9v-8h-8v8h-9v-9h-17v-1h-9v-16h1v-1h9v-21h8v8h18v-8h8v-4h7v-1h1v-10h7v-10h8v-27h8v-20h11V99h8v1h1v22h8v-1h1V99h8v23h20v-13h9V99h4V88h5V63h9v-7h12v-2h2v-2h1v-1h8v1h1v2h19v1h-1v1h5v15h-8v8h9v-7h10v-1h1V56h16z" style="fill:#020000;fill-rule:nonzero"/><path d="M305 342h197v47h9v41h9v46h9v27h15v-17h1v-1h8v-9h8v-24h10v-16h9v-15h8v-14h9v-17h9v-24h10v-13h6v-11h178v1h1v12h-2v1h-1v29h-8v4h-2v32h-5v9h-10v1h-7v29h-19v-30h8v-10h11v-7h8v-47h9v-10H633v10h-10v18h-6v15h-10v8h-1v13h-9v16h-9v16h-8v15h-8v9h-1v9h-10v18h-9v18h-39v-45h-10v-46h-10v-45h-9v-29H315v29h-9v36h9v39h-9v15h-6v-8h-3v-25h6v1h2v-7h-7v-6h-10v-23h7v-1h1v-40h9z" style="fill:#fefefe;fill-rule:nonzero"/><path d="M105 881h1v2h1v-1h1v1h2v-1h1v5H98v8H83v8h-1v1h-7v9h-8v9h-9v11h23v1h1v7h7v7h9v-7h7v-8h42v-11h8v-1h10v12h-2v1h-1v14h3v-6h9v-1h7v-8h32v8h9v7h8v26h19l.073 4H230v2h-2v2h-1v1h-1v1h-1v2h-2v2h-2v-2h-2v-1h-4v1h-1v1h-1v-1l-1 1v1h-22v1h-2v-1h-5v1h-1v1h-1v1h-4v2h-2v1h-5v1h-4v-1h-1v1h-3v1h-1v2h-4v1h-9v-2h-3v-1h-1v-1h-3v-1h-1v-1h-1v-3h-1v-1h-1v-1h-25v2h-1v1h-1v2h-3v1h-8v1H89v1h-5v-1h-1v-1h-2v-3h-1v-2h-1v-1h-4v1h-2v-1h-5v1h-6v-1H46v3h-4v1h-1v2h-5v-1h-3v1h-2v-1h-1v-3h-3v-21h1v2h1v-8h1v-7h1v-3h4v2h1v1h1v-1h1v-3h1v-2h1v-3h1v-2h1v-1h1v-2h2v-3h1v-3h1v-1h1v-1h2v-3h1v-3h1v-3h1v-2l1-2h1v-1h1v-3h1v-1h1v-3h1v-2h2v-2h1v-1h1v4h2v-3h-1v-3h2v-2h1v-1h2v-1h3v-1h1v-5h1v-3h1v2h4v-1h2v-1h-1v-1h1v-1h3v-1h1v-2h1v-1h2v-1h1v-1h6v-1h2v-1h3v1h-1v1h4v-1h-2v-1h4zm-68 75h1z" style="fill-rule:nonzero"/><path d="M212 825h3v1h-1v1h-1v2h1v1h1v-2h3v1h2v1h-1v1h2v1h2v1h3v2h1v3h1v8h1v-6h1v-1h47v7h-27v11h11v8h1v1h13v1h1v11h5v10h9v15h-13v-8h-55v9h19v9h21v9h5v1h8v10h2v8h-18v8h3v7h-2v1h-1v10h-9v7h-20v-26h-8v-7h-9v-8h-32v8h-7v1h-9v6h-3v-14h1v-1h2v-12h-10v-9h7v-1h-5v-2h2v-1h-2v-2h-1v-1h-1v-1h-1v-1h-2v-5h-1v-1h-1v-1h2v1h1v-2h-1v-2h1v-1h1v3h1v1h1v1h3v3h2v-3h4v-1h1v-1h1v-1h1v1h2v-1h3v-2h1v1h1v1h1v-2h-1v-2h1v-1h3v-3h2v1h2v1h-1v1h1v1h5v-1h1v-1h3v1h-2v1h-1v1h2v1h-1v1h-1v3h-1v-1h-1v2h-1v1h-1v1h1v1h3v-1h-1v-1h1v-1h3v1h3v-1h1v1h2v-1h3v1h1v-3h5v2h2v-1h1v-1h-1v-1h1v-2h4v-3h1v-1h-1v-1h-1v1h-1v-2h-2v-1h-3v-7h3v2h-1v1h1v1h1v-3h1v-1h-1v-2h3v1h1v1h-1v1h-1v2h1v-1h1v-1h1v-1h1v-1h1v-1h1v-1h2v-1h1v-4h1v-1h1v-2h-1v-1h-1v-1h2v1h1v-1h5v-1h1v-1h-1v-3h1v-4h-2v-1h1v-1h-1v-1h-3v1h-1v1h-1v2h1v1h-1v1h-1v1h-1v3h-1v-2h-2v-1h1v-2h-1v-1h-2v2h-2v1h-1v1h-1v1h-2v1h-1v-2h-1v-2h1v-2h-1v-2h-2v3h-5v-3h1v-1h1v-1h-3v-2h-1v-1h-1v-1h-2v-2h-2v-1h4v-2h1v-2h1v-1h3v-2h-1v1h-3v-4h4v-5h4v-1h1v-1h3zm7 31v1h1v-1zm-34 44v1h1v-1zm6-10h1v1h-1z" style="fill:#ad5f2a;fill-rule:nonzero"/><path d="M324 774h20v8h34v6h11v8h25v-8h15v8h1v1h18v9h69l-1 3h-65v1h-2v1h-1v3h-10v-1h-6v1h-2v1h-2v1h-2v1h-7v-1h-3v-1h-8v-1h-8v1h-9v1h-3v1h-2v2h-1v1h-1v1h-3v1h-2v2h-5v1h-7v-1h-2v1h-2v1h-2v-1h-4v2h-5v-1h-4v1h-6v2h-8v1h-2v1h-2v1h-1v1h-1v2h-2v2h-1v5h1v11h2v2h1v3h1v8h-1v2h-3v1h-1v1h-1v1h-1v2h-4v1h-13v1h-3v1h-2v1h-2v2h-1v1h-1v4h1v7h-1v6h-1v1h-1v5h-2v2h-2v1h-1v1h-4v1h-2v1h-3v2h-1v1h-1v1h-2v2h-1v3h1v1h2v3h1v2h1v2h1v5h-1v3h1v7h-1v1h-1v2h-3v1h-9v1h3v4h-1v2h-1v3h-1v2h-2v3h-1v2h-2v4h-1v2h-2v1l-2 3h-2v1h1v1h-4v2h-2v1h-1v1h-2v-1h1v-3h1v-7h9v-10h1v-1h2v-7h-3v-8h18v-8h-2v-10h-8v-1h-5v-9h-21v-9h-19v-9h55v8h13v-15h-9v-10h-5l-14-12v-1h-1v-8h-11v-11h46v10h18v-16h-8v-8h-1v-1h-9v-9h-9v-7h-10v-9h57v8h19v7h1v1h7v-16h-8v-9h-8v-8h-11v-7h-10zm-49 170h-1z" style="fill-rule:nonzero"/><path d="M756 658h9v9h1v1h8v10h8v8h15v10h8v7h8v1h1v8h8v9h9v7h6v1h1v22h10v31h-9v5h-1v1h-6v9h7v9h10v49h-1v1h-10v21h-16v-2h4v-3h1v-1h2v-1h2v-23h7v-25h1v-7h-1v-3h-3v1h-3v-1h-2v-1h-2v-1h-4v-1h-18v-1h-2v-1h-2v-11h2v-3h1v-1h1v-1h1v-1h1v-1h1v-2h1v-1h-1v-1h1v-3h1v-1h1v-2h5v-7h-1v1h-1v-1h-2v-3h-3v1h-5v-2h-1v-1h-1v-1h-1v-1h1v-1h-4v-3h-1v-2h-1v-1h-1v1h-3v-2h-1v-1h-2v-1h1v-1h-3v1h1v2h-3v2h-2v-1h-1v1h-3v1h-2v1h-1v1h-1v2h-1v1h-2v2h-1v-1h-1v1h-1v2h-2v1h-1v1h-1v-1h-2v-1h1v-3h-1v-1h-1v-8h-3v2h-1v15h-2v-3h-1v-1h-2v2h-1v1h-1v1h-2v-19h1v-1h1v-2h1v-1h2v-15h1v-8h9v-60h-9z" style="fill:#6b3a18;fill-rule:nonzero"/><path d="M414 703h6v9h9v39h8v21h1v1h72v-14h4v-8h6v-15h8v-15h8v-9h8v38h-8v22h1v1h34v9h-10v6h-11v8h-1v1h-22v5h-1v1h-6v2h-1v1h-71v-9h-18v-1h-1v-8h-15v8h-25v-8h-11v-6h-16v-9h44v-23h8z" style="fill:#ab5d28;fill-rule:nonzero"/><path d="M544 316h28v10h34v24h-9v16h-9v10h-1v8h-6v5h-1v9h-8v9h-1v13h-10v16h-8v16h-16v-32h-1v-13h-7v-31h-9v-50h24z" style="fill:#ac5e29;fill-rule:nonzero"/><path d="M121 313h1v3h2v2h1v2h-1v1h1v2h1v1h3v1h1v-2h2v-1h1v-3h-2v-3h8v10h16v8h10v8h8v14h9v19h8v15h9v17h7v13h7v10h37v6h9v7h9v9h7v8h-8v-7h-13v-1h-4v-9h-10v-6h-29v1h18v1h-22v2h-1v-1h-1v1h-1v1h4v-1h1v2h2v5h-2v1h-7v1h-1v1h2v3h-1v-1h-3v-1h1v-1h-5v2h-3v-2h-1v-2h-1v-2h1v1h2v-2h-3v-1h-1v-2h-1v1h-1v-2h-2v-2h-1v-1h-2v-1h-2v1h-4v-1h-1v-1h-1v-1h-1v-2h-1v-1h1v-1h-2v2h-2v-1h-2v-1h1v-3h-4v-1h-1v-1h-1v-3h-1v-2h-1v-3h-1v1h-1v-2h1v-1h-2v-1h-1v-3h-1v-1h-1v-2h-2v1h-1v-2h-1v-1h2v-1h-1v-1h1v-2h1v-3h1v-1h-2v-1h2v-4h-1v-1h-2v-1h-1v-2h-2v-2h1v-1h1v-2h-1v1h-1v-2h1v-1h-3v-4h-1v-10h-3v-4h-1v-1h-1v-1h1v-2h-1v-1h1v-1h2v-3h-4v1h-1v-3h1v-1h-1v-1h-1v-1h1v-1h1v-1h2v-1h1v-2h1v-1h2v4h1v-1h1v-1h1v1h2v-1h1v-1h1v-3h-1v2h-4v1h-1v-3h-2v1h-2v-1h-3v-1h4v-2h1v-3h-3v-1h-1v-1h-3v1h-1v1h-1v1h-1v-1h-3v-1h-2v1h-1v-1h-1v1h-3v1h5v1h-5v1h-1v-6h-2v-2h-2v-1h-2v1h-4v-3h1v-1h-2v-1h4v-4h-1v-1h1v-1h1v-1h2v-1h1v-1h-1v-1h2v-1h-1v-1h1z" style="fill:#a85d29;fill-rule:nonzero"/><path d="M389 46h79v10h-9v7h-1v1h-9v-1h-20v9h-23v7h-10v9h-17v11h-8v10h-10v13h-8v7h-9v17h-10v10h-1v10h-9v13h-9v14h-1v9h-8v9h-19v-8h9v-14h3v-11h6v-12h5v-6h1v-4h4v-9h5v-1h1v-9h3v-8h6v-7h3v-7h1v-6h9v-9h1v-1h1v-1h4v-9h1v-1h3v-9h9v-7h10v-1h1V56h16z" style="fill:#feb900;fill-rule:nonzero"/><path d="M360 229h5v8h9v25h-1v2h-2v1h-2v-1h-3v1h2v1h-3v-1h-1v-1h-1v-1h-6v1h-5v1h2v2h-1v1h2v1h-1v1h-1v-1h-1v1h-1v-1h-1v2h2v1h-2v1h1v1h1v1h1v-1h4v1h-3v2h-1v2h-1v1h1v4h-1v1h-1v2h-1v1h-2v-1h1v-2h-1v1h-1v1h-1v-4h-1v-1h-2v-3h-3v1h-3v-1h-4v1h2v1h-2v1h-2v-1h1v-2h-7v2h-1v5h-1v3h-3v5h-4v-1h-1v2h-1v2h-1v-1h-3v1h-1v2h-4v5h-1v-1h-1v-2h-1v3h1v2h-1v1h-1v1h1v4h1v2h-1v-1h-1v-1h-1v-6h-1v1h-1v1h-5v1h1v2h-2v1h1v1h2v-1h1v1h2v1h3v2h3v1h-1v1h-1v1h2v1h-1v2h-1v1h37v-1h1v-1h1v-1h5v-1h2v1h1v-1h2v1h2v-1h6v-1h1v2h1v-4h1v9h-1v1h-65v16h-9v34h-10v31h-9v13h-9v-30h8v-24h10v-23h-6v-1h6v-10h6v-2h-1v-3h-1v-1h-1v-1h-1v-2h-3v-1h1v-1h3v-1h-2v-1h-1v1h-1v1h-1v-5h-1v-1h2v1h4v-1h-1v-2h2v-2h1v-2h-1v-1h-1v-2h1v-1h1v1h1v1h-1v1h2v-1h1v-1h-1v-1h1v-3h1v1h1v1h3v-1h1v-2h4v-1h-1v-1h1v-1h1v-2h1v-1h1v-3h-2v1h-1v-2h3v-7h1v-7h1v-1h1v-1h1v-1h1v-1h1v-3h1v1h1v-1h1v-2h1v-2h-1v1h-2v1h-1v-1h-3v-1h1v-3h-1v-1h2v1h2v2h2v-2h1v-1h-1v-1h-1v1h-2v-2h1v-1h-2v-1h-1v1h-1v1h-1v2h-3v-3h1v-1h-1v-1h-6v-2h1v-2h-2v-3h-2v-1h-1v-1h-3v-1h1v-2h6v-2h2v-2h3v-1h2v1h3v1h5v1h1v1h5v4h1v-1h2v1h2v-1h1v-3h2v-1h-1v-1h2v-2h1v-1h2v-1h21v8h8v7h12v1h1v7h7v-23h-9v-8h-4zm3 36h1v1h-1z" style="fill:#a85d29;fill-rule:nonzero"/><path d="M155 588h18v10h9v80h9v25h-9v9h-9v16h-9v6h-1v-13h-7v-26h-10v-60h1v-20h8z" style="fill:#febb00;fill-rule:nonzero"/><path d="M545 56h26v7h9v1h7v7h1v1h9v7h16v9h10v4h8v1h8v-2h1v-3h9v-9h8v20h-8v10h-27v5h-6v8h-36v-8h-9v-5h-10V99h-9V72h-15v6h-1v1h-8v-8h8v-8h9z" style="fill-rule:nonzero"/><path d="M241 99h8v1h1v22h-10v24h-10v10h10v10h-10v8h-8v15h-1v5h-1v8h-6v9h-1v9h5v-9h3v-8h1v-1h8v-13h10v4h-3v1h-2v9h-5v8h10v-9h9v9h-8v9h-11v-8h-8v17h-8v8h-1v-16h-3v3h-1v5h-1v-7h-1v7h-9v-8h-8v8h-9v-9h-17v-1h-9v-16h1v-1h9v-21h8v8h18v-8h8v-4h7v-1h1v-10h7v-10h8v-27h8v-20h11z" style="fill:#010000;fill-rule:nonzero"/><path d="M219 695h3v33h-7v22h-2v22h193v1h-44v9h-18v-8h-20v-1H217v2h3v1h-3v3h-1v-1h-2v-1h2v-1h-3v-1h-2v-1h-2v1h-1v-1h-1v-1h2v-1h1v-1h-3v-4h1v-1h1v2h1v-4h1v8h1v-16h-1v1h-1v-1h-1v2h-1v1h-1v1h-1v2h1v1h-2v-1h-4v2h1v1h1v-2h1v8h-2v1h-2v2h-1v-1h-1v1h-1v1h1v1h2v1h-1v1h1v1h-3v7h-1v2h-1v5h2v6h-2v1h-1v1h-1v1h1v4h-1v2h-1v1h1v4h-1v1h-1v2h-1v-5h-1v1h-2v-1h1v-3h-2v1h-1v1h-1v1h-7v-3h-2v-12h-1v18h8v8h-1v-7h-8v-18h-7v-24h6v-1h1v-22h9v-14h9v-8h8v-7h7v-1h1v-9h1v-8h10v-1h1z" style="fill:#aa5c27;fill-rule:nonzero"/><path d="M873 356h11v2h-1v3h-1v5h8v10h9v14h8v8h9v9h7v8h9v15h8v21h-1v1h-7v32h-1v1h-8v-19h-1v-5h-5v15h-1v26h-9v26h-8v17h-9v-24h9v-29h-2v3h-1v-2h-1v-1h-1v-4h1v-2h4v-3h1v-1h5v-12h-1v-1h-1v-7h2v-19h-1v-1h1v-1h1v-1h2v-3h1v1h2v1h1v-1h1v-1h1v-1h1v2h3v-1h1v-2h3v2h1v1h1v1h1v2h-1v1h5v-6h-6v-15h-6v-1h-1v-1h-9v-13h-7v-8h-1v-1h-9v-20h-8v-1h-1v-10h-8z" style="fill:#af612c;fill-rule:nonzero"/><path d="M536 712h8v38h-8v22h1v1h22v7h-16v-1h-1v-3h-1v-1h1v-1h-3v3h-1v1h-1v1h-1v2h-1v2h-1v1h1v3h-24v2h-1v7h-42v-9h-9v-1h-1v-2h-1v-2h-1v-1h-1v-5h24v1h2v-1h20v-1h-56v-1h-7v-1h72v-14h4v-8h6v-15h8v-15h8z" style="fill:#ac5e29;fill-rule:nonzero"/><path d="M717 931h2v2h1v2h2v1h1v1h2v3h2v2h6v-1h1v-3h1v-2h3v-1h4v1h2v2h1v-1h2v-4h9v9h-16v6h-7v1h-7v32h-50v-2h-1v-12h-8v-10h9v-9h8v-7h16v-8h9v8h1v-1h1v-1h1v-4h1v-1h1v-1h1v-1h2z" style="fill:#4f2912;fill-rule:nonzero"/><path d="M606 202h27v9h7v9h9v10h7v8h10v8h9v8h9v7h-44v-7h-7v-1h-10v-7h-7v-8h-10v-1h-1v-7h-7v-10h24v-9h-16z" style="fill:#fd000d;fill-rule:nonzero"/><path d="M329 51h8v1h1v2h19v1h-1v1h5v15h-8v17h-3v1h-1v9h-4v1h-1v1h-1v9h-9v6h-1v7h-3v7h-6v8h-3v9h-1v1h-5v9h-4v4h-1v6h-5v-8h1v-12h8v-17h9v-7h1v-13h1v-1h8v-5h-9v-1h-9v7h-9V89h9V71h9v-8h6v-7h-4v-2h2v-2h1z" style="fill:#010000;fill-rule:nonzero"/><path d="M139 326h16v8h10v8h8v14h9v19h8v15h9v17h7v13h7v10h37v6h9v7h9v9h7v8h-8v-7h-13v-1h-4v-9h-10v-6h-33v-7h-8v-10h-9v-14h-8v-9h-1v-13h-8v-8h-1v-10h-7v-10h-10v-14h-9v-8h-7z" style="fill:#feb400;fill-rule:nonzero"/><path d="M560 166h11v36h9v18h8v18h9v8h8v7h1v8h17v9h26v9h26v8h-27v-8h-32v-9h-19v-9h-10v-8h-7v-15h-9v-18h-11z" style="fill:#feb700;fill-rule:nonzero"/><path d="M771 668h3v10h8v8h15v8h-1v-6h-2v-1h-12v8h1v1h7v7h7v8h1v1h7v9h9v8h6v7h2v1h-3v-5h-2v4h-3v-4h-2v3h-1v-1h-1v-1h-2v1h-1v4h1v-1h1v1h1v3h-1v1h-1v1h-2v-1h-1v1h-1v1h-3v-1h-1v-1h-1v1h-3v1h-2v-1h-2v-2h-3v1h-1v1h-1v1h-1v-1h-2v1h-2v1h-2v1h-1v1h-2v1h-1v1h-2v-1h-2v1h-2v-2h-1v1h-1v-1h-1v-2h1v-5h2v-1h1v-1h1v-3h-1v-1h-1v-1h-1v-3h-3v-52h5z" style="fill:#79411b;fill-rule:nonzero"/><path d="M81 521h8v15h6v-7h1v-1h2v37h7v-9h1v-20h14v9h-2v21h-6v10h-1v12h-5v1h-1v26h-6v-8h-1v-19H83v-11h-1v-1h-7v-20h7v10h7v-29h-7v9h-7v-9h-7v-8h7v7h6z" style="fill:#fd000d;fill-rule:nonzero"/><path d="M559 773h12v9h-10v6h-11v8h-1v1h-22v5h-1v1h-6v2h-1v1h-71v-9h-18v-1h-1v-8h-9v-6h10v6h38v8h42v-7h1v-2h24v-3h-1v-1h1v-2h1v-2h1v-1h1v-1h1v-3h3v1h-1v1h1v3h1v1h16z" style="fill:#faa100;fill-rule:nonzero"/><path d="M182 945h18v5h12v6h1v1h2v18h-3v9h-39v7h-7v-1h-1v-33h8v-7h9z" style="fill:#feb400;fill-rule:nonzero"/><path d="M113 945h25v4h8v7h1v1h1v18h-10v9h-32v6h-1v1h-6v-1h-1v-33h8v-7h7z" style="fill:#feb800;fill-rule:nonzero"/><path d="M782 687h12v1h2v6h1v2h8v7h8v1h1v8h8v9h9v7h6v1h1v22h10v31h-9v5h-1v1h-6v9h-10v-9h3v-1h1v-1h1v-3h1v-1h3v-32h-5v-7h-4v-7h-2v-7h-6v-8h-9v-9h-7v-1h-1v-8h-7v-7h-7v-1h-1z" style="fill:#dc8d00;fill-rule:nonzero"/><path d="M766 945h16v4h9v8h6v18h-9v6h-1v1h-5v1h-8v1h-8v6h-1v1h-9v-7h-8v-27h8v-7h10z" style="fill:#fda800;fill-rule:nonzero"/><path d="M314 56h16v7h-6v8h-9v18h-9v20h-5v12h-1v1h-4v7h-19v7h-18v5h-1v1h-8v-20h8v-1h1V99h8v23h20v-13h9V99h4V88h5V63h9z" style="fill:#fd000a;fill-rule:nonzero"/><path d="M216 181h6v8h-1v5h-1v8h-6v9h-1v9h5v-9h3v-8h1v-1h8v-13h10v4h-3v1h-2v9h-5v8h10v-9h9v9h-8v9h-11v-8h-8v17h-8v8h-1v-16h-3v3h-1v5h-1v-7h-1v7h-9v-8h-8v8h-9v-9h-17v-1h-9v-16h10v8h25v-1h1v-3h7v13h7v-17h1v-1h3v-9h4v-3h1v-1h2z" style="fill:#fb000d;fill-rule:nonzero"/><path d="M219 695h3v33h-7v22h-2v22h193v1h-44v9h-18v-8h-20v-1H217v2h3v1h-3v3h-1v-1h-2v-1h2v-1h-3v-1h-2v-1h-2v1h-1v-1h-1v-1h2v-1h1v-1h-3v-4h1v-1h1v2h1v-4h1v8h1v-16h-1v1h-1v-1h-1v2h-1v1h-1v1h-1v2h1v1h-2v-1h-4v2h1v1h1v-2h1v8h-2v1h-2v2h-1v-1h-1v1h-1v1h1v1h2v1h-1v1h1v1h-3v7h-1v2h-1v5h2v6h-2v1h-1v1h-1v1h1v4h-1v2h-1v1h1v4h-1v1h-1v2h-1v-5h-1v1h-2v-1h1v-3h-2v-2h-1v-2h3v-1h-2v-4h2v-3h-1v-2h-2v-7h1v2h2v-2h-1v-5h1v-1h1v2h-1v3h1v1h1v-1h1v-1h1v-3h-2v-1h2v-1h-2v-11h1v-1h-1v-3h-1v-3h-2v-1h2v-1h1v-1h-2v-4h1v-1h3v1h2v-2h1v-1h6v-1h3v1h2v1h1v-1h1v-3h-1v-2h1v1h1v-1h2v1h1v-3h1v-33h-6v-1h1v-8h10v-1h1z" style="fill:#a95c28;fill-rule:nonzero"/><path d="M505 261h7v18h8v17h-18v-9h-13v-8h-5v-8h-7v16h7v19h-16v-9h-10v-10h-10v-8h-9v-2h2v-2h-1v-2h-1v-2h9v7h1v1h4v-1h3v-3h3v1h1v-2h1v-1h1v-1h1v-1h1v1h2v-1h1v5h2v1h-1v1h1v7h1v7h1v2h1v-1h1v1h1v-1h2v-27h1v-2h1v3h1v1h5v1h1v1h10v-1h5v1h1v-1h1v2h2v-3h1v-1h1v-2h-1z" style="fill:#af5f25;fill-rule:nonzero"/><path d="M277 142h10v4h4v10h-5v20h-1v1h-8v13h-9v21h-9v9h-9v-8h4v-1h1v-8h3v-1h1v-12h8v-13h-7v3h-2v10h-3v3h-1v2h-2v3h-1v3h-1v-12h-10v-12h10v-4h9v-7h8v10h10v-20h-18v1h-1v1h-1v-1h-7v-10h27z" style="fill:#f5000b;fill-rule:nonzero"/><path d="M49 950h25v7h7v18h-7v9H39v7h-8v-23h8v-11h10z" style="fill:#feb200;fill-rule:nonzero"/><path d="M756 253h10v26h-1v1h-1v7h-8v10h-8v9h-15v10h-24v4h-25v-1h-17v-3h17v-1h16v-9h25v-9h15v-18h8v-8h5v-10h3z" style="fill:#faa902;fill-rule:nonzero"/><path d="M240 122h1v34h9v1h7v1h1v-1h1v-1h18v20h-10v-10h-8v7h-9v4h-10v12h-10v13h-8v1h-1v8h-3v9h-5v-9h1v-9h6v-8h1v-5h1v-15h8v-8h10v-10h-10v-10h10z" style="fill:#770005;fill-rule:nonzero"/><path d="M361 316h1v9h-1v1h-65v16h-9v34h-10v31h-9v13h-9v-30h8v-24h10v-23h-6v-1h6v-9h10v-8h67v-3h6v-1h1z" style="fill:#82451e;fill-rule:nonzero"/><path d="M739 536h8v1h1v8h8v-8h10v14h-1v6h-3v2h-1v1h-2v-2h-5v2h-2v1h-2v6h3v-1h-2v-2h1v-1h11v1h-7v1h10v-1h1v-1h1v1h1v1h1v1h3v1h-3v2h3v3h-2v2h-1v1h-1v1h-2v-10h-11v10h-8v12h-9v-1h-5v-11h-8v-20h7v-10h6z" style="fill:#ac5e29;fill-rule:nonzero"/><path d="M429 147h19v9h-18v10h-10v8h-6v3h-7v5h-1v1h-8v9h-9v11h-9v17h-7v17h-8v-8h-5v-8h4v-10h8v-9h5v-11h1v-1h1v-1h9v-12h9v-1h1v-2h3v-8h13v-10h15z" style="fill:#feb000;fill-rule:nonzero"/><path d="M822 945h16v4h1v1h8v6h1v27h-1v1h-8v5h-4v-5h-3v-1h-1v-9h-17v-7h-8v-10h7v-1h1v-7h8z" style="fill:#feb900;fill-rule:nonzero"/><path d="M873 356h11v2h-1v3h-1v5h8v10h9v14h8v8h9v9h7v8h9v15h8v21h-8v-8h-1v-1h-2v-6h-6v-15h-6v-1h-1v-1h-9v-13h-7v-8h-1v-1h-9v-20h-8v-1h-1v-10h-8z" style="fill:#feaf00;fill-rule:nonzero"/><path d="M121 247h60v7h34v7h15v9h-16v-9h-85v-1h1v-1h-1v-4h-1v-1h-2v-1h-2v-1h-3z" style="fill:#d47a1d;fill-rule:nonzero"/><path d="M865 945h25v12h9v33h-1v1h-7v-1h-1v-7h-9v-8h-8v-1h-9v-7h-1v-10h1v-1h1z" style="fill:#febc00;fill-rule:nonzero"/><path d="M250 913h12v9h5v1h8v10h2v8h-18v8h3v7h-2v1h-1v10h-9v7h-20v-18h2v10h8v-9h-3v-1h2v-3h1v1h1v-1h1v-1h1v1h1v3h5v-14h-8v-9h18v-11h-9z" style="fill:#5e3219;fill-rule:nonzero"/><path d="M139 511h8v17h8v-1h-4v-3h2v-2h-1v-1h-2v-1h3v-1h1v-1h1v-4h1v1h4v-3h1v1h1v-1h3v1h1v2h-1v2h-1v2h1v4h2v1h1v-3h2v1h1v2h-1v1h1v1h1v1h2v-1h-1v-7h5v1h1v-1h1v1h1v1h1v1h1v2h-1v1h-2v-1h-1v1h-1v2h-2v2h-3v-1h-3v1h1v1h-1v1h-1v1h2v4h-1v1h-3v-3h2v-1h-2v-1h-1v1h-1v1h1v1h-1v1h1v1h-1v2h-1v2h1v1h-2v1h2v1h-8v-12h1v5h1v-1h1v-1h2v-2h1v-2h1v-1h-1v-2h2v-1h-3v-1h2v-1h1v-1h-1v-2h-1v-1h-1v1h-2v-1h-1v1h-1v1h-1v1h-1v1h-1v1h1v1h1v1h-1v17h10v11h16v9h9v3h-18v-3h-8v-9h-10v-11h-8v-9h-8z" style="fill:#a75a26;fill-rule:nonzero"/><path d="M336 56h25v15h-8v8h-9v9h-9v11h-11v-3h-5v-8h5V72h7v-9h5z" style="fill:#fa000f;fill-rule:nonzero"/><path d="M315 102h9v1h9v5h-8v1h-1v13h-1v7h-9v17h-8v12h-1v8h-9v7h-5v-7h2v-3h1v-7h2v-10h1v-9h3v-7h1v-1h5v-20h9z" style="fill:#f7000f;fill-rule:nonzero"/><path d="M439 89h19v10h-18v5h-1v1h1v3h-1v3h-1v1h-1v1h-1v-1h-2v-1h1v-1h-2v-1h1v-5h-3v-1h-1v6h-2v3h2v1h1v1h-1v3h-1v4h-2v1h-1v2h-2v3h-1v-3h-2v-1h-3v-2h-1v-4h-4v-1h-6v5h1v-1h1v2h1v-1h1v-1h1v1h1v1h-1v1h-1v5h-3v-1h-1v2h4v1h2v2h-1v1h-5v1h-2v-1h1v-1h-3v-3h-1v1h-1v-1h-1v-6h-1v7h-1v1h-3v2h-2v-1h-2v-2h-2v6h-9v-7h9v-7h9v-6h8v-7h14V99h19zm-25 29h1v2h-1zm-1 2h1v1h-1z" style="fill:#b46325;fill-rule:nonzero"/><path d="M250 229h74v9h-65v8h-29v-8h20z" style="fill:#cf771e;fill-rule:nonzero"/><path d="M693 847h15v3h-1v5h-1v1h-2v1h-1v1h-3v8h-7v8h6v-2h1v-3h25v6h-6v2h22v10h-1v1h-15v-1h9v-1h5v-6h-1v-2h-54v1h-1v1h-1v1h-1v1h-5v1h-1v4h-8v-9h9v-11h8v-10h1v-1h8z" style="fill:#492611;fill-rule:nonzero"/><path d="M191 556h1v2h2v1h1v-1h4v1h1v1h1v2h1v1h2v-1h-1v-1h1v-1h1v-1h1v1h1v1h1v1h1v1h1v1h-1v2h1v2h4v1h1v1h1v1h1v2h3v1h1v1h2v2h1v2h1v2h1v1h2v1h1v1h-1v1h1v1h-7v-1h1v-2h-2v-2h-2v-1h-4v-1h-1v1h-1v-1h-3v-1h-1v-2h-2v-1h-1v1h-2v-1h-3v-2h-1v15h30v10h-31v-10h-7v-11h-1v-8h-1v-1h1v-3h-9v-1h8v-1h-1v-2h-3v-2h4v-1h1z" style="fill:#a85c29;fill-rule:nonzero"/><path d="M76 439h1v5h1v-1h1v1h1v2h2v2h1v1h4v-4h3v1h1v2h1v1h1v-1h1v2h1v1h-1v3h1v1h1v5h1v1h-1v2h1v2h2v5h1v1h-1v1h-2v1h-1v2h-1v-8h-6v2h-9v-1h-2v-1H58v-7h-9v-8h18v-9h9z" style="fill:#ae5f2a;fill-rule:nonzero"/><path d="M791 297h14v9h9v1h7v1h-2v4h-1v5h-2v1h-1v1h-1v2h-3v2h1v1h-13v1h23v1h-48v-10h8v-9h8v-1h1z" style="fill:#a65b26;fill-rule:nonzero"/><path d="M545 14h52v7h4v1h3v5h32v1h1v9h-41V27h-9V15h-34v7h-8v6h-8v8h-6v-1h1v-2h-1v-1h-1v-4h-1v-6h15v-1h1z" style="fill:#c37120;fill-rule:nonzero"/><path d="M699 941h6v1h4v3h-1v3h-1v1h1v1h1v2h1v1h2v-2h2v-1h1v-1h1v-1h3v1h1v4h2v2h1v2h2v10h-41v-18h9v-7h6zm7 8v1h1v-1z" style="fill:#6b3a17;fill-rule:nonzero"/><path d="M658 816h10v2h3v-1h2v5h-3v1h-3v7h17v-8h41v18h-8v-1h1v-8h-1v-1h-32v1h-10v2h-2v2h-1v1h-1v1h-2v1h-2v1h-10v1h-1v3h-1v2h-6v-13h8v-6h1z" style="fill:#2c1609;fill-rule:nonzero"/><path d="M241 99h8v1h1v22h-10v24h-10v10h-8v-27h8v-20h11z" style="fill:#fd000b;fill-rule:nonzero"/><path d="M559 773h12v9h-10v6h-11v8h-1v1h-22v5h-1v1h-6v-6h-52v-1h42v-7h1v-2h24v-3h-1v-1h1v-2h1v-2h1v-1h1v-1h1v-3h3v1h-1v1h1v3h1v1h16z" style="fill:#cd7c16;fill-rule:nonzero"/><path d="M571 56h9v6h7v1h19v8h10v1h1v7h31v9h-8v3h-1v2h-8v-1h-8v-4h-10v-9h-16v-7h-9v-1h-1v-7h-7v-1h-9z" style="fill:#ffb000;fill-rule:nonzero"/><path d="M111 607h18v9h9v19h-9v11h-9v-12h-10v-19h1z" style="fill:#fd000c;fill-rule:nonzero"/><path d="M606 202h27v9h7v9h8v10h-2v-1h1v-7h-6v3h-2v1h-1v1h2v10h-1v1h-7v-8h-16v-9h-17v8h7v8h-1v-7h-7v-10h24v-9h-16z" style="fill:#fc000d;fill-rule:nonzero"/><path d="M277 72h10v7h8v-7h6v6h-1v1h-4v9h-1v11h-8v10h-10V99h-9V79h9z" style="fill:#010000;fill-rule:nonzero"/><path d="M15 407h34v2H39v5h-8v1h-4v3h4v3h9v8h1v-3h8v4h29v7h-3v6h-8v-7H40v-6H23v-10h-8z" style="fill:#64351a;fill-rule:nonzero"/><path d="M206 129h5v1h1v6h4v1h1v9h-5v10h-8v9h-1v1h-5v7h-7v3h-1v1h-1v1h-15v-1h-1v-20h1v-1h7v1h1v9h9v-10h8v-9h7z" style="fill:#fc000e;fill-rule:nonzero"/><path d="M207 166h7v14h-8v9h-7v11h-8v2h-26v-21h8v8h18v-8h8v-4h7v-1h1z" style="fill:#fc000a;fill-rule:nonzero"/><path d="M839 807h9v49h-10v21h-16v-2h4v-3h1v-1h2v-1h2v-23h7v-25h1z" style="fill:#c37d00;fill-rule:nonzero"/><path d="M182 951h9v6h1v-1h4v-1h1v2h-2v2h-2v2h-1v-1h-1v-2h-1v-1h-8v10h1v-2h1v-1h2v2h1v4h-1v1h-1v2h3v-1h1v-1h1v-1h1v2h-1v1h-1v1h-1v4h1v-3h1v7h2v-1h6v2h-16v1h-9v7h-7v-1h-1v-33h15v-1h2z" style="fill:#feb400;fill-rule:nonzero"/><path d="M836 737h1v13h1v1h10v31h-9v5h-1v1h-6v9h-10v-9h3v-1h1v-1h1v-3h1v-1h3v-3h1v-29h2v-8h1v-3h1z" style="fill:#fca600;fill-rule:nonzero"/><path d="M207 430h43v6h9v7h9v9h7v8h-8v-7h-13v-1h-4v-9h-10v-6h-33z" style="fill:#e08408;fill-rule:nonzero"/><path d="M378 307h42v9h-14v9h-33v-6h5z" style="fill:#5d331a;fill-rule:nonzero"/><path d="M685 904h15v9h-8v9h-8v3h16v8h-25v8h-8v-18h8v-1h1v-8h6v-1h2v-8h1z" style="fill:#442411;fill-rule:nonzero"/><path d="M771 668h3v10h8v8h15v8h-1v-6h-2v-1h-12v8h1v1h7v7h7v8h1v1h-8v-7h-1v1h-4v2h-2v1h-1v1h1v6h-1v1h-2v-1h1v-5h-1v-5h-1v-3h-1v-1h-3v3h-1v-4h-1v-3h-2v1h-2v-13h-2v15h1v1h1v1h1v-1h3v13h-1v-2h-1v-2h-5v-33h5z" style="fill:#854819;fill-rule:nonzero"/><path d="M287 157h3v1h1v-1h1v1h1v-1h1v6h-1v3h-2v7h5v-7h9v12h-6v11h-3v5h-1v-4h-8v12h-10v-25h8v-1h1v-10h1z" style="fill:#010000;fill-rule:nonzero"/><path d="M81 521h8v15h6v-7h1v-1h2v37h6v1h-6v1h-1v9h-2v1h-6v-40h-7v9h-7v-9h-7v-8h7v7h6z" style="fill:#8f0001;fill-rule:nonzero"/><path d="M907 452h9v50h-9v19h-7v-27h7z" style="fill:#fab000;fill-rule:nonzero"/><path d="M649 772h100v1h-32v1h2v3h-1v1h-1v2h1v10h-13v1h-1v4h-1v1h-3v-7h8v-1h1v-5h-10v-1h-7v6h-25v-1h11v-2h-1v-1h-4v-2h1v-1h1v-1h-1v-1h1v-1h6v2h1v1h1v1h2v-1h2v-1h1v-1h2v-2h8v-2h-7v-1h-42z" style="fill:#1a0c02;fill-rule:nonzero"/><path d="M98 957h8v10h-7v8h7v-7h2v10h-2v1h-1v2h1v2h23v-1h-9v-5h-1v-1h-1v-2h-1v-1h-1v-1h-4v-3h-3v-1h5v-11h3v4h3v1h-1v1h-1v1h2v-1h1v3h-2v1h1v1h3v1h1v3h2v1h-2v1h14v-7h9v-10h1v18h-10v9h-32v6h-1v1h-6v-1h-1z" style="fill:#feaf00;fill-rule:nonzero"/><path d="M250 857h11v8h1v1h13v1h1v11h5v10h9v15h-13v-16h-9v-9h-9v-12h-9z" style="fill:#62351a;fill-rule:nonzero"/><path d="M822 109h11v56h-11z" style="fill:#ffb900;fill-rule:nonzero"/><path d="M250 165h7v1h1v7h-8v4h-10v12h-10v13h-8v1h-1v8h-3v9h-5v-9h1v-9h6v-8h1v-5h1v-8h8v-1h1v-6h10v-8h9z" style="fill:#020000;fill-rule:nonzero"/><path d="M31 452h18v8h9v7h20v1h2v1h9v-2h5v9h-5v-1H51v-7h-1v-1h-1v-1h-9v-6h-9z" style="fill:#68391c;fill-rule:nonzero"/><path d="M766 946h15v6h2v1h3v1h-1v1h2v1h2v-5h1v7h3v1h-2v6h1v-1h1v2h1v1h-3v6h5v1h-21v-1h-2v-1h-1v-1h1v-1h2v-1h2v-1h-1v-1h1v-1h1v-1h5v-2h2v-2h-1v1h-1v-3h-1v-1h1v-2h-2v-1h-3v-1h-2v3h-2v-1h-1v1h-7v10h-10v-17h10zm14 6v1h1v-1z" style="fill:#fdac00;fill-rule:nonzero"/><path d="M573 80h7v8h8v11h28v10h-36V99h-7z" style="fill:#fdfdfc;fill-rule:nonzero"/><path d="M75 485h14v1h-8v8h32v9h-7v7h23v-8h10v27h-1v-19h-1v1H98v-9H80v-8h-5z" style="fill:#5f341a;fill-rule:nonzero"/><path d="M748 589h17v10h9v-1h8v9h-16v8h-11v-9h-7z" style="fill:#6e3c1c;fill-rule:nonzero"/><path d="M324 238h21v8h8v7h12v8h-12v-7h-8v-2h-1v-2h-1v3h-3v-2h-1v4h-1v-1h-2v2h-1v3h-1v1h-1v1h-1v1h-1v-2h-2v1h-2v2h1v2h-2v-1h-1v-2h-1v1h-2v-2h-1v-1h-2v-5h1v2h1v1h1v-3h7v-3h4v-1h1v-1h2v-4h-12z" style="fill:#ab5f28;fill-rule:nonzero"/><path d="M318 155h1v2h2v1h1v4h1v-6h10v10h-9v13h-9v14h-1v9h-8v-9h7v-17h-1v-1h-2v-1h-1v-6h-1v-1h-2v11h-1v-12h5v-6h1v-3h7z" style="fill:#ffbe00;fill-rule:nonzero"/><path d="M15 356h16v9h-1v1h1v2h1v4h1v2h1v1h-1v9h16v5H32v-4h-1v-1h-8v-8h-8z" style="fill:#b5652b;fill-rule:nonzero"/><path d="M458 797h62v8h-62z" style="fill:#feb700;fill-rule:nonzero"/><path d="M361 316h1v9h-1v1h-65v16h-9v13h-5v1h-5v-13h-6v-1h6v-9h10v-8h67v-3h6v-1h1z" style="fill:#5f3419;fill-rule:nonzero"/><path d="M128 566h10v40h-9v-18h-9v-12h8z" style="fill:#fd000b;fill-rule:nonzero"/><path d="M276 511h1v35h-6v10h-12v-4h3v-1h1v-1h1v-2h1v-1h1v-1h-1v-2h-1v-1h-3v-1h-3v-1h-1v-3h-2v-1h-1v-2h1v-3h1v-1h4v-1h2v-1h3v-3h-1v-1h-1v1h-4v1h-1v-1h-2v1h-1v-2h2v-2h1v-1h7v-1h-2v-2h2v-1h1v-1h1v-5h1v9h1v2h1v2h1v2h-1v3h-1v2h-1v2h1v2h7z" style="fill:#a75c28;fill-rule:nonzero"/><path d="M718 845h1v1h1v2h-2v1h-1v7h1v1h1v1h4v1h1v1h2v1h1v1h1v1h1v4h-4v1h-4v1h-21v3h-1v2h-6v-8h7v-8h3v-1h1v-1h2v-1h1v-5h1v-3h9v-1h1z" style="fill:#6d3a18;fill-rule:nonzero"/><path d="M640 37h32v9h12v10h-17V46h-27z" style="fill:#ed9d08;fill-rule:nonzero"/><path d="M512 476h1v45h39v-18h9v8h-8v18h-41z" style="fill:#f67178;fill-rule:nonzero"/><path d="M155 588h18v10h9v80h-1v-71h-8v-1h-1v-2h-1v2h-1v-1h-2v1h-1v2h-3v1h-1v2h-1v-1h-1v2h-1v1h-2v2h-1v-14h1v3h4v1h2v-1h-1v-2h1v-1h1v-1h-1v-7h-7v-1h-1v23h-1z" style="fill:#feb000;fill-rule:nonzero"/><path d="M413 695h16v8h1v47h8v22h-1v-21h-8v-39h-9v-9h-6v47h-8v-14h7z" style="fill:#361b0e;fill-rule:nonzero"/><path d="M756 566h10v22h8v11h-9v-10h-16v-1h-1v-12h8z" style="fill:#341c0e;fill-rule:nonzero"/><path d="M230 839h47v7h-27v10h-9v-9h-11z" style="fill:#512c16;fill-rule:nonzero"/><path d="M181 356h1v19h8v15h9v16h-1v-15h-1v3h-1v1h-1v2h-2v3h-1v-3h-1v10h-1v-1h-8v-9h-1v-13h-8v-8h8z" style="fill:#feb100;fill-rule:nonzero"/><path d="M520 326h1v5h1v-3h1v-1h15v3h-1v1h1v2h-3v1h2v1h-3v2h-1v-1h-2v3h-1v1h-1v2h-2v1h-3v2h-1v9h-1v-10h-1v12h8v20h-9z" style="fill:#a45926;fill-rule:nonzero"/><path d="M39 957h19v6h-9v5h1v1h1v2h1v1h2v1h2v-1h2v1h8v1h-8v8h2v-1h4v2H49v-1h5v-1h-3v-1h-4v-4h-2v-1h1v-1h-1v-2h-1v2h-1v1h-2v1h-1v2h-1v-3h-6v10h-1v-17h7zm-2 21h2v1h-2z" style="fill:#ffb900;fill-rule:nonzero"/><path d="M155 913h14v10h-1v6h2v1h3v1h4v-1h-1v-1h3v-1h2v1h4v1h2v1h-4v1h29v1h-31v8h-7v1h-9v6h-3v-14h1v-1h2v-12h-10z" style="fill:#a35a27;fill-rule:nonzero"/><path d="M147 536h8v1h1v8h10v11h16v9h9v3h-18v-3h-8v-9h-10v-11h-8z" style="fill:#f79f01;fill-rule:nonzero"/><path d="M14 308h1v26h8v7h9v-1h-2v-3h3v1h1v1h1v-1h7v2h2v1h-1v1h2v1h-3v1h3v1h3v5h-1v1h-5v3h-1v-3h-1v5h-9v-6h-8v-8h-8v-1h-1z" style="fill:#a55d2b;fill-rule:nonzero"/><path d="M252 230h72v8h-1v-1h-64v-3h-2v-1h-1v-1h67v-1h-71z" style="fill:#d67c1f;fill-rule:nonzero"/><path d="M822 307h16v9h10v10h-10v1h-1v-1h-5v1h-1v1h-2v2h-2v-2h-1v-1h2v-1h-2v-3h-1v-2h-1v-1h-2z" style="fill:#ab5f26;fill-rule:nonzero"/><path d="M848 326h9v8h8v8h8v14h-9v-5h-7v-9h-9z" style="fill:#cf7815;fill-rule:nonzero"/><path d="M352 797h1v9h8v16h-7v-1h-1v-7h-19v-8h-47v-1h54v-1h-3v-1h1v-1h-1v-1h1v-2h2v2h1v-2h1v-1h1v4h1v1h4v2h2v1h1z" style="fill:#ac6125;fill-rule:nonzero"/><path d="M31 968h1v17h1v-10h6v3h1v-2h1v-1h2v-1h1v-2h1v2h1v1h-1v1h2v4h4v1h3v1h-5v1h15v-2h-4v1h-2v-7h9v-3h6v-4h2v6h6v1h-7v9H39v7h-8zm6 10v1h2v-1z" style="fill:#feb400;fill-rule:nonzero"/><path d="M865 945h25v12h-8v-1h-12v1h3v10h-10v-10h1v-1h1z" style="fill:#feb900;fill-rule:nonzero"/><path d="M147 815h17v7h17v1h-17v1h-1v-1h-5v2h-1v3h-1v-1h-2v1h-2v1h-1v1h-6v3h-1v1h-1v1h-1v1h-1v1h1v1h-2v1h-1v1h1v1h-3v-1h-1v-2h-2v5h-2v4h-1v-10h1v-1h4v-1h1v-1h-2v-1h3v-1h-8v13h-1v-14h10v-9h8z" style="fill:#a45a26;fill-rule:nonzero"/><path d="M812 100h1v9h3v1h5v23h-1v-3h-1v6h-1v1h-13v-15h9v2h1v1h5v-12h-1v1h-2v1h-1v1h-2v1h-3v1h-1v1h3v1h-8v-1h-1v-1h-1v-4h-2v1h-1v-1h-1v-2h2v1h2v-1h1v-2h2v-2h2v-1h1v-3h2v4h1z" style="fill:#a65d2a;fill-rule:nonzero"/><path d="M816 780h4v1h1v1h7v1h-1v3h-1v1h-1v1h-3v18h-17v-10h1v-3h1v-1h1v-1h1v-1h1v-1h1v-5h2v-2h2v-1h1z" style="fill:#75401c;fill-rule:nonzero"/><path d="M213 772h193v1h-44v9h-18v-8h-20v-1H213z" style="fill:#965117;fill-rule:nonzero"/><path d="M560 166h11v10h-10v35h2v-2h-1v-7h1v-12h1v2h3v-1h1v-2h1v1h1v8h-1v2h-1v-1h-1v2h-2v4h2v2h-2v1h1v2h-1v-1h-1v2h8v26h8v1h-9v-18h-11z" style="fill:#fdaf00;fill-rule:nonzero"/><path d="M681 807h8v2h-1v3h3v1h3v1h2v1h1v2h-2v1h2v1h2v2h-2v1h-13v8h-17v-7h3v-1h3v-6h4v-1h4z" style="fill:#753f19;fill-rule:nonzero"/><path d="M726 556h7v10h6v10h9v12h-9v-1h-5v-11h-8z" style="fill:#5f3318;fill-rule:nonzero"/><path d="M825 846h2v19h3v-10h1v15h-2v1h-2v1h-1v3h-4v2h15v1h-15v5h-8v-1h-1v-2h1v-3h2v-4h1v1h2v-1h1v-5h-3v2h-1v1h-1v-7h-1v-1h1v-1h1v-1h1v-7h1v-1h1v-1h2v-1h2v-1h1v-3h1z" style="fill:#562e13;fill-rule:nonzero"/><path d="M709 494h8v27h1v8h7v8h-7v8h-1v-17h-8z" style="fill:#930009;fill-rule:nonzero"/><path d="M790 306h1v10h7v9h24v1h-48v-10h8v-9h8z" style="fill:#804521;fill-rule:nonzero"/><path d="M219 695h3v33h-7v22h-2v-38h-6v-1h1v-8h10v-1h1z" style="fill:#68361b;fill-rule:nonzero"/><path d="M822 326h1v41h1v2h-2v1h3v7h-1v1h-2v4h-1v-1h-1v6h-1v-1h-1v-1h-1v12h5v1h-8v-42h8z" style="fill:#b16027;fill-rule:nonzero"/><path d="M398 156h16v10h-13v8h-3v2h-1v-2h-1v1h-7v-1h-9v-8h18z" style="fill:#3f210f;fill-rule:nonzero"/><path d="M241 933h9v1h-1v7h1v16h-9v3h1v-2h1v3h3v2h1v-1h1v1h1v11h-19v-18h2v10h8v-9h-3v-1h2v-3h1v1h1v-1h1v-1h1v1h1v3h5v-14h-8z" style="fill:#62351b;fill-rule:nonzero"/><path d="M782 687h12v1h2v6h1v2h8v7h8v1h1v7h-5v-2h-1v-4h-2v-1h-4v4h2v3h1v1h-7v-1h-1v-8h-7v-7h-7v-1h-1z" style="fill:#c37b00;fill-rule:nonzero"/><path d="M709 546h8v42h-8z" style="fill:#91000b;fill-rule:nonzero"/><path d="M684 941h15v1h-6v7h-9v18h-1v-1h-2v1h-5v12h-1v-12h-8v-10h9v-9h8z" style="fill:#2d1709;fill-rule:nonzero"/><path d="M275 452h1v9h2v15h8v18h-9v-9h-9v-9h-1v-1h-4v-1h11v-1h1v1h1v-7h-2v-1h-1v-4h1v-1h-6v-1h7z" style="fill:#aa6029;fill-rule:nonzero"/><path d="M129 306h18v10h8v9h-16v-9h-10z" style="fill:#030100;fill-rule:nonzero"/><path d="M873 356h11v2h-1v3h-1v5h8v10h9v14h-9v-13h-8v-1h-1v-10h-8z" style="fill:#feba00;fill-rule:nonzero"/><path d="M571 56h9v6h7v1h19v8h10v1h-10v7h-9v-7h-9v-1h-1v-7h-7v-1h-9z" style="fill:#e08408;fill-rule:nonzero"/><path d="M640 279h8v8h92v10h-8v-1h-3v-1h2v-5h2v-1h-6v-1h-49v1h-2v1h-1v1h-1v-1h-1v1h-2v-1h-2v-1h-7v2h-1v1h-1v1h-1v1h-2v-3h-2v-1h-1v1h-1v-1h-1v1h-2v-1h-4v-3h-6z" style="fill:#b26226;fill-rule:nonzero"/><path d="M822 430h9v1h-6v1h8v1h1v1h1v5h-1v-3h-1v-1h-1v-1h-2v-1h-5v2h-2v4h1v1h1v3h1v2h1v3h1v1h-2v1h-1v10h7v7h-9v-1h-1v-11h-1v-2h-7v-16h8z" style="fill:#ae5e28;fill-rule:nonzero"/><path d="M199 588h31v10h-31z" style="fill:#633419;fill-rule:nonzero"/><path d="M216 181h6v8h-1v5h-1v8h-6v9h-1v1h-1v8h-6v-18h3v-9h4v-3h1v-1h2z" style="fill:#f8000b;fill-rule:nonzero"/><path d="M190 678h1v25h-9v9h-9v16h-8v-1h7v-4h-1v3h-1v-2h-4v-3h6v-9h-1v7h-1v-1h-1v-1h-1v-1h-2v-1h-1v-1h-3v-2h3v-1h1v-2h2v-2h4v-1h1v-1h1v-2h-1v-1h2v-1h1v-1h2v-1h1v-1h2v1h1v1h-1v2h9v-16h-8v-7h8z" style="fill:#feb400;fill-rule:nonzero"/><path d="M544 782h17v6h-11v8h-24v-1h-3v-1h1v-2h4v-1h-1v-2h-7v-1h24z" style="fill:#feb200;fill-rule:nonzero"/><path d="M106 957h7v10h1v1h-5v1h3v3h4v1h1v1h1v2h1v1h1v5h9v1h-23v-2h-1v-2h1v-1h2v-10h-2v7h-7v-8h7z" style="fill:#fb0;fill-rule:nonzero"/><path d="M814 166h8v36h-8z" style="fill:#feb700;fill-rule:nonzero"/><path d="M182 951h9v6h1v-1h4v-1h1v2h-2v2h-2v2h-1v-1h-1v-2h-1v-1h-8v10h1v-2h1v-1h2v2h1v4h-1v1h-1v1h-1v-1h-1v1h-6v-1h-2v-3h-2v7h-7v-8h7v-10h7v-1h2z" style="fill:#ffb900;fill-rule:nonzero"/><path d="M622 261h1v9h26v9h26v8h-27v-16h-25v1h18v1h-18v5h-1z" style="fill:#feb000;fill-rule:nonzero"/><path d="M790 485h24v9h8v8h-8v-7h-1v-1h-23z" style="fill:#dd8121;fill-rule:nonzero"/><path d="M259 156h18v20h-10v-10h-8z" style="fill:#030000;fill-rule:nonzero"/><path d="M676 56h8v7h33v8h-33v-7h-1v-7h-7z" style="fill:#dc8225;fill-rule:nonzero"/><path d="M766 945h16v4h9v8h6v18h-9v6h-1v1h-5v1h-8v-8h10v-1h12v-1h-5v-6h3v-1h-1v-2h-1v1h-1v-6h2v-1h-3v-7h-1v5h-2v-1h-2v-1h1v-1h-3v-1h-2v-6h-15zm14 7h1v1h-1z" style="fill:#f29d00;fill-rule:nonzero"/><path d="M873 528h9v17h8v10h-1v1h-6v9h-2v-1h-1v-8h1v-11h-8z" style="fill:#b46805;fill-rule:nonzero"/><path d="M864 545h9v21h-8v10h-8v-11h7z" style="fill:#da7f13;fill-rule:nonzero"/><path d="M259 191h8v20h-8v9h-9v-8h4v-1h1v-8h3v-1h1z" style="fill:#fd000a;fill-rule:nonzero"/><path d="M314 56h16v7h-6v8h-9v18h-1V78h-1v-4h-2v-1h-1v-1h-3v-2h6v-6h-7v14h-1V63h9z" style="fill:#fa000b;fill-rule:nonzero"/><path d="M756 502h9v8h-5v1h-4v11h-3v-1h2v-10h-7v17h-13v-7h-2v-10h6v10h8v-11h9z" style="fill:#6e3c1f;fill-rule:nonzero"/><path d="M717 72h38v7h-30v-1h-8z" style="fill:#d88023;fill-rule:nonzero"/><path d="M931 415h1v15h8v21h-8v-8h-1v-1h-2v-6h-6v-6h8z" style="fill:#c67227;fill-rule:nonzero"/><path d="M406 645h14v23h-7v-9h-1v-1h-6z" style="fill:#592d15;fill-rule:nonzero"/><path d="M222 156h18v10h-10v8h-9v-8h1z" style="fill:#010000;fill-rule:nonzero"/><path d="M766 615h32v1h-1v7h-31z" style="fill:#572e16;fill-rule:nonzero"/><path d="M81 521h8v15h-7v10h-7v-9h-7v-8h7v7h6z" style="fill:#b90006;fill-rule:nonzero"/><path d="M298 521h7v35h-9v-10h3v-24h-1z" style="fill:#80000d;fill-rule:nonzero"/><path d="M584 282h1v1h1v1h5v1h1v1h1v1h-1v1h2v-1h1v-1h1v1h1v2h-5v1h-1v1h1v1h1v2h-1v2h1v1h4v9h-9v-9h-17v-9h-10v-1h11v9h15v-1h-4v-3h-1v-3h-1v-1h1v-2h4v-1h-1v-1h-1z" style="fill:#a85d2a;fill-rule:nonzero"/><path d="M250 443h18v9h7v8h-8v-7h-13v-1h-4z" style="fill:#bf6c16;fill-rule:nonzero"/><path d="M15 356h16v9h-1v1h-7v10h-8z" style="fill:#713f21;fill-rule:nonzero"/><path d="M439 271h9v7h1v1h9v7h1v1h9v9h-10v-9h-10v-8h-9v-2h2v-2h-1v-2h-1z" style="fill:#f39b00;fill-rule:nonzero"/><path d="M286 177h9v12h-8v13h-10v-12h1v-1h8z" style="fill:#f30010;fill-rule:nonzero"/><path d="M227 566h14v22h-11v-8h1v-1h-1v-3h3v-4h-1v-1h-1v-1h-3v-1h-1v-1h2v-1h-2z" style="fill:#a75b2a;fill-rule:nonzero"/><path d="M98 957h8v10h-7v8h7v-7h2v10h-2v1h-1v2h1v2h2v1h-2v6h-1v1h-6v-1h-1z" style="fill:#ffb400;fill-rule:nonzero"/><path d="M756 476h26v9h-26z" style="fill:#d97c1f;fill-rule:nonzero"/><path d="M798 287h8v10h16v9h-17v-9h-7z" style="fill:#c8731f;fill-rule:nonzero"/><path d="M709 628h7v1h1v6h-8v43h-1v1h8v7h-1v-3h-3v-1h-1v-2h-2v1h-3v-45h-1v-2h1v-5h1v4h1v-4h1z" style="fill:#fe000f;fill-rule:nonzero"/><path d="M791 89h23v10h-23z" style="fill:#e2841a;fill-rule:nonzero"/><path d="M207 967h8v8h-3v9h-13v-4h-8v-5h8v-1h8z" style="fill:#ae6800;fill-rule:nonzero"/><path d="M536 750h8v22h32v2h-4v8h-1v-9h-34v-1h-1z" style="fill:#160a03;fill-rule:nonzero"/><path d="M259 390h8v7h-1v20h1v-5h1v8h-9z" style="fill:#613419;fill-rule:nonzero"/><path d="M822 109h11v56h-1v-55h-1v13h-1v2h-1v-2h-1v-1h-3v8h-1v-20h-1v53h8v1h-8v1h-1z" style="fill:#feaa00;fill-rule:nonzero"/><path d="M756 950h18v6h-1v1h-7v10h-10z" style="fill:#fdcc3a;fill-rule:nonzero"/><path d="M493 46h9v10h-8v7h-1v1h-9v7h-7v-8h7v-7h9z" style="fill:#d07820;fill-rule:nonzero"/><path d="M241 99h8v1h1v22h-9v-10h-4v-1h1v-1h-8v-1h11z" style="fill:#fa000e;fill-rule:nonzero"/><path d="M545 696h7v16h-7v38h-1v-38h-7v-9h7v-1h1z" style="fill:#43210f;fill-rule:nonzero"/><path d="M155 316h10v9h10v1h7v8h-10v-8h-16v7h9v1h-10v-8h-16v-1h16z" style="fill:#572d17;fill-rule:nonzero"/><path d="M277 334h10v21h-5v1h-5v-13h-6v-1h6z" style="fill:#512b16;fill-rule:nonzero"/><path d="M698 772h51v1h-32v1h2v3h-1v1h-1v2h1v10h-13v1h-1v4h-1v1h-3v-7h17v-7h-17v-1h1v-1h1v-1h4v-1h2v-1h2v-1h1v-2h-16v-1h3z" style="fill:#2e1707;fill-rule:nonzero"/><path d="M832 946h6v3h1v1h8v6h1v7h-10v-6h-8v-7h-1v-1h-1v-1h-1v-1h5z" style="fill:#ffc400;fill-rule:nonzero"/><path d="M805 202h8v18h-16v-9h8z" style="fill:#feb500;fill-rule:nonzero"/><path d="M707 853h2v1h3v2h-1v2h1v1h1v4h-1v5h-3v1h-9v3h-1v2h-6v-8h7v-8h3v-1h1v-1h2v-1h1z" style="fill:#80441b;fill-rule:nonzero"/><path d="M847 924h4v2h10v1h1v1h3v4h-1v1h-7v8h-10v-7h-8v-1h6v-1h2v-6h1v1h1v-2h-2z" style="fill:#562d11;fill-rule:nonzero"/><path d="M624 342h176v1h1v12h-2v1h-1v-13H624z" style="fill:#eee;fill-rule:nonzero"/><path d="M223 342h1v7h5v-1h-1v-2h6v1h1v1h2v-2h2v3h1v17h-10v-16h-7z" style="fill:#a55924;fill-rule:nonzero"/><path d="M545 14h8v8h-8v6h-8v8h-6v-1h1v-2h-1v-1h-1v-4h-1v-6h15v-1h1z" style="fill:#cd7621;fill-rule:nonzero"/><path d="M520 326h1v30h8v20h-9z" style="fill:#904e21;fill-rule:nonzero"/><path d="M295 72h6v6h-1v1h-4v9h-1v11h-8V79h8z" style="fill:#fa000d;fill-rule:nonzero"/><path d="M552 503h9v8h-8v18h-41v-7h39v1h-31v5h32z" style="fill:#ed5d67;fill-rule:nonzero"/><path d="M477 264h1v3h1v1h5v1h1v1h8v9h9v8h-13v-8h-5v-9h-8v-4h1z" style="fill:#e28506;fill-rule:nonzero"/><path d="M605 28h32v9h-22v-8h-10z" style="fill:#fead00;fill-rule:nonzero"/><path d="M193 561h5v1h1v1h1v2h1v4h-2v19h-7v-11h-1v-8h-1v-1h1v-3h2z" style="fill:#a45b25;fill-rule:nonzero"/><path d="M740 287h8v1h1v1h1v4h1v2h-3v-1h-4v1h-1v1h2v6h1v-6h1v10h-14v-9h7z" style="fill:#feb200;fill-rule:nonzero"/><path d="M766 122h15v14h-14v-6h-1z" style="fill-rule:nonzero"/><path d="M118 545h1v20h9v-9h1v9h1v1h-2v10h-8v1h-1v-1h-7v-10h6z" style="fill:#2d0000;fill-rule:nonzero"/><path d="M747 933h9v9h-16v6h-7v-7h1v-3h1v-2h3v-1h4v1h2v2h1v-1h2z" style="fill:#572e13;fill-rule:nonzero"/><path d="M221 556h20v10h-20z" style="fill:#502a14;fill-rule:nonzero"/><path d="M139 511h8v25h-8z" style="fill:#feb500;fill-rule:nonzero"/><path d="M923 443h9v8h7v1h-7v32h-1v1h-8v-10h8v-23h-8z" style="fill:#5b2d14;fill-rule:nonzero"/><path d="M227 533h1v4h3v1h-2v1h1v2h1v1h1v1h-1v1h2v-7h7v-1h10v1h-9v8h-11v11h-8v-1h7v-1h-8v1h-1v1h-1v2h-2v-1h-1v-4h1v-1h1v1h9v-2h1v2h1v-8h-1v3h-1v-1h-2v-1h-1v1h-2v-2h1v-3h1v-1h-2v-2h2v-1h2v-2h1z" style="fill:#a65d2a;fill-rule:nonzero"/><path d="M756 566h9v22h-9z" style="fill:#010000;fill-rule:nonzero"/><path d="M728 306h5v9h-24v-8h19z" style="fill:#feb400;fill-rule:nonzero"/><path d="M572 635h8v23h-8v-1h-1v-12h1z" style="fill:#653619;fill-rule:nonzero"/><path d="M514 279h6v17h-17v-9h13v-2h-1v-4h-1z" style="fill:#ffb700;fill-rule:nonzero"/><path d="M649 832h7v1h3v-1h2v1h5v-1h9v1h-2v2h-1v1h-1v1h-2v1h-2v1h-10v1h-1v3h-1v2h-6z" style="fill:#221006;fill-rule:nonzero"/><path d="M23 342h17v14h-9v-6h-8z" style="fill:#553019;fill-rule:nonzero"/><path d="M439 89h19v10h-19z" style="fill:#da7d1f;fill-rule:nonzero"/><path d="M260 476h8v9h9v9h-10v8h-1v-16h-6z" style="fill:#532c15;fill-rule:nonzero"/><path d="M916 408h6v6h1v1h8v15h-8v-9h-6v-11h3v4h1v-5h-5z" style="fill:#ffb600;fill-rule:nonzero"/><path d="M155 203h10v8h24v1h-24v8h-1v-1h-9z" style="fill:#cf0006;fill-rule:nonzero"/><path d="M848 556h8v20h-1v12h-7v-12h6v-10h-6z" style="fill:#60331a;fill-rule:nonzero"/><path d="M596 355h1v11h-9v10h-1v8h-6v5h-1v-13h5v-1h-9v1h-1v-1h-1v-1h1v-3h2v-1h1v-1h-1v-1h4v1h4v-2h1v-1h-2v-4h3v2h1v1h8z" style="fill:#ac5e29;fill-rule:nonzero"/><path d="M890 390h17v16h-7v-8h-1v-1h-9z" style="fill:#d78012;fill-rule:nonzero"/><path d="M189 328h6v2h1v-1h1v-1h3v1h2v4h-1v1h-3v-1h-2v1h-1v3h1v1h3v1h1v1h-1v1h-7v-7h-1v8h-9v-8h1v-1h7v-1h-1v-1h-1v-1h1z" style="fill:#955123;fill-rule:nonzero"/><path d="M241 888h26v7h-26z" style="fill:#62351b;fill-rule:nonzero"/><path d="M58 502h9v19H57v-11h1z" style="fill:#910008;fill-rule:nonzero"/><path d="M822 390h26v7h-26z" style="fill:#6c3b1c;fill-rule:nonzero"/><path d="M623 271h25v8h-25v-6h18v-1h-18z" style="fill:#ffb600;fill-rule:nonzero"/><path d="M343 798h1v4h1v1h4v2h2v1h-5v-1h-3v1h1v8h-10v-8h-47v-1h54v-1h-3v-1h1v-1h-1v-1h1v-2h2v2h1v-2h1z" style="fill:#a85e28;fill-rule:nonzero"/><path d="M213 431h36v5h-36z" style="fill:#fda400;fill-rule:nonzero"/><path d="M78 261h20v9H78z" style="fill:#d1791c;fill-rule:nonzero"/><path d="M99 254h25v2h1v3h3v1h-6v1H99z" style="fill:#d57a1c;fill-rule:nonzero"/><path d="M268 79h9v20h-9z" style="fill:#fb000d;fill-rule:nonzero"/><path d="M693 847h15v3h-1v5h-1v1h-2v1h-5v5h-1v-3h-3v-2h-5v2h-4v4h-1v1h-1v-7h1v-1h8z" style="fill:#2b1508;fill-rule:nonzero"/><path d="M526 250h3v1h1v1h1v2h1v2h-2v-3h-1v6h11v3h-1v5h1v-2h1v1h1v1h3v12h-1v-9h-16v-17h-6v-1h6v-1h-2z" style="fill:#ac5f28;fill-rule:nonzero"/><path d="M279 467h8v35h-10v-8h9v-18h-8v-8h1z" style="fill:#5a3017;fill-rule:nonzero"/><path d="M439 297h9v10h-4v1h1v5h1v1h-14v-1h1v-2h1v-1h1v-4h1v-1h1v1h1v-4h1z" style="fill:#a65a26;fill-rule:nonzero"/><path d="M165 588h8v10h9v80h-1v-79h-16z" style="fill:#a66600;fill-rule:nonzero"/><path d="M917 453h3v2h1v2h1v-1h1v-2h1v-1h3v1h-2v2h-1v2h-1v1h1v1h-1v4h4v-5h1v-1h-1v-2h1v-1h1v-1h1v21h-7v-9h-1v-5h-5v15h-1v-18h1z" style="fill:#a35725;fill-rule:nonzero"/><path d="M805 122h9v2h1v2h1v3h2v8h-13z" style="fill:#010000;fill-rule:nonzero"/><path d="M561 750h173v1H561z" style="fill:#0f0f0e;fill-rule:nonzero"/><path d="M414 702h15v1h1v47h8v22h-1v-21h-8v-39h-9v-9h-6z" style="fill:#703f20;fill-rule:nonzero"/><path d="M657 316h9v4h19v1h-1v4h-27z" style="fill:#371b03;fill-rule:nonzero"/><path d="M582 149h1v1h3v1h4v2h2v1h1v1h1v1h1v1h1v-1h1v-1h1v2h-1v2h-1v1h-1v3h1v1h-7v-8h-1v9h9v-1h1v1h1v7h-1v1h18v7h-1v-6h-18v-8h-10v-10h-5z" style="fill:#a95e28;fill-rule:nonzero"/><path d="M240 202h9v9h-8v9h-11v-8h10z" style="fill:#d20009;fill-rule:nonzero"/><path d="M717 686h10v10h-1v16h-8v-1h5v-1h-5v-2h4v-1h-1v-1h-1v1h-1v-4h-1v-3h1v-3h2v-3h2v-4h1v-1h-7z" style="fill:#ff0016;fill-rule:nonzero"/><path d="M839 545h9v11h-6v9h-1v1h-2v11h-7v-1h6v-10h-1v2h-1v-8h2v-4h1z" style="fill:#59331d;fill-rule:nonzero"/><path d="M315 355h169v1H315z" style="fill:#ffd8d4;fill-rule:nonzero"/><path d="M667 923h7v2h-1v2h2v-1h1v-1h2v6h2v1h3v1h-8v8h-8z" style="fill:#331a0c;fill-rule:nonzero"/><path d="M97 931h2v2h3v2h3v6h-7v7h-9v-7h-5v-1h1v-3h2v1h2v1h1v1h3v-2h1v-1h1v-1h1v-1h-1v-2h1v-1h1z" style="fill:#a55c2a;fill-rule:nonzero"/><path d="M430 789h27v2h-1v-1h-2v1h-1v1h1v2h-2v1h1v1h-23z" style="fill:#ffbd00;fill-rule:nonzero"/><path d="M380 166h20v7h-2v3h-1v-2h-1v1h-7v-1h-9z" style="fill:#030100;fill-rule:nonzero"/><path d="M306 64h7v6h-6v2h3v1h1v1h2v4h1v11h-1v-1h-7v-6h-1v-4h1z" style="fill:#fd000e;fill-rule:nonzero"/><path d="M831 856h6v21h-15v-2h4v-3h1v-1h2v-1h2z" style="fill:#c67f00;fill-rule:nonzero"/><path d="M822 326h1v41h1v2h-2v1h-1v2h-1v2h-3v-2h-1v-6h-2v-10h8z" style="fill:#a55925;fill-rule:nonzero"/><path d="M438 99h2v5h-1v1h1v3h-1v3h-1v1h-1v1h-1v-1h-2v-1h1v-1h-2v-1h1v-5h-3v-1h-1v6h-9v-9h17z" style="fill:#b46224;fill-rule:nonzero"/><path d="M269 537h8v9h-6v10h-12v-4h3v-1h1v-1h1v-2h3v-3h2z" style="fill:#562c15;fill-rule:nonzero"/><path d="M623 220h10v9h7v8h-1v1h-7v-9h-9z" style="fill:#640000;fill-rule:nonzero"/><path d="M756 589h9v10h1v7h-10z" style="fill:#945123;fill-rule:nonzero"/><path d="M633 253h15v7h28v-1h-1v-5h9v7h-44v-7h-7z" style="fill:#ba0006;fill-rule:nonzero"/><path d="M324 238h20v8h-20z" style="fill:#ce7821;fill-rule:nonzero"/><path d="M230 750h159v1H230z" style="fill:#0f0e0e;fill-rule:nonzero"/><path d="M73 968h2v6h6v1h-7v9h-7v-3h-7v1h-2v-7h9v-3h6z" style="fill:#bd7400;fill-rule:nonzero"/><path d="M857 905h7v1h1v22h-3v-1h-1v-1h-10v-8h1v-2h1v-1h1v6h1v2h6v-8h-1v-3h-1v-2h2v-3h-4z" style="fill:#643613;fill-rule:nonzero"/><path d="M813 166h1v54h-1v-18h-8v-12h1v-1h7z" style="fill:#ca7a17;fill-rule:nonzero"/><path d="M571 56h9v6h7v1h10v8h-10v-7h-7v-1h-9z" style="fill:#f5a202;fill-rule:nonzero"/><path d="M740 279h8v5h2v1h1v1h2v1h1v9h1v-9h1v10h-8v9h-1v-10h-1v6h-1v-6h-2v-1h1v-1h4v1h3v-2h-1v-4h-1v-1h-1v-1h-8z" style="fill:#fea800;fill-rule:nonzero"/><path d="M717 888h8v7h-8v2h-1v1h-3v2h-1v2h-3v1h-1v1h-7v-8h15v-6h1z" style="fill:#3a1e0d;fill-rule:nonzero"/><path d="M49 389h9v18h-9v-10h8v-1h-8z" style="fill:#78411e;fill-rule:nonzero"/><path d="M560 166h11v10h-10v44h-1z" style="fill:#c98000;fill-rule:nonzero"/><path d="M890 528h9v17h-9z" style="fill:#ffb500;fill-rule:nonzero"/><path d="M773 79h17v9h-17z" style="fill:#fda300;fill-rule:nonzero"/><path d="M90 545h8v12h-1v8h-7z" style="fill:#fe000d;fill-rule:nonzero"/><path d="M597 326h9v24h-9v-8h8v-8h-8z" style="fill:#592f16;fill-rule:nonzero"/><path d="M345 247h8v6h12v8h-12v-7h-8z" style="fill:#cc741f;fill-rule:nonzero"/><path d="M259 467h3v9h-2v10h6v16h-7z" style="fill:#6c3c1d;fill-rule:nonzero"/><path d="M633 355h149v1H633z" style="fill:#fed7d4;fill-rule:nonzero"/><path d="M648 37h24v9h-1v-1h-1v-1h-1v-5h-13v3h1v-1h1v-1h6v1h1v3h1v1h-17v-7h-1z" style="fill:#ffb400;fill-rule:nonzero"/><path d="M98 887h22v1H99v7h11v1h9v1h-5v3h-1v1h-1v5h-5v-1h-1v-2h-1v-2h-1v-1h-1v-4h-4v2h-1v-2H83v-1h15z" style="fill:#a65a27;fill-rule:nonzero"/><path d="M99 888h21v7H99z" style="fill:#d27820;fill-rule:nonzero"/><path d="M181 356h1v19h8v1h-2v2h-5v4h1v-1h2v1h1v3h-3v2h-1v-3h-1v13h-1v-13h-8v-8h8z" style="fill:#f0a005;fill-rule:nonzero"/><path d="M241 933h9v1h-1v7h1v16h-9v10h-10v-10h-1v-1h2v10h8v-9h-3v-1h2v-3h1v1h1v-1h1v-1h1v1h1v3h5v-14h-8z" style="fill:#a45a27;fill-rule:nonzero"/><path d="M814 728h7v3h1v-2h2v1h1v1h3v-1h4v-2h5v1h1v21h-1v-16h-3v2h-3v1h-1v1h-2v1h-2v-6h-2v2h-1v7h1v1h-2v-7h-2v-7h-6z" style="fill:#cc8300;fill-rule:nonzero"/><path d="M428 65h1v7h-23v7h-5v-2h-3v-1h1v-5h-1v-2h1v-1h1v-1h3v1h1v1h2v2h14v-4h1v-1h7z" style="fill:#ffb400;fill-rule:nonzero"/><path d="M230 839h47v1h-46v6h18v10h-8v-9h-11z" style="fill:#6b3b1c;fill-rule:nonzero"/><path d="M806 797h16v9h-16z" style="fill:#c37a00;fill-rule:nonzero"/></svg>